<?xml version="1.0" standalone="no"?>
<!DOCTYPE svg PUBLIC "-//W3C//DTD SVG 1.1//EN" "http://www.w3.org/Graphics/SVG/1.1/DTD/svg11.dtd" >
<svg xmlns="http://www.w3.org/2000/svg" xmlns:xlink="http://www.w3.org/1999/xlink" version="1.1">
<metadata>
Created by FontForge 20170924 at Sun Nov 11 16:08:02 2007
 By www-data
KhmerOS - font for the Khmer language of Cambodia
Copyright 2005 Danh Hong
Copyright 2005 Open Forum of Cambodia
 
This font is free software; you can redistribute it and/or modify it under the terms of the GNU Lesser General Public License as published by the Free Software Foundation; either version 2.1 of the License, or (at your option) any later version.

This library is distributed in the hope that it will be useful, but WITHOUT ANY WARRANTY; without even the implied warranty of MERCHANTABILITY or FITNESS FOR A PARTICULAR PURPOSE.? See the GNU Lesser General Public License for more details.

You should have received a copy of the GNU Lesser General Public License along with this font; if not, write to the Free Software Foundation, Inc., 51 Franklin Street, Fifth Floor, Boston, MA 02110-1301  USA or visit http://www.gnu.org/licenses/lgpl.html
</metadata>
<defs>
<font id="KhmerOSApsara" horiz-adv-x="0" >
  <font-face 
    font-family="Khmer OS Apsara"
    font-weight="400"
    font-stretch="normal"
    units-per-em="2048"
    panose-1="2 0 5 0 0 0 0 2 0 4"
    ascent="1638"
    descent="-410"
    x-height="1073"
    cap-height="1493"
    bbox="-2551 -1438 5129 2300"
    underline-thickness="48"
    underline-position="-188"
    unicode-range="U+0020-FB02"
  />
<missing-glyph 
 />
    <glyph glyph-name=".notdef" 
 />
    <glyph glyph-name="space" unicode=" " horiz-adv-x="600" 
 />
    <glyph glyph-name="space" unicode="&#xa0;" horiz-adv-x="600" 
 />
    <glyph glyph-name="exclam" unicode="!" horiz-adv-x="569" 
d="M425 1493v-692l-45 -457h-80l-45 457v692h170zM425 213v-213h-172v213h172z" />
    <glyph glyph-name="quotedbl" unicode="&#x22;" horiz-adv-x="727" 
d="M106 1452h190v-227l-55 -275h-80l-55 275v227zM434 1452h190v-227l-55 -275h-80l-55 275v227z" />
    <glyph glyph-name="numbersign" unicode="#" horiz-adv-x="1138" 
d="M993 1427l-74 -401h190v-139h-217l-63 -357h215v-139h-240l-80 -431h-155l77 431h-253l-80 -431h-156l78 431h-207v139h233l64 357h-221v139h248l73 401h156l-74 -401h256l72 401h158zM737 887h-254l-66 -357h256z" />
    <glyph glyph-name="dollar" unicode="$" horiz-adv-x="1138" 
d="M501 1577h121v-111q258 -18 354 -209q39 -77 43 -174v-20h-161q-2 158 -119 227q-41 23 -90 31q-13 2 -27 2v-510q205 -63 268 -98q174 -99 174 -316q0 -213 -139 -338q-22 -20 -49 -36q-100 -59 -254 -72v-211h-121v211q-315 21 -403 260q-33 94 -27 213h162
q14 -152 43 -201q4 -6 8 -14q72 -98 217 -117v557q-190 58 -258 107q-145 104 -145 299q0 299 286 385q54 16 117 24v111zM501 829v492q-196 -27 -231 -182q-6 -29 -6 -62q0 -184 237 -248zM622 633v-539q125 15 188 76q86 82 86 205q0 125 -96 186q-59 37 -178 72z" />
    <glyph glyph-name="percent" unicode="%" horiz-adv-x="1820" 
d="M407 1403q172 0 277 -135l37 -58q36 -75 36 -161q0 -162 -129 -267q-96 -80 -219 -80q-166 0 -272 129q-78 99 -78 222q0 166 129 272q96 78 219 78zM407 1260q-110 0 -172 -95l-24 -47q-11 -33 -11 -65q0 -109 92 -172q54 -35 117 -35q111 0 172 92q35 51 35 113
q0 116 -98 178q-49 31 -111 31zM1247 1452h135l-809 -1492h-135zM1409 659q174 0 278 -135q72 -94 72 -217q0 -162 -129 -266q-96 -79 -219 -79q-166 0 -273 128q-78 98 -78 221q0 166 132 271q96 77 217 77zM1409 516q-111 0 -172 -92q-35 -51 -35 -113q0 -112 96 -174
q51 -33 113 -33q110 0 172 93q35 51 35 110q0 117 -99 178l-47 21q-31 10 -63 10z" />
    <glyph glyph-name="ampersand" unicode="&#x26;" horiz-adv-x="1366" 
d="M1009 684h164q0 -192 -119 -375l250 -309h-223l-127 160q-100 -99 -158 -133q-115 -74 -270 -74q-238 0 -352 168q-68 100 -68 239q0 166 106 275q74 74 226 162q-144 180 -162 278q-4 27 -4 55q0 158 133 254q94 68 217 68q184 0 279 -135l30 -57q19 -43 23 -93
q2 -18 2 -37q0 -141 -113 -241q-59 -53 -170 -115l273 -334q65 115 63 244zM583 883q166 104 197 180q14 31 14 72q0 106 -92 153q-39 21 -86 21q-123 0 -164 -103q-12 -32 -12 -73q0 -68 51 -140zM856 281l-328 409q-193 -123 -234 -225q-16 -41 -16 -90q0 -133 111 -211
q71 -51 157 -51q138 0 277 133q16 16 33 35z" />
    <glyph glyph-name="quotesingle" unicode="'" horiz-adv-x="391" 
d="M98 1452h193v-227l-56 -275h-82l-55 275v227z" />
    <glyph glyph-name="parenleft" unicode="(" horiz-adv-x="681" 
d="M483 1493h112q-253 -410 -278 -879q-2 -43 -2 -84q0 -477 250 -912q14 -27 30 -52h-112q-232 303 -307 696q-27 139 -27 268q0 367 190 734q64 125 144 229z" />
    <glyph glyph-name="parenright" unicode=")" horiz-adv-x="681" 
d="M190 -434h-113q254 410 279 878q2 43 2 84q0 478 -250 914q-15 26 -31 51h113q231 -303 307 -696q26 -140 26 -269q0 -366 -190 -732q-63 -125 -143 -230z" />
    <glyph glyph-name="asterisk" unicode="*" horiz-adv-x="796" 
d="M327 1493h129l-10 -229l217 77l39 -120l-222 -62l144 -182l-105 -74l-127 191l-129 -191l-102 74l141 182l-221 62l39 120l217 -77z" />
    <glyph glyph-name="plus" unicode="+" horiz-adv-x="1196" 
d="M1093 547v-144h-424v-423h-143v423h-424v144h424v424h143v-424h424z" />
    <glyph glyph-name="comma" unicode="," horiz-adv-x="569" 
d="M178 213h215v-245q0 -269 -215 -269v78q88 4 109 68q14 39 14 119v36h-123v213z" />
    <glyph glyph-name="hyphen" unicode="-" horiz-adv-x="681" 
d="M581 639v-147h-487v147h487z" />
    <glyph glyph-name="period" unicode="." horiz-adv-x="569" 
d="M391 213v-213h-213v213h213z" />
    <glyph glyph-name="slash" unicode="/" horiz-adv-x="569" 
d="M469 1493h113l-485 -1533h-113z" />
    <glyph glyph-name="zero" unicode="0" horiz-adv-x="1138" 
d="M563 1452q224 0 342 -168q118 -169 131 -506q2 -43 2 -88q0 -277 -70 -451q-71 -174 -212 -245q-86 -41 -193 -41q-180 0 -292 111q-112 110 -156 331q-27 135 -27 307q0 400 141 590q111 146 305 160h29zM563 1292q-145 0 -218 -148t-73 -444q0 -299 72 -448
q72 -150 215 -150q121 0 192 99q72 98 93 295q10 94 10 211q0 293 -73 439q-72 146 -218 146z" />
    <glyph glyph-name="one" unicode="1" horiz-adv-x="1138" 
d="M530 1034h-322v129q209 27 270 74q62 45 105 190q4 13 8 25h119v-1452h-180v1034z" />
    <glyph glyph-name="two" unicode="2" horiz-adv-x="1138" 
d="M581 1452q248 0 379 -164l39 -61q47 -90 47 -201q0 -270 -307 -438l-205 -111q-186 -108 -236 -209q-18 -41 -26 -90h764v-178h-967q14 262 117 399q86 113 291 230l188 106q197 113 197 287q0 147 -123 227q-72 45 -164 45q-154 0 -236 -116l-14 -25q-35 -66 -43 -205
h-180q6 205 78 316q122 188 401 188z" />
    <glyph glyph-name="three" unicode="3" horiz-adv-x="1138" 
d="M544 -47q-201 0 -319 94q-117 95 -150 283q-6 43 -10 92h180q9 -135 67 -211q58 -75 165 -92q34 -6 73 -6q107 0 176 40q70 41 103 121q22 58 22 129q0 133 -75 199t-226 66l-75 -2h-23v153q231 4 301 68q55 51 55 160q0 174 -143 229q-49 18 -113 18q-159 0 -231 -108
l-12 -21q-31 -59 -33 -182h-180q4 215 101 332q98 117 288 135q31 2 65 2q144 0 242 -48q99 -48 152 -144q49 -89 49 -207q0 -222 -203 -301q190 -66 231 -222q15 -53 15 -124q0 -252 -193 -375q-123 -78 -299 -78z" />
    <glyph glyph-name="four" unicode="4" horiz-adv-x="1138" 
d="M669 348h-612v191l659 913h134v-942h215v-162h-215v-348h-181v348zM669 510v635l-454 -635h454z" />
    <glyph glyph-name="five" unicode="5" horiz-adv-x="1138" 
d="M974 1452v-178h-604l-57 -406q120 88 268 88q246 0 377 -178q92 -125 92 -305q0 -264 -178 -412q-131 -108 -320 -108q-229 0 -362 137q-17 19 -31 37q-55 68 -88 229h180q32 -121 106 -182q75 -61 191 -61q207 0 285 166q33 73 33 170q0 223 -156 309q-70 39 -162 39
q-131 0 -223 -88q-21 -21 -43 -47h-166l109 790h749z" />
    <glyph glyph-name="six" unicode="6" horiz-adv-x="1138" 
d="M575 -47q-243 0 -365 177q-122 178 -122 532q0 378 131 583q115 172 320 203q34 4 69 4q236 0 348 -190q47 -82 64 -189h-180q-37 180 -187 213q-26 6 -57 6q-113 0 -188 -74q-74 -73 -109 -221q-27 -110 -27 -256q119 162 334 162q227 0 354 -170q91 -121 91 -291
q0 -243 -168 -383q-127 -106 -308 -106zM584 743q-174 0 -256 -135q-45 -73 -45 -170q0 -176 124 -270q74 -55 170 -55q156 0 238 129q51 82 51 186q0 209 -145 285q-60 30 -137 30z" />
    <glyph glyph-name="seven" unicode="7" horiz-adv-x="1138" 
d="M1065 1452v-152q-207 -274 -344 -550q-137 -275 -205 -553q-25 -97 -41 -197h-193q103 446 293 797q113 207 303 477h-784v178h971z" />
    <glyph glyph-name="eight" unicode="8" horiz-adv-x="1138" 
d="M800 764q250 -119 250 -363q0 -229 -176 -354q-129 -94 -312 -94q-254 0 -391 168q-96 119 -96 282q0 242 248 361q-148 92 -180 190q-17 47 -17 111q0 203 166 311q113 76 270 76q238 0 359 -156q78 -98 78 -231q0 -139 -93 -223l-65 -54q-18 -12 -41 -24zM562 1292
q-163 0 -225 -118l-20 -54l-6 -57q0 -143 124 -201q56 -26 127 -26q164 0 226 116q26 49 26 109q0 153 -133 209q-51 22 -119 22zM562 684q-182 0 -262 -131q-41 -68 -41 -154q0 -168 135 -245q70 -41 164 -41q187 0 267 133q41 67 41 153q0 168 -138 246q-71 39 -166 39z
" />
    <glyph glyph-name="nine" unicode="9" horiz-adv-x="1138" 
d="M552 1452q244 0 367 -177q122 -177 123 -532q0 -378 -134 -583q-108 -166 -307 -200q-41 -7 -82 -7q-235 0 -348 190q-47 82 -63 189h180q19 -90 65 -143q47 -53 121 -70q27 -6 58 -6q114 0 188 74t109 221q26 110 26 256q-143 -158 -332 -162q-229 0 -356 170
q-90 121 -90 291q0 243 168 383q127 106 307 106zM550 1294q-156 0 -237 -131l-31 -61l-17 -72q-4 -26 -4 -53q0 -104 37 -176q36 -71 109 -109q59 -30 137 -30q170 0 254 133q47 73 47 172q0 178 -125 272q-76 55 -170 55z" />
    <glyph glyph-name="colon" unicode=":" horiz-adv-x="569" 
d="M438 213v-213h-213v213h213zM438 1073v-213h-213v213h213z" />
    <glyph glyph-name="semicolon" unicode=";" horiz-adv-x="569" 
d="M440 1073v-213h-213v213h213zM225 213h215v-245q0 -269 -215 -269v78q88 4 109 68q14 39 14 119v36h-123v213z" />
    <glyph glyph-name="less" unicode="&#x3c;" horiz-adv-x="1196" 
d="M92 406v141l1001 424v-162l-806 -330l806 -336v-161z" />
    <glyph glyph-name="equal" unicode="=" horiz-adv-x="1196" 
d="M1093 723v-143h-991v143h991zM1093 371v-144h-991v144h991z" />
    <glyph glyph-name="greater" unicode="&#x3e;" horiz-adv-x="1196" 
d="M1103 547v-141l-1001 -424v161l807 330l-807 336v162z" />
    <glyph glyph-name="question" unicode="?" horiz-adv-x="1138" 
d="M675 408h-184v112q0 103 57 178q35 45 107 113q14 12 49 43q151 135 153 270q0 144 -125 205l-63 21q-35 8 -74 8q-168 0 -229 -119q-35 -70 -35 -201h-174q0 216 92 335q93 119 277 140q39 5 80 5q258 0 372 -170l33 -62q31 -74 31 -162q0 -143 -105 -264
q-39 -47 -100 -102q-129 -119 -150 -174q-12 -31 -12 -80v-96zM675 213v-213h-184v213h184z" />
    <glyph glyph-name="at" unicode="@" horiz-adv-x="2078" 
d="M1361 1026h170l-184 -573q-25 -72 -25 -103q0 -55 60 -82q20 -8 43 -8q131 0 239 148q105 145 105 323q0 246 -199 428q-203 189 -491 201h-31q-301 0 -533 -209l-69 -70q-203 -231 -203 -522q0 -289 215 -487q221 -205 553 -205q162 0 395 66l58 -137q-230 -86 -463 -86
q-369 0 -637 219q-250 204 -289 505q-6 47 -6 94q0 316 195 582q57 80 129 143q221 201 530 252q76 13 152 13q340 0 591 -207q238 -193 275 -469q6 -43 6 -86q0 -248 -176 -457q-156 -182 -381 -182q-197 0 -225 157q-135 -147 -291 -147q-168 0 -264 141q-70 101 -70 234
q0 223 162 395q158 170 364 172q172 0 250 -178zM1054 938q-135 0 -237 -145q-93 -129 -93 -293q0 -138 97 -207q49 -35 106 -35q119 0 209 133q68 98 100 271q9 45 11 79q6 111 -84 168q-50 29 -109 29z" />
    <glyph glyph-name="A" unicode="A" horiz-adv-x="1366" 
d="M970 449h-576l-157 -449h-203l532 1493h246l525 -1493h-213zM917 608l-230 680l-245 -680h475z" />
    <glyph glyph-name="B" unicode="B" horiz-adv-x="1366" 
d="M161 0v1493h606q211 0 324 -104q119 -107 119 -275q0 -229 -207 -326q215 -83 258 -247q12 -41 14 -88v-27q0 -180 -115 -301q-116 -125 -325 -125h-674zM351 850h369q148 0 217 53q82 64 82 185q0 120 -82 184q-69 53 -217 53h-369v-475zM1085 424q0 178 -146 235
q-53 23 -123 23h-465v-514h465q133 0 199 72q70 73 70 184z" />
    <glyph glyph-name="C" unicode="C" horiz-adv-x="1478" 
d="M1355 1030h-194q-31 154 -109 225q-110 91 -295 95q-262 0 -387 -236q-82 -153 -82 -383q0 -348 195 -510q121 -100 291 -100q223 0 328 158q12 16 20 34q45 86 68 232h196q-67 -592 -614 -592q-289 0 -457 174q-217 223 -217 602q0 375 209 602q168 187 473 187
q487 0 575 -488z" />
    <glyph glyph-name="D" unicode="D" horiz-adv-x="1478" 
d="M182 0v1493h575q334 0 496 -270l45 -88q68 -166 68 -387q0 -429 -238 -623q-149 -125 -371 -125h-575zM372 168h353q356 0 432 371q18 92 18 206q0 504 -344 570q-51 10 -106 10h-353v-1157z" />
    <glyph glyph-name="E" unicode="E" horiz-adv-x="1366" 
d="M374 680v-512h881v-168h-1071v1493h1034v-168h-844v-477h814v-168h-814z" />
    <glyph glyph-name="F" unicode="F" horiz-adv-x="1251" 
d="M374 680v-680h-190v1493h1001v-168h-811v-477h713v-168h-713z" />
    <glyph glyph-name="G" unicode="G" horiz-adv-x="1593" 
d="M1452 788v-796h-121l-47 198q-213 -237 -510 -237q-313 0 -506 233q-178 213 -178 545q0 361 209 586q29 31 61 57q174 144 447 144q366 0 532 -242q68 -100 92 -236h-194q-43 201 -238 275q-86 35 -194 35q-271 0 -416 -213q-109 -160 -109 -396q0 -258 125 -430
q17 -20 33 -39q148 -147 377 -151q233 0 369 164q100 123 100 295v41h-455v167h623z" />
    <glyph glyph-name="H" unicode="H" horiz-adv-x="1478" 
d="M1127 680h-765v-680h-193v1493h190v-645h768v645h191v-1493h-191v680z" />
    <glyph glyph-name="I" unicode="I" horiz-adv-x="569" 
d="M397 1493v-1493h-193v1493h193z" />
    <glyph glyph-name="J" unicode="J" horiz-adv-x="1024" 
d="M681 1493h191v-1120q0 -254 -185 -363q-100 -57 -237 -57q-254 0 -361 176q-55 94 -55 219v131h195v-96q0 -227 165 -264q27 -6 58 -6q119 0 182 92q47 69 47 237v1051z" />
    <glyph glyph-name="K" unicode="K" horiz-adv-x="1366" 
d="M351 522v-522h-190v1493h190v-756l744 756h246l-609 -608l615 -885h-225l-527 766z" />
    <glyph glyph-name="L" unicode="L" horiz-adv-x="1138" 
d="M353 1493v-1325h738v-168h-928v1493h190z" />
    <glyph glyph-name="M" unicode="M" horiz-adv-x="1705" 
d="M958 0h-201l-424 1251v-1251h-180v1493h264l443 -1300l434 1300h264v-1493h-180v1251z" />
    <glyph glyph-name="N" unicode="N" horiz-adv-x="1478" 
d="M1322 1493v-1493h-215l-772 1210v-1210h-180v1493h207l780 -1221v1221h180z" />
    <glyph glyph-name="O" unicode="O" horiz-adv-x="1593" 
d="M796 1518q356 0 555 -252l53 -78q115 -197 115 -465q0 -303 -168 -518q-41 -53 -90 -94q-187 -158 -463 -158q-342 0 -543 240q-178 213 -178 542q0 377 227 596q195 187 492 187zM796 1350q-266 0 -414 -209q-115 -164 -115 -406q0 -323 195 -493q137 -121 336 -121
q264 0 412 205q118 161 118 401q0 338 -200 508q-136 115 -332 115z" />
    <glyph glyph-name="P" unicode="P" horiz-adv-x="1366" 
d="M376 633v-633h-190v1493h616q330 0 426 -242q35 -84 35 -196q0 -199 -129 -316q-119 -106 -289 -106h-469zM376 801h398q209 0 270 151q21 49 21 111q0 184 -162 242l-70 16q-29 4 -59 4h-398v-524z" />
    <glyph glyph-name="Q" unicode="Q" horiz-adv-x="1593" 
d="M1500 -2l-96 -118l-215 177q-176 -104 -391 -104q-342 0 -543 240q-178 213 -178 542q0 377 227 596q197 187 494 187q340 0 541 -238q180 -213 180 -541q0 -352 -211 -583zM984 420l183 -150q161 183 161 467q0 322 -192 492q-139 121 -338 121q-268 0 -416 -209
q-115 -164 -115 -406q0 -325 195 -495q137 -119 334 -119q123 0 246 57l-152 127z" />
    <glyph glyph-name="R" unicode="R" horiz-adv-x="1478" 
d="M380 643v-643h-190v1493h688q348 0 432 -246q23 -67 23 -153q0 -201 -148 -306q-39 -26 -88 -51q127 -55 166 -137q35 -76 37 -252q4 -196 39 -252q18 -26 51 -49v-47h-231q-43 98 -43 244l2 133q0 223 -164 258q-37 8 -82 8h-492zM380 811h461q248 0 285 176q8 35 8 80
q0 135 -78 201q-65 57 -215 57h-461v-514z" />
    <glyph glyph-name="S" unicode="S" horiz-adv-x="1366" 
d="M1220 1055h-180q-2 227 -225 286q-66 17 -148 17q-213 0 -297 -127l-24 -49q-12 -35 -12 -76q0 -115 110 -172q51 -27 135 -49l375 -101q246 -67 303 -266q15 -51 15 -108q0 -172 -119 -301q-23 -23 -45 -41q-150 -115 -420 -115q-346 0 -502 213q-86 117 -88 309h180
q-2 -92 33 -162q18 -34 45 -67q104 -125 344 -125q182 0 275 63q90 64 104 178q2 15 2 29q0 156 -225 227l-49 15l-371 98q-293 76 -293 348q0 254 213 369q131 70 317 70q361 0 490 -228q57 -100 57 -235z" />
    <glyph glyph-name="T" unicode="T" horiz-adv-x="1251" 
d="M725 1325v-1325h-190v1325h-492v168h1171v-168h-489z" />
    <glyph glyph-name="U" unicode="U" horiz-adv-x="1478" 
d="M1130 1493h191v-1049q0 -266 -213 -399q-148 -92 -363 -92q-338 0 -487 207q-84 119 -84 284v1049h190v-1049q0 -239 226 -303q69 -20 155 -20q254 0 347 164q38 69 38 159v1049z" />
    <glyph glyph-name="V" unicode="V" horiz-adv-x="1366" 
d="M802 0h-204l-537 1493h205l438 -1264l414 1264h203z" />
    <glyph glyph-name="W" unicode="W" horiz-adv-x="1933" 
d="M1524 0h-209l-344 1227l-334 -1227h-209l-383 1493h213l281 -1212l331 1212h205l340 -1212l275 1212h213z" />
    <glyph glyph-name="X" unicode="X" horiz-adv-x="1366" 
d="M801 766l528 -766h-235l-408 623l-410 -623h-231l528 766l-495 727h231l383 -586l385 586h228z" />
    <glyph glyph-name="Y" unicode="Y" horiz-adv-x="1366" 
d="M792 586v-586h-191v586l-575 907h236l438 -727l426 727h227z" />
    <glyph glyph-name="Z" unicode="Z" horiz-adv-x="1251" 
d="M1190 1493v-172l-893 -1153h897v-168h-1137v168l897 1157h-840v168h1076z" />
    <glyph glyph-name="bracketleft" unicode="[" horiz-adv-x="569" 
d="M512 1493v-147h-211v-1632h211v-148h-381v1927h381z" />
    <glyph glyph-name="backslash" unicode="\" horiz-adv-x="569" 
d="M97 1493l485 -1533h-113l-485 1533h113z" />
    <glyph glyph-name="bracketright" unicode="]" horiz-adv-x="569" 
d="M47 -434v148h211v1632h-211v147h381v-1927h-381z" />
    <glyph glyph-name="asciicircum" unicode="^" horiz-adv-x="960" 
d="M403 1452h150l317 -778h-141l-250 614l-248 -614h-141z" />
    <glyph glyph-name="underscore" unicode="_" horiz-adv-x="1138" 
d="M1184 -258v-102h-1229v102h1229z" />
    <glyph glyph-name="glyph65" unicode="`" horiz-adv-x="681" 
d="M276 1516l197 -304h-123l-305 304h231z" />
    <glyph glyph-name="a" unicode="a" horiz-adv-x="1138" 
d="M1096 100v-128q-72 -19 -117 -19q-145 0 -172 129q-2 14 -4 29q-178 -156 -365 -158q-225 0 -313 153q-39 72 -39 164q0 209 188 287q74 31 267 55q32 4 77 11q150 18 173 77q6 17 6 41v45q0 132 -166 156q-35 4 -74 4q-211 0 -246 -153q-4 -19 -6 -37h-172q6 147 74 223
q112 125 356 125q361 0 400 -238q4 -26 4 -55v-631q0 -84 92 -84q18 0 37 4zM797 338v192q-66 -30 -234 -53q-18 -2 -41 -6q-217 -31 -250 -141q-8 -25 -8 -56q0 -133 137 -163q33 -9 74 -9q148 0 254 97q66 59 68 139z" />
    <glyph glyph-name="b" unicode="b" horiz-adv-x="1138" 
d="M110 1493h170v-565q117 176 332 176q262 0 383 -221q76 -140 76 -342q0 -330 -187 -488q-117 -100 -280 -100q-220 0 -340 184v-137h-154v1493zM579 944q-170 0 -250 -172q-49 -102 -49 -244q0 -256 141 -362q68 -53 158 -53q172 0 258 161q55 105 55 248q0 260 -147 369
q-76 51 -166 53z" />
    <glyph glyph-name="c" unicode="c" horiz-adv-x="1024" 
d="M964 713h-172q-27 198 -199 229l-55 4q-192 0 -264 -205q-33 -94 -33 -223q0 -280 162 -373q59 -34 139 -34q219 0 262 258h172q-22 -281 -235 -375q-88 -41 -203 -41q-264 0 -391 215q-84 143 -84 350q0 328 188 486q121 100 289 100q217 0 336 -139q8 -11 16 -21
q60 -88 72 -231z" />
    <glyph glyph-name="d" unicode="d" horiz-adv-x="1138" 
d="M1014 1493v-1493h-152v141q-119 -169 -295 -186q-22 -2 -47 -2q-266 0 -389 229q-78 146 -78 357q0 315 182 469q117 96 279 96q221 0 330 -166v555h170zM542 944q-174 0 -258 -168q-41 -78 -51 -182q-2 -33 -2 -66q0 -249 144 -360q73 -55 170 -55q170 0 249 168
q50 102 50 243q0 269 -148 373q-68 47 -154 47z" />
    <glyph glyph-name="e" unicode="e" horiz-adv-x="1138" 
d="M1050 479h-791q2 -147 58 -229q88 -139 258 -139q208 0 280 215h172q-45 -248 -258 -336q-90 -37 -201 -37q-278 0 -407 225q-80 139 -80 344q0 324 193 482q122 100 299 100q235 0 368 -168q41 -51 66 -115q43 -112 43 -342zM263 618h602q2 5 2 13q0 164 -120 256
q-78 59 -177 59q-174 0 -258 -153q-41 -74 -49 -175z" />
    <glyph glyph-name="f" unicode="f" horiz-adv-x="569" 
d="M528 1073v-139h-179v-934h-170v934h-143v139h143v182q0 181 152 230q45 14 100 14q47 0 97 -10v-141q-39 2 -60 2q-119 0 -119 -109v-168h179z" />
    <glyph glyph-name="g" unicode="g" horiz-adv-x="1138" 
d="M843 1073h158v-897q0 -315 -84 -446q-14 -20 -29 -39q-98 -123 -321 -135q-23 -2 -45 -2q-283 0 -385 180q-35 64 -43 144h174q12 -80 65 -123q74 -58 195 -58q166 0 238 101q61 84 61 292v55q-121 -167 -270 -188l-56 -4q-170 0 -295 131l-12 12q-135 158 -135 422
q0 313 174 475q117 111 283 111q200 0 327 -186v155zM534 946q-180 0 -256 -184q-41 -98 -41 -234q0 -284 160 -381q59 -36 139 -36q182 0 254 188q37 94 37 223q0 307 -168 396q-55 28 -125 28z" />
    <glyph glyph-name="h" unicode="h" horiz-adv-x="1138" 
d="M143 1493h170v-567q111 143 246 170q43 8 98 8q225 0 305 -152q33 -61 33 -141v-811h-170v743q0 113 -70 162q-65 49 -151 49q-172 0 -248 -157q-43 -86 -43 -205v-592h-170v1493z" />
    <glyph glyph-name="i" unicode="i" horiz-adv-x="426" 
d="M307 1073v-1073h-170v1073h170zM307 1493v-215h-172v215h172z" />
    <glyph glyph-name="j" unicode="j" horiz-adv-x="433" 
d="M144 1073h170v-1296q0 -211 -262 -223h-31q-26 0 -57 6v146q35 -2 41 -2q106 0 129 65q10 29 10 76v1228zM314 1493v-215h-170v215h170z" />
    <glyph glyph-name="k" unicode="k" horiz-adv-x="1024" 
d="M288 1493v-875l455 455h219l-373 -371l438 -702h-211l-362 582l-166 -164v-418h-170v1493h170z" />
    <glyph glyph-name="l" unicode="l" horiz-adv-x="433" 
d="M311 1493v-1493h-172v1493h172z" />
    <glyph glyph-name="m" unicode="m" horiz-adv-x="1651" 
d="M143 1073h158v-151q110 155 262 178q31 4 67 4q183 0 271 -133q10 -15 18 -31q111 133 240 156q41 8 90 8q250 0 301 -201q10 -45 10 -98v-805h-172v739q0 166 -129 205q-33 10 -69 10q-125 0 -201 -110q-51 -76 -51 -170v-674h-172v739q0 179 -146 209q-24 6 -53 6
q-127 0 -203 -114q-49 -74 -49 -166v-674h-172v1073z" />
    <glyph glyph-name="n" unicode="n" horiz-adv-x="1097" 
d="M143 1073h158v-180q110 174 266 203q41 8 90 8q215 0 301 -143q39 -66 39 -150v-811h-170v743q0 144 -121 193q-43 18 -100 18q-172 0 -248 -157q-43 -86 -43 -205v-592h-172v1073z" />
    <glyph glyph-name="o" unicode="o" horiz-adv-x="1097" 
d="M556 1104q312 0 428 -264q60 -133 60 -320q0 -342 -209 -487q-115 -80 -277 -80q-295 0 -417 244q-68 137 -68 331q0 357 215 500q113 76 268 76zM558 946q-190 0 -268 -188q-39 -99 -39 -230q0 -280 160 -378q63 -39 147 -39q185 0 265 180q43 96 43 231q0 297 -168 391
q-62 33 -140 33z" />
    <glyph glyph-name="p" unicode="p" horiz-adv-x="1138" 
d="M110 -446v1519h158v-162q121 193 342 193q260 0 383 -227q78 -146 78 -359q0 -315 -183 -469q-80 -67 -186 -87q-43 -9 -90 -9q-199 0 -330 160v-559h-172zM581 944q-170 0 -250 -172q-49 -102 -49 -244q0 -256 141 -362q68 -53 158 -53q172 0 258 166q53 102 53 243
q0 260 -145 369q-72 53 -166 53z" />
    <glyph glyph-name="q" unicode="q" horiz-adv-x="1138" 
d="M1014 -446h-170v569q-117 -170 -332 -170q-262 0 -383 221q-76 139 -76 342q0 330 186 488q117 100 281 100q219 0 342 -174v143h152v-1519zM545 944q-173 0 -259 -166q-55 -104 -55 -250q0 -249 144 -360q73 -55 170 -55q167 0 249 166q50 102 50 243q0 269 -146 373
q-67 49 -153 49z" />
    <glyph glyph-name="r" unicode="r" horiz-adv-x="730" 
d="M141 1073h158v-194q118 190 237 219q27 6 56 6q22 0 65 -6v-174q-147 -2 -211 -45q-6 -5 -12 -9q-121 -88 -121 -313v-557h-172v1073z" />
    <glyph glyph-name="s" unicode="s" horiz-adv-x="1024" 
d="M896 774h-180q-6 172 -215 172q-168 0 -215 -100q-12 -29 -12 -62q0 -92 135 -137q29 -8 63 -16l164 -39q242 -57 289 -201q14 -43 14 -98q0 -197 -184 -287q-106 -53 -258 -53q-397 0 -426 332q-2 16 -2 34h180q13 -96 49 -137q68 -71 213 -71q172 0 230 96q20 33 20 72
q0 94 -110 133l-56 16l-159 39q-244 59 -308 164q-32 57 -32 145q0 191 172 277q100 51 239 51q297 0 369 -207q20 -55 20 -123z" />
    <glyph glyph-name="t" unicode="t" horiz-adv-x="569" 
d="M520 1073v-139h-177v-735q0 -78 45 -90q19 -7 50 -7q51 0 82 9v-143q-80 -15 -140 -15q-182 0 -205 137q-2 14 -2 33v811h-145v139h145v295h170v-295h177z" />
    <glyph glyph-name="u" unicode="u" horiz-adv-x="1138" 
d="M987 0h-154v150q-114 -162 -266 -188q-41 -9 -92 -9q-219 0 -303 143q-39 66 -39 150v827h170v-760q0 -143 121 -192q45 -19 100 -19q174 0 252 160q41 86 41 203v608h170v-1073z" />
    <glyph glyph-name="v" unicode="v" horiz-adv-x="1024" 
d="M583 0h-186l-377 1073h193l286 -870l303 870h193z" />
    <glyph glyph-name="w" unicode="w" horiz-adv-x="1478" 
d="M1134 0h-194l-217 842l-207 -842h-193l-311 1073h188l220 -835l204 835h209l211 -835l213 835h193z" />
    <glyph glyph-name="x" unicode="x" horiz-adv-x="1024" 
d="M597 555l371 -555h-199l-268 412l-272 -412h-195l379 547l-359 526h195l258 -389l258 389h193z" />
    <glyph glyph-name="y" unicode="y" horiz-adv-x="1024" 
d="M794 1073h184l-477 -1298q-45 -117 -117 -170q-70 -51 -160 -51q-63 0 -114 27v153q55 -12 90 -12q92 0 129 82q4 10 8 22l65 170l-362 1077h182l275 -835z" />
    <glyph glyph-name="z" unicode="z" horiz-adv-x="1024" 
d="M907 1073v-151l-637 -772h665v-150h-872v154l641 770h-598v149h801z" />
    <glyph glyph-name="braceleft" unicode="{" horiz-adv-x="1000" 
d="M451 200q0 250 -76 275l-225 76v99l226 76q75 25 75 274q0 450 349 451h101v-151h-103q-198 0 -198 -299q0 -301 -199 -401q199 -101 200 -400q0 -300 200 -300h100v-150h-101q-349 0 -349 450z" />
    <glyph glyph-name="bar" unicode="|" horiz-adv-x="450" 
d="M150 -100v1400h150v-1400h-150z" />
    <glyph glyph-name="braceright" unicode="}" horiz-adv-x="1000" 
d="M550 1000q0 -250 76 -275l225 -76v-99l-226 -76q-75 -26 -75 -274q0 -450 -349 -451h-101v151h103q198 0 198 299q0 301 199 401q-200 101 -200 400q0 300 -200 300h-100v150h101q349 0 349 -450z" />
    <glyph glyph-name="asciitilde" unicode="~" horiz-adv-x="1200" 
d="M800 250q-149 0 -224 125l-38 63q-38 62 -138 62q-99 0 -99 -100v-150h-151v151q0 249 247 249h3q149 0 226 -125l37 -62q37 -63 138 -63q99 0 99 100v150h150v-150q0 -249 -250 -250z" />
    <glyph glyph-name="Adieresis" unicode="&#xc4;" horiz-adv-x="1100" 
d="M1062 0h-157l-127 400h-451l-123 -400h-156l402 1300h200zM731 550l-181 574l-176 -574h357zM450 1476q0 -75 -74 -75q-75 -1 -75 74t75 75q74 1 74 -74zM651 1476q0 75 75 75q74 -1 74 -75q0 -75 -75 -75t-74 75z" />
    <glyph glyph-name="Aring" unicode="&#xc5;" horiz-adv-x="1100" 
d="M350 1500q0 200 200 200t200 -200q0 -195 -190 -200h90l412 -1300h-157l-127 400h-451l-123 -400h-156l402 1300h90q-190 5 -190 200zM731 550l-181 574l-176 -574h357zM650 1500q0 100 -100 100t-100 -100t100 -100t100 100z" />
    <glyph glyph-name="Ccedilla" unicode="&#xc7;" horiz-adv-x="1150" 
d="M150 651q0 650 500 650q249 0 401 -101v-200q-99 150 -401 150q-350 0 -350 -500t350 -500q301 0 400 150v-199q-152 -101 -400 -101h-2l-48 -100q200 0 200 -175q1 -175 -249 -175q-100 0 -150 99l150 1q149 0 149 75q0 74 -99 74l-150 1l100 207q-401 61 -401 644z" />
    <glyph glyph-name="Eacute" unicode="&#xc9;" horiz-adv-x="1049" 
d="M950 1300v-150h-650v-350h600v-150h-600v-500h650v-150h-800v1300h800zM550 1400h-100l200 400h150z" />
    <glyph glyph-name="Ntilde" unicode="&#xd1;" horiz-adv-x="1100" 
d="M300 976v-976h-150v1300h151l499 -972v972h150v-1300h-151zM706 1400q-98 0 -175 50t-125 50q-49 0 -49 -100h-101q0 200 150 200q98 0 175 -50t125 -50q50 0 50 100h100q0 -200 -150 -200z" />
    <glyph glyph-name="Odieresis" unicode="&#xd6;" horiz-adv-x="1300" 
d="M150 650q0 650 500 650t500 -650t-500 -650t-500 650zM300 650q0 -500 350 -500t350 500t-350 500t-350 -500zM550 1476q0 -75 -74 -75q-75 -1 -75 74t75 75q74 1 74 -74zM751 1476q0 75 75 75q74 -1 74 -75q0 -75 -75 -75t-74 75z" />
    <glyph glyph-name="Udieresis" unicode="&#xdc;" horiz-adv-x="1200" 
d="M600 0q-450 0 -450 400v900h150v-900q0 -250 300 -250t300 250v900h150v-900q0 -400 -450 -400zM500 1476q0 -75 -74 -75q-75 -1 -75 74t75 75q74 1 74 -74zM701 1476q0 75 75 75q74 -1 74 -75q0 -75 -75 -75t-74 75z" />
    <glyph glyph-name="aacute" unicode="&#xe1;" horiz-adv-x="1050" 
d="M100 300q0 350 550 350h101v51q0 150 -251 150q-163 0 -349 -50v150q188 50 350 50q400 0 400 -300v-700h-150v159l-13 -10q-188 -150 -338 -150q-300 0 -300 300zM251 300q0 -149 150 -149q99 0 224 99l125 100v150h-100q-399 0 -399 -200zM500 1150h-100l200 400h150z
" />
    <glyph glyph-name="agrave" unicode="&#xe0;" horiz-adv-x="1050" 
d="M100 300q0 350 550 350h101v51q0 150 -251 150q-163 0 -349 -50v150q188 50 350 50q400 0 400 -300v-700h-150v159l-13 -10q-188 -150 -338 -150q-300 0 -300 300zM251 300q0 -149 150 -149q99 0 224 99l125 100v150h-100q-399 0 -399 -200zM700 1150h-100l-300 350h150z
" />
    <glyph glyph-name="acircumflex" unicode="&#xe2;" horiz-adv-x="1050" 
d="M100 300q0 350 550 350h101v51q0 150 -251 150q-161 0 -349 -50v150q189 50 350 50q400 0 400 -300v-700h-150v159l-13 -10q-188 -150 -338 -150q-300 0 -300 300zM651 500q-400 0 -400 -200q0 -149 150 -149q99 0 224 99l125 100l1 -3v153h-100zM751 1151l-200 199
l-201 -199h-100l301 399l300 -399h-100z" />
    <glyph glyph-name="adieresis" unicode="&#xe4;" horiz-adv-x="1050" 
d="M100 300q0 350 550 350h101v51q0 150 -251 150q-161 0 -349 -50v150q189 50 350 50q400 0 400 -300v-700h-150v159l-13 -10q-188 -150 -338 -150q-300 0 -300 300zM651 500q-400 0 -400 -200q0 -149 150 -149q99 0 224 99l125 100l1 -3v153h-100zM450 1226q0 -75 -74 -75
q-75 -1 -75 74t75 75q74 1 74 -74zM651 1226q0 75 75 75q74 -1 74 -75q0 -75 -75 -75t-74 75z" />
    <glyph glyph-name="atilde" unicode="&#xe3;" horiz-adv-x="1050" 
d="M100 300q0 350 550 350h101v51q0 150 -251 150q-161 0 -349 -50v150q189 50 350 50q400 0 400 -300v-700h-150v159l-13 -10q-188 -150 -338 -150q-300 0 -300 300zM651 500q-400 0 -400 -200q0 -149 150 -149q99 0 224 99l125 100l1 -3v153h-100zM676 1150q-98 0 -175 50
t-125 50q-49 0 -49 -100h-101q0 200 150 200q98 0 175 -50t125 -50q50 0 50 100h100q0 -200 -150 -200z" />
    <glyph glyph-name="aring" unicode="&#xe5;" horiz-adv-x="1050" 
d="M100 300q0 350 550 350h101v51q0 150 -251 150q-161 0 -349 -50v150q189 50 350 50q400 0 400 -300v-700h-150v159l-13 -10q-188 -150 -338 -150q-300 0 -300 300zM651 500q-400 0 -400 -200q0 -149 150 -149q99 0 224 99l125 100l1 -3v153h-100zM650 1250
q0 100 -100 100t-100 -100t100 -100t100 100zM350 1250q0 200 200 200t200 -200t-200 -200t-200 200z" />
    <glyph glyph-name="ccedilla" unicode="&#xe7;" horiz-adv-x="1050" 
d="M150 500q0 500 451 500q202 0 350 -100v-200q-99 150 -351 150q-299 0 -299 -350q0 -349 300 -350q251 0 350 150v-199q-134 -89 -303 -100l-48 -101q200 0 200 -175q1 -175 -249 -175q-100 0 -150 99l150 1q149 0 149 75q0 74 -99 74l-150 1l97 202q-398 28 -398 498z
" />
    <glyph glyph-name="eacute" unicode="&#xe9;" horiz-adv-x="1050" 
d="M501 1001q400 0 400 -400v-151h-650q18 -300 249 -300q249 0 401 150v-199q-151 -100 -401 -100h-2q-397 0 -397 496v4q0 500 400 500zM501 851q-210 0 -245 -251h494v3q0 246 -249 248zM500 1150h-100l200 400h150z" />
    <glyph glyph-name="egrave" unicode="&#xe8;" horiz-adv-x="1050" 
d="M501 1001q400 0 400 -400v-151h-650q18 -300 249 -300q249 0 401 150v-199q-151 -100 -401 -100h-2q-397 0 -397 496v4q0 500 400 500zM501 851q-210 0 -245 -251h494v3q0 246 -249 248zM700 1150h-100l-300 350h150z" />
    <glyph glyph-name="ecircumflex" unicode="&#xea;" horiz-adv-x="1050" 
d="M501 1001q400 0 400 -400v-151h-650q18 -300 249 -300q249 0 401 150v-199q-151 -100 -401 -100h-2q-397 0 -397 496v4q0 500 400 500zM501 851q-210 0 -245 -251h494v3q0 246 -249 248zM751 1151l-200 199l-201 -199h-100l301 399l300 -399h-100z" />
    <glyph glyph-name="edieresis" unicode="&#xeb;" horiz-adv-x="1050" 
d="M501 1001q400 0 400 -400v-151h-650q18 -300 249 -300q249 0 401 150v-199q-151 -100 -401 -100h-2q-397 0 -397 496v4q0 500 400 500zM501 851q-210 0 -245 -251h494v3q0 246 -249 248zM450 1226q0 -75 -74 -75q-75 -1 -75 74t75 75q74 1 74 -74zM651 1226q0 75 75 75
q74 -1 74 -75q0 -75 -75 -75t-74 75z" />
    <glyph glyph-name="iacute" unicode="&#xed;" horiz-adv-x="450" 
d="M150 1000h150v-1000h-150v1000zM250 1150h-100l200 400h150z" />
    <glyph glyph-name="igrave" unicode="&#xec;" horiz-adv-x="450" 
d="M150 1000h150v-1000h-150v1000zM300 1150h-100l-300 350h150z" />
    <glyph glyph-name="icircumflex" unicode="&#xee;" horiz-adv-x="450" 
d="M150 1000h150v-1000h-150v1000zM424 1101l-200 199l-201 -199h-100l301 399l300 -399h-100z" />
    <glyph glyph-name="idieresis" unicode="&#xef;" horiz-adv-x="450" 
d="M150 1000h150v-1000h-150v1000zM375 1300q75 0 75 -75t-75 -75t-75 75t75 75zM75 1300q75 0 75 -75t-75 -75t-75 75t75 75z" />
    <glyph glyph-name="ntilde" unicode="&#xf1;" horiz-adv-x="1100" 
d="M300 900q100 100 250 100q400 0 400 -400v-600h-150v600q0 250 -250 250t-250 -250v-600h-150v1000h150v-100zM706 1150q-98 0 -175 50t-125 50q-49 0 -49 -100h-101q0 200 150 200q98 0 175 -50t125 -50q50 0 50 100h100q0 -200 -150 -200z" />
    <glyph glyph-name="oacute" unicode="&#xf3;" horiz-adv-x="1100" 
d="M551 1001q400 0 400 -500q-2 -500 -401 -500h-2q-397 0 -397 496v4q0 500 400 500zM550 150q250 0 250 350v4q0 346 -250 346t-250 -350t250 -350zM500 1150h-100l200 400h150z" />
    <glyph glyph-name="ograve" unicode="&#xf2;" horiz-adv-x="1100" 
d="M551 1001q400 0 400 -500q-2 -500 -401 -500h-2q-397 0 -397 496v4q0 500 400 500zM550 150q250 0 250 350v4q0 346 -250 346t-250 -350t250 -350zM700 1150h-100l-300 350h150z" />
    <glyph glyph-name="ocircumflex" unicode="&#xf4;" horiz-adv-x="1100" 
d="M551 1001q400 0 400 -500q-2 -500 -401 -500h-2q-397 0 -397 496v4q0 500 400 500zM550 150q250 0 250 350v4q0 346 -250 346t-250 -350t250 -350zM751 1151l-200 199l-201 -199h-100l301 399l300 -399h-100z" />
    <glyph glyph-name="odieresis" unicode="&#xf6;" horiz-adv-x="1100" 
d="M551 1001q400 0 400 -500q-2 -500 -401 -500h-2q-397 0 -397 496v4q0 500 400 500zM550 150q250 0 250 350v4q0 346 -250 346t-250 -350t250 -350zM450 1226q0 -75 -74 -75q-75 -1 -75 74t75 75q74 1 74 -74zM651 1226q0 75 75 75q74 -1 74 -75q0 -75 -75 -75t-74 75z
" />
    <glyph glyph-name="otilde" unicode="&#xf5;" horiz-adv-x="1100" 
d="M551 1001q400 0 400 -500q-2 -500 -401 -500h-2q-397 0 -397 496v4q0 500 400 500zM550 150q250 0 250 350v4q0 346 -250 346t-250 -350t250 -350zM700 1150q-98 0 -175 50t-125 50q-49 0 -49 -100h-101q0 200 150 200q98 0 175 -50t125 -50q50 0 50 100h100
q0 -200 -150 -200z" />
    <glyph glyph-name="uacute" unicode="&#xfa;" horiz-adv-x="1100" 
d="M550 150q250 0 250 250v600h150v-1000h-150v100q-100 -100 -250 -100q-400 0 -400 400v600h150v-600q0 -250 250 -250zM500 1150h-100l200 400h150z" />
    <glyph glyph-name="ugrave" unicode="&#xf9;" horiz-adv-x="1100" 
d="M550 150q250 0 250 250v600h150v-1000h-150v100q-100 -100 -250 -100q-400 0 -400 400v600h150v-600q0 -250 250 -250zM700 1150h-100l-300 350h150z" />
    <glyph glyph-name="ucircumflex" unicode="&#xfb;" horiz-adv-x="1100" 
d="M550 150q250 0 250 250v600h150v-1000h-150v100q-100 -100 -250 -100q-400 0 -400 400v600h150v-600q0 -250 250 -250zM751 1151l-200 199l-201 -199h-100l301 399l300 -399h-100z" />
    <glyph glyph-name="udieresis" unicode="&#xfc;" horiz-adv-x="1100" 
d="M550 150q250 0 250 250v600h150v-1000h-150v100q-100 -100 -250 -100q-400 0 -400 400v600h150v-600q0 -250 250 -250zM450 1226q0 -75 -74 -75q-75 -1 -75 74t75 75q74 1 74 -74zM651 1226q0 75 75 75q74 -1 74 -75q0 -75 -75 -75t-74 75z" />
    <glyph glyph-name="dagger" unicode="&#x2020;" horiz-adv-x="1050" 
d="M50 850v150h400v400h150v-400h400v-150h-400v-850h-150v850h-400z" />
    <glyph glyph-name="degree" unicode="&#xb0;" horiz-adv-x="1100" 
d="M800 950q0 250 -250 250t-250 -250t250 -250t250 250zM201 950q0 350 349 350q350 0 350 -350t-350 -350q-349 0 -349 350z" />
    <glyph glyph-name="cent" unicode="&#xa2;" horiz-adv-x="1051" 
d="M903 1134l-69 -174q62 -23 117 -60v-200q-59 88 -170 125l-262 -667q37 -8 82 -8q251 0 350 150v-199q-152 -101 -350 -101q-76 0 -139 14l-72 -184l-92 37l70 179q-217 106 -217 454q0 500 450 500q72 0 137 -13l72 183zM601 850q-300 0 -300 -350q0 -227 125 -306
l256 651q-38 5 -81 5z" />
    <glyph glyph-name="sterling" unicode="&#xa3;" horiz-adv-x="600" 
d="M300 700v-450l300 -100v100h100v-100q0 -150 -100 -150l-300 100l-150 -100q-150 0 -150 125t150 125v450h-121v150h121v200q0 350 300 350h150v-150h-150q-150 0 -150 -199v-201h250v-150h-250z" />
    <glyph glyph-name="section" unicode="&#xa7;" horiz-adv-x="1050" 
d="M551 151q249 0 249 135q0 134 -249 134q-401 0 -401 290q0 142 96 215q-96 73 -96 215q0 291 400 291q251 0 351 -100v-201q-101 150 -350 150q-250 0 -250 -140q0 -131 219 -139h30v-1h1q399 0 399 -285q0 -145 -96 -219q96 -71 96 -211q0 -285 -399 -285
q-253 0 -401 100v200q152 -149 401 -149zM301 710q0 -140 250 -140h12q237 3 237 146q0 134 -249 134h-14q-236 -4 -236 -140z" />
    <glyph glyph-name="bullet" unicode="&#x2022;" horiz-adv-x="1100" 
d="M200 550q0 350 349 350q350 0 350 -350t-350 -350q-349 0 -349 350z" />
    <glyph glyph-name="paragraph" unicode="&#xb6;" horiz-adv-x="1050" 
d="M600 1800h450v-100h-100v-1700h-100v1700h-150v-1700h-100v800q-499 1 -499 497v4q0 500 499 499z" />
    <glyph glyph-name="germandbls" unicode="&#xdf;" horiz-adv-x="1050" 
d="M700 975q0 175 -200 175t-200 -150v-750q0 -250 -250 -250v150q100 0 100 100v750q0 300 350 300t350 -325q0 -151 -75 -232q175 -94 175 -343q0 -400 -450 -400h-100v150h100q300 0 300 250q0 128 -68.5 189t-231.5 61h-100v150h100q200 0 200 175z" />
    <glyph glyph-name="registered" unicode="&#xae;" horiz-adv-x="1500" 
d="M750 1300q650 0 650 -650t-650 -650t-650 650t650 650zM750 100q550 0 550 550t-550 550t-550 -550t550 -550zM688 1094q309 0 309 -275q0 -198 -162 -254l266 -364h-128l-250 344q-1 -1 -9 -1h-163v-343h-103v893h240zM894 819q0 172 -206 172h-137v-343h137
q206 0 206 171z" />
    <glyph glyph-name="copyright" unicode="&#xa9;" horiz-adv-x="1500" 
d="M750 1300q650 0 650 -650t-650 -650t-650 650t650 650zM750 100q550 0 550 550t-550 550t-550 -550t550 -550zM397 651q0 450 346 450q173 0 278 -70v-138q-69 103 -278 103q-242 0 -242 -346t242 -346q209 0 277 104v-138q-105 -70 -277 -70q-346 0 -346 451z" />
    <glyph glyph-name="trademark" unicode="&#x2122;" horiz-adv-x="1550" 
d="M50 1196v104h657v-104h-277v-795h-103v795h-277zM1364 1095l-242 -417l-242 417v-694h-104v899h104l242 -416l242 416h104v-899h-104v694z" />
    <glyph glyph-name="glyph139" unicode="&#xb4;" 
d="M50 1300h-100l200 400h150z" />
    <glyph glyph-name="dieresis" unicode="&#xa8;" 
d="M-100 1376q0 -75 -74 -75q-75 -1 -75 74t75 75q74 1 74 -74zM101 1376q0 75 75 75q74 -1 74 -75q0 -75 -75 -75t-74 75z" />
    <glyph glyph-name="AE" unicode="&#xc6;" horiz-adv-x="1400" 
d="M1350 1300v-150h-650v-350h600v-150h-600v-500h650v-150h-800v400h-223l-123 -400h-156l402 1300h900zM550 550v574l-176 -574h176z" />
    <glyph glyph-name="Oslash" unicode="&#xd8;" horiz-adv-x="1300" 
d="M1069 1392l-97 -198q178 -157 178 -544q0 -650 -500 -650q-138 0 -238 49l-91 -186l-89 44l97 198q-179 156 -179 545q0 650 500 650q138 0 238 -50l91 186zM300 650q0 -271 102 -395l417 855q-71 40 -169 40q-350 0 -350 -500zM650 150q350 0 350 500q0 269 -102 393
l-417 -853q70 -40 169 -40z" />
    <glyph glyph-name="plusminus" unicode="&#xb1;" horiz-adv-x="1250" 
d="M700 699v-399h-150v400h-400v150h400v400h150v-400h400v-151h-400zM150 0v150h950v-151z" />
    <glyph glyph-name="yen" unicode="&#xa5;" horiz-adv-x="1101" 
d="M100 250v100h376v200h-376v100h363l-398 650h176l309 -509l322 509h176l-411 -650h363v-100h-375v-200h375v-100h-375v-250h-149v250h-376z" />
    <glyph glyph-name="mu" unicode="&#xb5;" horiz-adv-x="1100" 
d="M550 150q250 0 250 250v600h150v-1000h-150v100q-100 -100 -250 -100q-155 0 -250 60v-410h-150v1350h150v-600q0 -250 250 -250z" />
    <glyph glyph-name="ordfeminine" unicode="&#xaa;" horiz-adv-x="1050" 
d="M100 915q0 193 303 193h56v28q0 82 -138 82q-90 0 -193 -27v82q104 28 193 28q221 0 221 -165v-385h-83v87l-7 -5q-104 -83 -186 -83q-166 0 -166 165zM183 915q0 -82 83 -82q55 0 124 55l69 55v82h-56q-220 0 -220 -110zM100 700h450v-50h-450v50z" />
    <glyph glyph-name="ordmasculine" unicode="&#xba;" horiz-adv-x="1050" 
d="M100 700h450v-50h-450v50zM325 1300q225 0 225 -275q-1 -275 -226 -275h-1q-223 0 -223 273v2q0 275 225 275zM324 832q141 0 141 192v3q0 190 -141 190q-140 0 -140 -193q0 -192 140 -192z" />
    <glyph glyph-name="ae" unicode="&#xe6;" horiz-adv-x="1650" 
d="M1151 1001q400 0 400 -400v-151h-650q18 -300 249 -300q249 0 401 150v-199q-151 -100 -401 -100h-2q-252 0 -344 199l-66 -50q-188 -150 -338 -150q-300 0 -300 300q0 350 550 350h101v51q0 150 -251 150q-163 0 -349 -50v150q188 50 350 50q258 0 350 -125
q100 125 300 125zM251 300q0 -149 150 -149q99 0 224 99l125 100v150h-100q-399 0 -399 -200zM1151 851q-210 0 -245 -251h494v3q0 246 -249 248z" />
    <glyph glyph-name="oslash" unicode="&#xf8;" horiz-adv-x="1100" 
d="M853 1134l-76 -192q174 -112 174 -441q-2 -500 -401 -500h-2q-74 0 -134 17l-74 -188l-92 37l75 191q-172 112 -172 439v4q0 500 400 500q75 0 135 -18l74 187zM550 850q-250 0 -250 -350q0 -203 83 -288l247 627q-37 11 -80 11zM550 150q250 0 250 350v4q0 199 -83 284
l-247 -628q36 -10 80 -10z" />
    <glyph glyph-name="questiondown" unicode="&#xbf;" horiz-adv-x="1100" 
d="M151 400q0 350 350 350v250h150v-400h-150q-200 0 -200 -201q0 -250 250 -250t250 151h150q0 -300 -400 -300h-3q-397 0 -397 400zM576 1300q75 0 75 -75t-75 -75t-75 75t75 75z" />
    <glyph glyph-name="exclamdown" unicode="&#xa1;" horiz-adv-x="450" 
d="M301 100q0 -100 -50 -100h-50q-50 0 -50 100t12.5 324t37.5 576h50q25 -352 37.5 -576t12.5 -324zM150 1224q0 32 22 54t53 22q32 0 54 -22t22 -54t-22 -54t-54 -22q-31 0 -53 22t-22 54z" />
    <glyph glyph-name="logicalnot" unicode="&#xac;" horiz-adv-x="1001" 
d="M1 850v150h1000v-500h-150v350h-850z" />
    <glyph glyph-name="florin" unicode="&#x192;" horiz-adv-x="600" 
d="M300 850v-500q0 -350 -300 -350h-150v150h150q150 0 150 199v501h-121v150h121v50q0 350 300 350h150v-150h-150q-150 0 -150 -199v-51h250v-150h-250z" />
    <glyph glyph-name="guillemotleft" unicode="&#xab;" horiz-adv-x="950" 
d="M499 601l-199 -200l199 -201v-100l-399 301l399 300v-100zM849 601l-199 -200l199 -201v-100l-399 301l399 300v-100z" />
    <glyph glyph-name="guillemotright" unicode="&#xbb;" horiz-adv-x="950" 
d="M451 199l199 200l-199 201v100l399 -301l-399 -300v100zM101 199l199 200l-199 201v100l399 -301l-399 -300v100z" />
    <glyph glyph-name="ellipsis" unicode="&#x2026;" horiz-adv-x="1750" 
d="M1600 75q0 -31 -22 -53t-53 -22t-53 22t-22 53t22 53t53 22t53 -22t22 -53zM952 75q0 -31 -22 -53t-53 -22t-53 22t-22 53t22 53t53 22t53 -22t22 -53zM300 75q0 -31 -22 -53t-53 -22t-53 22t-22 53t22 53t53 22t53 -22t22 -53z" />
    <glyph glyph-name="zerowidthspace" unicode="&#x200b;" 
 />
    <glyph glyph-name="Agrave" unicode="&#xc0;" horiz-adv-x="1100" 
d="M1062 0h-157l-127 400h-451l-123 -400h-156l402 1300h200zM731 550l-181 574l-176 -574h357zM700 1400h-100l-300 350h150z" />
    <glyph glyph-name="Atilde" unicode="&#xc3;" horiz-adv-x="1100" 
d="M1062 0h-157l-127 400h-451l-123 -400h-156l402 1300h200zM731 550l-181 574l-176 -574h357zM706 1400q-98 0 -175 50t-125 50q-49 0 -49 -100h-101q0 200 150 200q98 0 175 -50t125 -50q50 0 50 100h100q0 -200 -150 -200z" />
    <glyph glyph-name="Otilde" unicode="&#xd5;" horiz-adv-x="1300" 
d="M150 650q0 650 500 650t500 -650t-500 -650t-500 650zM300 650q0 -500 350 -500t350 500t-350 500t-350 -500zM796 1400q-98 0 -175 50t-125 50q-49 0 -49 -100h-101q0 200 150 200q98 0 175 -50t125 -50q50 0 50 100h100q0 -200 -150 -200z" />
    <glyph glyph-name="OE" unicode="&#x152;" horiz-adv-x="1600" 
d="M1500 1300v-150h-650v-350h600v-150h-600v-500h650v-150h-850q-500 0 -500 651q0 649 500 649h850zM300 650q0 -500 350 -500h50v1000h-50q-350 0 -350 -500z" />
    <glyph glyph-name="oe" unicode="&#x153;" horiz-adv-x="1700" 
d="M1200 1001q400 0 400 -400v-151h-650q18 -300 249 -300q249 0 401 150v-199q-151 -100 -401 -100h-2q-226 0 -323 160q-98 -160 -324 -160h-2q-397 0 -397 496v4q0 500 400 500q226 0 324 -161q98 161 325 161zM550 150q249 0 250 347v4v3q0 346 -250 346t-250 -350
t250 -350zM1200 851q-210 0 -245 -251h494v3q0 246 -249 248z" />
    <glyph glyph-name="endash" unicode="&#x2013;" horiz-adv-x="1100" 
d="M0 550v150h1100v-150h-1100z" />
    <glyph glyph-name="emdash" unicode="&#x2014;" horiz-adv-x="1800" 
d="M0 850h1800v-150h-1800v150z" />
    <glyph glyph-name="quotedblleft" unicode="&#x201c;" horiz-adv-x="650" 
d="M333 939l-47 -21q-160 228 -182 276q-31 66 38 98q67 31 98 -36l1 -3q16 -34 39 -112t53 -202zM593 939l-47 -21q-160 228 -182 276q-31 66 38 98q67 31 98 -36l1 -3q16 -34 39 -112t53 -202z" />
    <glyph glyph-name="quotedblright" unicode="&#x201d;" horiz-adv-x="650" 
d="M133 954l-39 33q137 242 171 283q47 56 105 7q57 -47 10 -104l-3 -2q-24 -29 -84.5 -83t-159.5 -134zM411 953l-39 33q137 243 171 283q47 56 105 8q57 -48 9 -104l-2 -3q-24 -29 -84.5 -83t-159.5 -134z" />
    <glyph glyph-name="quoteleft" unicode="&#x2018;" horiz-adv-x="448" 
d="M332 939l-47 -21q-160 228 -182 276q-31 66 38 98q67 31 98 -36l1 -3q16 -34 39 -112t53 -202z" />
    <glyph glyph-name="quoteright" unicode="&#x2019;" horiz-adv-x="495" 
d="M132 954l-39 33q137 242 171 283q47 56 105 7q57 -47 10 -104l-3 -2q-24 -29 -84.5 -83t-159.5 -134z" />
    <glyph glyph-name="divide" unicode="&#xf7;" horiz-adv-x="1150" 
d="M1000 450h-850v150h850v-150zM650 225q0 -31 -22 -53t-53 -22t-53 22t-22 53t22 53t53 22t53 -22t22 -53zM650 825q0 -31 -22 -53t-53 -22t-53 22t-22 53t22 53t53 22t53 -22t22 -53z" />
    <glyph glyph-name="ydieresis" unicode="&#xff;" horiz-adv-x="1100" 
d="M258 -400l209 489l-377 911h162l298 -716l306 716h163l-598 -1400h-163zM450 1226q0 -75 -74 -75q-75 -1 -75 74t75 75q74 1 74 -74zM651 1226q0 75 75 75q74 -1 74 -75q0 -75 -75 -75t-74 75z" />
    <glyph glyph-name="Ydieresis" unicode="&#x178;" horiz-adv-x="1101" 
d="M65 1300h176l309 -509l322 509h176l-423 -670v-630h-149v629zM450 1476q0 -75 -74 -75q-75 -1 -75 74t75 75q74 1 74 -74zM651 1476q0 75 75 75q74 -1 74 -75q0 -75 -75 -75t-74 75z" />
    <glyph glyph-name="currency" unicode="&#xa4;" horiz-adv-x="1100" 
d="M266 905l60 -61q84 56 223 56q140 0 224 -56l60 59l71 -70l-61 -60q56 -84 56 -223t-55 -223l59 -59l-71 -71l-59 59q-84 -56 -224 -56q-139 0 -223 55l-59 -59l-71 71l59 59q-56 84 -56 224t56 224l-59 60zM799 550q0 250 -250 250t-250 -250t250 -250t250 250z" />
    <glyph glyph-name="guilsinglleft" unicode="&#x2039;" horiz-adv-x="600" 
d="M500 600l-200 -200l200 -200v-100l-400 300l400 300v-100z" />
    <glyph glyph-name="guilsinglright" unicode="&#x203a;" horiz-adv-x="600" 
d="M100 200l199 200l-199 200v100l400 -300l-400 -300v100z" />
    <glyph glyph-name="daggerdbl" unicode="&#x2021;" horiz-adv-x="1250" 
d="M700 -1v-399h-150v400h-400v150h400v450h-400v150h400v400h150v-400h400v-151h-400v-449h400v-151h-400z" />
    <glyph glyph-name="periodcentered" unicode="&#xb7;" horiz-adv-x="600" 
d="M500 500q0 -200 -200 -200t-200 200t200 200t200 -200z" />
    <glyph glyph-name="quotesinglbase" unicode="&#x201a;" horiz-adv-x="450" 
d="M344 10q0 -21 -13 -43l-135 -234l-88 29l50 280q6 25 27.5 41t47.5 16q39 0 73 -25q38 -27 38 -64z" />
    <glyph glyph-name="quotedblbase" unicode="&#x201e;" horiz-adv-x="800" 
d="M344 10q0 -21 -13 -43l-135 -234l-88 29l50 280q6 25 27.5 41t47.5 16q39 0 73 -25q38 -27 38 -64zM686 10q0 -21 -13 -43l-135 -234l-88 29l50 280q6 25 27.5 41t47.5 16q39 0 73 -25q38 -27 38 -64z" />
    <glyph glyph-name="perthousand" unicode="&#x2030;" horiz-adv-x="2050" 
d="M294 -204l-144 80l895 1616l145 -79zM975 451q225 0 225 -225t-224 -225q-225 0 -225 225v3q0 222 224 222zM1050 225q0 75 -75 75t-75 -75t75 -75t75 75zM375 1301q225 0 225 -225t-224 -225q-225 0 -225 225v3q0 222 224 222zM450 1075q0 75 -75 75t-75 -75t75 -75
t75 75zM1675 451q225 0 225 -225t-224 -225q-225 0 -225 225v3q0 222 224 222zM1750 225q0 75 -75 75t-75 -75t75 -75t75 75z" />
    <glyph glyph-name="Acircumflex" unicode="&#xc2;" horiz-adv-x="1100" 
d="M1062 0h-157l-127 400h-451l-123 -400h-156l402 1300h200zM731 550l-181 574l-176 -574h357zM751 1401l-200 199l-201 -199h-100l301 399l300 -399h-100z" />
    <glyph glyph-name="Ecircumflex" unicode="&#xca;" horiz-adv-x="1049" 
d="M950 1300v-150h-650v-350h600v-150h-600v-500h650v-150h-800v1300h800zM751 1401l-200 199l-201 -199h-100l301 399l300 -399h-100z" />
    <glyph glyph-name="Aacute" unicode="&#xc1;" horiz-adv-x="1100" 
d="M1062 0h-157l-127 400h-451l-123 -400h-156l402 1300h200zM731 550l-181 574l-176 -574h357zM550 1400h-100l200 400h150z" />
    <glyph glyph-name="Edieresis" unicode="&#xcb;" horiz-adv-x="1049" 
d="M950 1300v-150h-650v-350h600v-150h-600v-500h650v-150h-800v1300h800zM450 1476q0 -75 -74 -75q-75 -1 -75 74t75 75q74 1 74 -74zM651 1476q0 75 75 75q74 -1 74 -75q0 -75 -75 -75t-74 75z" />
    <glyph glyph-name="Egrave" unicode="&#xc8;" horiz-adv-x="1049" 
d="M950 1300v-150h-650v-350h600v-150h-600v-500h650v-150h-800v1300h800zM700 1400h-100l-300 350h150z" />
    <glyph glyph-name="Iacute" unicode="&#xcd;" horiz-adv-x="650" 
d="M100 150h150v1000h-150v150h450v-150h-150v-1000h150v-150h-450v150zM350 1400h-100l200 400h150z" />
    <glyph glyph-name="Icircumflex" unicode="&#xce;" horiz-adv-x="650" 
d="M100 150h150v1000h-150v150h450v-150h-150v-1000h150v-150h-450v150zM526 1399l-200 199l-201 -199h-100l301 399l300 -399h-100z" />
    <glyph glyph-name="Idieresis" unicode="&#xcf;" horiz-adv-x="650" 
d="M100 150h150v1000h-150v150h450v-150h-150v-1000h150v-150h-450v150zM250 1476q0 -75 -74 -75q-75 -1 -75 74t75 75q74 1 74 -74zM401 1476q0 75 75 75q74 -1 74 -75q0 -75 -75 -75t-74 75z" />
    <glyph glyph-name="Igrave" unicode="&#xcc;" horiz-adv-x="650" 
d="M100 150h150v1000h-150v150h450v-150h-150v-1000h150v-150h-450v150zM400 1400h-100l-300 350h150z" />
    <glyph glyph-name="Oacute" unicode="&#xd3;" horiz-adv-x="1300" 
d="M150 650q0 650 500 650t500 -650t-500 -650t-500 650zM300 650q0 -500 350 -500t350 500t-350 500t-350 -500zM600 1400h-100l200 400h150z" />
    <glyph glyph-name="Ocircumflex" unicode="&#xd4;" horiz-adv-x="1300" 
d="M150 650q0 650 500 650t500 -650t-500 -650t-500 650zM300 650q0 -500 350 -500t350 500t-350 500t-350 -500zM850 1401l-200 199l-201 -199h-100l301 399l300 -399h-100z" />
    <glyph glyph-name="Ograve" unicode="&#xd2;" horiz-adv-x="1300" 
d="M150 650q0 650 500 650t500 -650t-500 -650t-500 650zM300 650q0 -500 350 -500t350 500t-350 500t-350 -500zM750 1400h-100l-300 350h150z" />
    <glyph glyph-name="Uacute" unicode="&#xda;" horiz-adv-x="1200" 
d="M600 0q-450 0 -450 400v900h150v-900q0 -250 300 -250t300 250v900h150v-900q0 -400 -450 -400zM600 1400h-100l200 400h150z" />
    <glyph glyph-name="Ucircumflex" unicode="&#xdb;" horiz-adv-x="1200" 
d="M600 0q-450 0 -450 400v900h150v-900q0 -250 300 -250t300 250v900h150v-900q0 -400 -450 -400zM801 1401l-200 199l-201 -199h-100l301 399l300 -399h-100z" />
    <glyph glyph-name="Ugrave" unicode="&#xd9;" horiz-adv-x="1200" 
d="M600 0q-450 0 -450 400v900h150v-900q0 -250 300 -250t300 250v900h150v-900q0 -400 -450 -400zM750 1400h-100l-300 350h150z" />
    <glyph glyph-name="circumflex" unicode="&#x2c6;" 
d="M200 1400l-200 200l-200 -200h-100l300 400l300 -400h-100z" />
    <glyph glyph-name="glyph196" unicode="&#x2dc;" 
d="M150 1400q-98 0 -175 50t-125 50q-49 0 -49 -100h-101q0 200 150 200q98 0 175 -50t125 -50q50 0 50 100h100q0 -200 -150 -200z" />
    <glyph glyph-name="macron" unicode="&#xaf;" 
d="M-400 1300v150h800v-150h-800z" />
    <glyph glyph-name="cedilla" unicode="&#xb8;" 
d="M150 100l-100 -200q200 0 200 -175t-250 -175q-100 0 -150 100h150q150 0 150 75t-100 75h-150l150 300h100z" />
    <glyph glyph-name="notequal" unicode="&#x2260;" horiz-adv-x="1100" 
d="M821 1185l-100 -236h230v-149h-294l-105 -249h399v-151h-463l-116 -274l-91 39l99 235h-230v151h294l106 249h-400v149h463l117 275z" />
    <glyph glyph-name="infinity" unicode="&#x221e;" horiz-adv-x="1700" 
d="M200 350q0 350 350 350q218 0 300 -136q82 136 300 136q350 0 350 -350t-350 -350q-218 0 -300 135q-82 -135 -300 -135q-350 0 -350 350zM1400 350q0 250 -250 250t-250 -250t250 -250t250 250zM800 350v12q-7 238 -250 238q-250 0 -250 -250t250 -250t250 250z" />
    <glyph glyph-name="lessequal" unicode="&#x2264;" horiz-adv-x="1250" 
d="M1101 249l-951 455v100l951 452l35 -145l-753 -357l753 -357zM150 1v149l1001 1v-150h-1001z" />
    <glyph glyph-name="greaterequal" unicode="&#x2265;" horiz-adv-x="1250" 
d="M150 0v150h1000v-150h-1000zM201 242l-35 147l765 362l-765 352l35 145l949 -452v-100z" />
    <glyph glyph-name="partialdiff" unicode="&#x2202;" horiz-adv-x="1100" 
d="M630 847q153 -27 235 -107l29 163q43 246 -104 272q-197 34 -183 108.5t210 39.5q295 -54 226 -446l-92 -518h-1q-73 -418 -467 -349q-394 70 -320 489q73 418 467 348zM509 158q246 -43 294 227q48 271 -199 315q-246 43 -294 -228q-47 -271 199 -314z" />
    <glyph glyph-name="summation" unicode="&#x2211;" horiz-adv-x="1100" 
d="M150 1500h800v-150h-650l400 -700l-400 -700h650v-150h-800v150l400 700l-400 700v150z" />
    <glyph glyph-name="product" unicode="&#x220f;" horiz-adv-x="1150" 
d="M150 1300h850v-1300h-150v1150h-550v-1150h-150v1300z" />
    <glyph glyph-name="pi" unicode="&#x3c0;" horiz-adv-x="1150" 
d="M150 1300h850v-1300h-150v1150h-550v-1150h-150v1300z" />
    <glyph glyph-name="integral" unicode="&#x222b;" horiz-adv-x="650" 
d="M600 1300q-200 0 -200 -200v-900q0 -350 -350 -350v150q200 0 200 200v900q0 350 350 350v-150z" />
    <glyph glyph-name="Omega" unicode="&#x3a9;" horiz-adv-x="1300" 
d="M1151 149l-1 -150h-400v501q250 0 250 350q0 300 -350 300t-350 -300q0 -350 250 -350v-500v-1h-400l1 150h250v222q-251 83 -251 479q0 450 500 450t500 -450q0 -395 -250 -478v-223h251z" />
    <glyph glyph-name="radical" unicode="&#x221a;" horiz-adv-x="1100" 
d="M456 0l-204 650l-203 88h330l175 -562l342 1124h154l-397 -1300h-197z" />
    <glyph glyph-name="approxequal" unicode="&#x2248;" horiz-adv-x="1100" 
d="M150 800v149q200 100 300 50t200.5 -50t300.5 70v-149q-200 -70 -300.5 -70t-200.5 50t-300 -50zM150 400v151q200 100 300 50t200.5 -50t300.5 70v-151q-200 -70 -300.5 -70t-200.5 50t-300 -50z" />
    <glyph glyph-name="Delta" unicode="&#x394;" horiz-adv-x="1100" 
d="M1062 0h-1014l402 1300h200zM550 1124l-300 -974h607z" />
    <glyph glyph-name="lozenge" unicode="&#x25ca;" horiz-adv-x="1600" 
d="M101 700l699 700l700 -700l-700 -700zM800 210l490 490l-490 490l-489 -490z" />
    <glyph glyph-name="fraction" unicode="&#x2044;" horiz-adv-x="1000" 
d="M177 -67l-128 78l775 1285l128 -77z" />
    <glyph glyph-name="fi" unicode="&#xfb01;" horiz-adv-x="950" 
d="M300 850v-850h-150v850h-121v150h121v50q0 350 300 350h350v-150h-350q-150 0 -150 -199v-51h500v-1000h-150v850h-350z" />
    <glyph glyph-name="fl" unicode="&#xfb02;" horiz-adv-x="950" 
d="M300 850v-850h-150v850h-121v150h121v50q0 350 300 350h350v-1400h-150v1250h-200q-150 0 -150 -199v-51h250v-150h-250z" />
    <glyph glyph-name="dotlessi" unicode="&#x131;" horiz-adv-x="450" 
d="M150 1000h150v-1000h-150v1000z" />
    <glyph glyph-name="breve" unicode="&#x2d8;" 
d="M-1 1400q-251 0 -300 349h100q51 -199 201 -199q151 0 200 199h100q-49 -349 -301 -349z" />
    <glyph glyph-name="dotaccent" unicode="&#x2d9;" 
d="M-100 1350q0 100 100 100t100 -100t-100 -100t-100 100z" />
    <glyph glyph-name="ring" unicode="&#x2da;" 
d="M-100 1350q0 -100 100 -100t100 100t-100 100t-100 -100zM0 1150q-200 0 -200 200t200 200t200 -200t-200 -200z" />
    <glyph glyph-name="hungarumlaut" unicode="&#x2dd;" horiz-adv-x="797" 
d="M132 954l-39 33q137 242 171 283q47 56 105 7q57 -47 10 -104l-3 -2q-24 -29 -84.5 -83t-159.5 -134zM432 954l-39 33q137 242 171 283q47 56 105 7q57 -47 10 -104l-3 -2q-24 -29 -84.5 -83t-159.5 -134z" />
    <glyph glyph-name="ogonek" unicode="&#x2db;" 
d="M150 100l-100 -200l-50 -100l-25 -50q-55 -100 25 -100q150 0 150 50t50 50h50q0 -200 -250 -200q-100 0 -125 75t25 175l150 300h100z" />
    <glyph glyph-name="caron" unicode="&#x2c7;" 
d="M-200 1800l200 -200l200 200h100l-300 -400l-300 400h100z" />
    <glyph glyph-name="Itilde" unicode="&#x128;" horiz-adv-x="650" 
d="M100 150h150v1000h-150v150h450v-150h-150v-1000h150v-150h-450v150zM476 1400q-98 0 -175 50t-125 50q-49 0 -49 -100h-101q0 200 150 200q98 0 175 -50t125 -50q50 0 50 100h100q0 -200 -150 -200z" />
    <glyph glyph-name="itilde" unicode="&#x129;" horiz-adv-x="450" 
d="M150 1000h150v-1000h-150v1000zM376 1200q-98 0 -175 50t-125 50q-49 0 -49 -100h-101q0 200 150 200q98 0 175 -50t125 -50q50 0 50 100h100q0 -200 -150 -200z" />
    <glyph glyph-name="Scaron" unicode="&#x160;" horiz-adv-x="1100" 
d="M551 151q248 0 250 249q0 200 -246 200h-4q-401 0 -401 350q0 351 400 351q251 0 351 -100v-201q-101 150 -350 150q-250 0 -250 -200t250 -200h3q396 0 396 -349q0 -400 -399 -401q-253 0 -401 100v200q152 -149 401 -149zM350 1800l200 -200l200 200h100l-300 -400
l-300 400h100z" />
    <glyph glyph-name="scaron" unicode="&#x161;" horiz-adv-x="1050" 
d="M551 151q249 0 249 135q0 134 -249 134q-401 0 -401 290q0 291 400 291q251 0 351 -100v-201q-101 150 -350 150q-250 0 -250 -140t250 -140q399 0 399 -285t-399 -285q-253 0 -401 100v200q152 -149 401 -149zM350 1550l200 -200l200 200h100l-300 -400l-300 400h100z
" />
    <glyph glyph-name="brokenbar" unicode="&#xa6;" horiz-adv-x="450" 
d="M150 0v800h150v-800h-150zM150 1000v800h150v-800h-150z" />
    <glyph glyph-name="Dstroke" unicode="&#x110;" horiz-adv-x="1149" 
d="M-1 600v150h150v550h400q500 0 500 -650t-500 -650h-400v600h-150zM899 650q0 500 -350 500h-250v-400h300v-150h-300v-450h250q350 0 350 500z" />
    <glyph glyph-name="eth" unicode="&#xf0;" horiz-adv-x="1100" 
d="M-94 1176l482 177l-255 420l128 78l271 -446l510 188l52 -141l-483 -177l254 -418q14 -18 24 -40h1q62 -119 62 -316q-2 -500 -401 -500h-2q-397 0 -397 496v4q0 500 400 500q27 0 52 -3l-136 224l-510 -187zM551 150q250 0 250 350v4q0 346 -250 346t-250 -350t250 -350
z" />
    <glyph glyph-name="Yacute" unicode="&#xdd;" horiz-adv-x="1106" 
d="M65 1300h176l309 -509l322 509h176l-423 -670v-630h-149v629zM600 1400h-100l200 400h150z" />
    <glyph glyph-name="yacute" unicode="&#xfd;" horiz-adv-x="1100" 
d="M258 -400l209 489l-377 911h162l298 -716l306 716h163l-598 -1400h-163zM500 1150h-100l200 400h150z" />
    <glyph glyph-name="Thorn" unicode="&#xde;" horiz-adv-x="1050" 
d="M150 1300h150v-250h200q450 0 450 -400t-450 -400h-200v-250h-150v1300zM800 650q0 250 -300 250h-200v-500h200q300 0 300 250z" />
    <glyph glyph-name="thorn" unicode="&#xfe;" horiz-adv-x="1050" 
d="M300 925q94 76 251 76q400 0 400 -500q-2 -500 -401 -500h-6q-149 0 -244 74v-475h-150v1700h150v-375zM550 150q250 0 250 350t-250 350t-250 -350t250 -350z" />
    <glyph glyph-name="minus" unicode="&#xad;" horiz-adv-x="1100" 
d="M150 400v150h800v-150h-800z" />
    <glyph glyph-name="multiply" unicode="&#xd7;" horiz-adv-x="1100" 
d="M656 574l282 -282l-106 -106l-283 283l-283 -283l-106 106l283 283l-283 283l106 106l283 -283l283 283l107 -107z" />
    <glyph glyph-name="onesuperior" unicode="&#xb9;" horiz-adv-x="400" 
d="M154 1092h-104v104q69 0 104 104h104v-796h104v-104h-312v104h104v588z" />
    <glyph glyph-name="twosuperior" unicode="&#xb2;" horiz-adv-x="850" 
d="M703 1033q0 -76 -106 -193l-305 -336h411v-104h-553v101l362 399q87 96 87 132q0 164 -173 164q-172 0 -172 -173h-104q0 277 276 277q277 0 277 -267z" />
    <glyph glyph-name="threesuperior" unicode="&#xb3;" horiz-adv-x="850" 
d="M427 1301q277 0 277 -248q0 -130 -83 -189q83 -67 83 -215q0 -249 -277 -249q-276 0 -276 243h104q0 -139 172 -139t172 145q0 167 -172 167h-69v104h69q91 0 131.5 35t40.5 98q0 144 -172 144t-172 -138h-104q0 242 276 242z" />
    <glyph glyph-name="onehalf" unicode="&#xbd;" horiz-adv-x="1550" 
d="M154 1092h-104v104q69 0 104 104h104v-796h104v-104h-312v104h104v588zM1450 633q0 -76 -106 -193l-305 -336h411v-104h-553v101l362 399q87 96 87 132q0 164 -172 164q-173 0 -173 -173h-104q0 277 277 277q276 0 276 -267zM1129 1301l-781 -1302h-116l780 1301z" />
    <glyph glyph-name="onequarter" unicode="&#xbc;" horiz-adv-x="1450" 
d="M154 1092h-104v104q69 0 104 104h104v-796h104v-104h-312v104h104v588zM1129 1301l-781 -1302h-116l780 1301zM1314 278v-278h-104v278h-450v90l450 532h104v-519h85v-103h-85zM1210 739l-303 -358h303v358z" />
    <glyph glyph-name="threequarters" unicode="&#xbe;" horiz-adv-x="1700" 
d="M1379 1301l-781 -1302h-116l780 1301zM1564 278v-278h-104v278h-450v90l450 532h104v-519h85v-103h-85zM1460 739l-303 -358h303v358zM427 1301q277 0 277 -248q0 -130 -83 -189q83 -67 83 -215q0 -249 -277 -249q-276 0 -276 243h104q0 -139 172 -139t172 145
q0 167 -172 167h-69v104h69q91 0 131.5 35t40.5 98q0 144 -172 144t-172 -138h-104q0 242 276 242z" />
    <glyph glyph-name="Lslash" unicode="&#x141;" horiz-adv-x="900" 
d="M-50 600l200 61v639h150v-593l300 93v-99l-300 -93v-458h500v-150h-650v562l-200 -62v100z" />
    <glyph glyph-name="lslash" unicode="&#x142;" horiz-adv-x="450" 
d="M-50 600l200 61v639h150v-593l300 93v-99l-300 -93v-608h-150v562l-200 -62v100z" />
    <glyph glyph-name="Zcaron" unicode="&#x17d;" horiz-adv-x="1100" 
d="M350 1800l200 -200l200 200h100l-300 -400l-300 400h100zM150 124l611 1026h-611v150h800v-126l-610 -1024h610v-150h-800v124z" />
    <glyph glyph-name="zcaron" unicode="&#x17e;" horiz-adv-x="1100" 
d="M150 131h1l590 719h-591v150h800v-133h-1l-589 -717h590v-150h-800v131zM350 1550l200 -200l200 200h100l-300 -400l-300 400h100z" />
    <glyph glyph-name="Euro" unicode="&#x20ac;" horiz-adv-x="1150" 
d="M50 850h114q69 451 486 451q249 0 401 -101v-200q-99 150 -401 150q-271 0 -333 -300h283v-100h-296q-4 -47 -4 -100t4 -100h296v-100h-283q61 -300 333 -300q301 0 400 150v-199q-152 -101 -400 -101q-416 0 -486 450h-113l-1 100h103q-3 48 -3 101q0 51 3 99h-102z" />
    <glyph glyph-name="Adotbelow" unicode="&#x1ea0;" horiz-adv-x="1100" 
d="M1062 0h-157l-127 400h-451l-123 -400h-156l402 1300h200zM731 550l-181 574l-176 -574h357zM476 -150h149v-150h-149v150z" />
    <glyph glyph-name="adotbelow" unicode="&#x1ea1;" horiz-adv-x="1050" 
d="M100 300q0 350 550 350h101v51q0 150 -251 150q-163 0 -349 -50v150q188 50 350 50q400 0 400 -300v-700h-150v159l-13 -10q-188 -150 -338 -150q-300 0 -300 300zM251 300q0 -149 150 -149q99 0 224 99l125 100v150h-100q-399 0 -399 -200zM476 -150h149v-150h-149v150z
" />
    <glyph glyph-name="Ahookabove" unicode="&#x1ea2;" horiz-adv-x="1100" 
d="M1062 0h-157l-127 400h-451l-123 -400h-156l402 1300h200zM731 550l-181 574l-176 -574h357zM600 1600q100 49 100 100q0 100 -125 100t-125 -50h-100q0 150 225 150t225 -200q0 -101 -100 -150l-50 -25q-50 -26 -50 -125h-100q0 151 100 200z" />
    <glyph glyph-name="ahookabove" unicode="&#x1ea3;" horiz-adv-x="1050" 
d="M100 300q0 350 550 350h101v51q0 150 -251 150q-163 0 -349 -50v150q188 50 350 50q400 0 400 -300v-700h-150v159l-13 -10q-188 -150 -338 -150q-300 0 -300 300zM251 300q0 -149 150 -149q99 0 224 99l125 100v150h-100q-399 0 -399 -200zM600 1350q100 49 100 100
q0 100 -125 100t-125 -50h-100q0 150 225 150t225 -200q0 -101 -100 -150l-50 -25q-50 -26 -50 -125h-100q0 151 100 200z" />
    <glyph glyph-name="Acircumflexacute" unicode="&#x1ea4;" horiz-adv-x="1100" 
d="M1062 0h-157l-127 400h-451l-123 -400h-156l402 1300h200zM800 1600h-99l150 -199h-100l-200 199l-201 -199h-100l301 399l149 -199l200 399h150zM731 550l-181 574l-176 -574h357z" />
    <glyph glyph-name="acircumflexacute" unicode="&#x1ea5;" horiz-adv-x="1050" 
d="M100 300q0 350 550 350h101v51q0 150 -251 150q-161 0 -349 -50v150q189 50 350 50q400 0 400 -300v-700h-150v159l-13 -10q-188 -150 -338 -150q-300 0 -300 300zM651 500q-400 0 -400 -200q0 -149 150 -149q99 0 224 99l125 100l1 -3v153h-100zM751 1151l-200 199
l-201 -199h-100l301 399l300 -399h-100zM800 1400h-100l200 400h150z" />
    <glyph glyph-name="Acircumflexgrave" unicode="&#x1ea6;" horiz-adv-x="1100" 
d="M1062 0h-157l-127 400h-451l-123 -400h-156l402 1300h200zM731 550l-181 574l-176 -574h357zM751 1401l-200 199l-201 -199h-100l301 399l300 -399h-100zM1000 1600h-100l-300 350h150z" />
    <glyph glyph-name="acircumflexgrave" unicode="&#x1ea7;" horiz-adv-x="1050" 
d="M100 300q0 350 550 350h101v51q0 150 -251 150q-161 0 -349 -50v150q189 50 350 50q400 0 400 -300v-700h-150v159l-13 -10q-188 -150 -338 -150q-300 0 -300 300zM651 500q-400 0 -400 -200q0 -149 150 -149q99 0 224 99l125 100l1 -3v153h-100zM751 1151l-200 199
l-201 -199h-100l301 399l300 -399h-100zM1000 1350h-100l-300 350h150z" />
    <glyph glyph-name="Acircumflexhookabove" unicode="&#x1ea8;" horiz-adv-x="1100" 
d="M1062 0h-157l-127 400h-451l-123 -400h-156l402 1300h200zM731 550l-181 574l-176 -574h357zM751 1401l-200 199l-201 -199h-100l301 399l300 -399h-100zM850 1800q100 49 100 100q0 100 -125 100t-125 -50h-100q0 150 225 150t225 -200q0 -101 -100 -150l-50 -25
q-50 -26 -50 -125h-100q0 151 100 200z" />
    <glyph glyph-name="acircumflexhookabove" unicode="&#x1ea9;" horiz-adv-x="1050" 
d="M100 300q0 350 550 350h101v51q0 150 -251 150q-161 0 -349 -50v150q189 50 350 50q400 0 400 -300v-700h-150v159l-13 -10q-188 -150 -338 -150q-300 0 -300 300zM651 500q-400 0 -400 -200q0 -149 150 -149q99 0 224 99l125 100l1 -3v153h-100zM751 1151l-200 199
l-201 -199h-100l301 399l300 -399h-100zM850 1550q100 49 100 100q0 100 -125 100t-125 -50h-100q0 150 225 150t225 -200q0 -101 -100 -150l-50 -25q-50 -26 -50 -125h-100q0 151 100 200z" />
    <glyph glyph-name="Acircumflexhooktilde" unicode="&#x1eaa;" horiz-adv-x="1100" 
d="M1062 0h-157l-127 400h-451l-123 -400h-156l402 1300h200zM731 550l-181 574l-176 -574h357zM751 1401l-200 199l-201 -199h-100l301 399l300 -399h-100zM706 1850q-98 0 -175 50t-125 50q-49 0 -49 -100h-101q0 200 150 200q98 0 175 -50t125 -50q50 0 50 100h100
q0 -200 -150 -200z" />
    <glyph glyph-name="acircumflextilde" unicode="&#x1eab;" horiz-adv-x="1050" 
d="M100 300q0 350 550 350h101v51q0 150 -251 150q-161 0 -349 -50v150q189 50 350 50q400 0 400 -300v-700h-150v159l-13 -10q-188 -150 -338 -150q-300 0 -300 300zM651 500q-400 0 -400 -200q0 -149 150 -149q99 0 224 99l125 100l1 -3v153h-100zM751 1151l-200 199
l-201 -199h-100l301 399l300 -399h-100zM706 1600q-98 0 -175 50t-125 50q-49 0 -49 -100h-101q0 200 150 200q98 0 175 -50t125 -50q50 0 50 100h100q0 -200 -150 -200z" />
    <glyph glyph-name="Acircumflexdotbelow" unicode="&#x1eac;" horiz-adv-x="1100" 
d="M1062 0h-157l-127 400h-451l-123 -400h-156l402 1300h200zM731 550l-181 574l-176 -574h357zM751 1401l-200 199l-201 -199h-100l301 399l300 -399h-100zM476 -150h149v-150h-149v150z" />
    <glyph glyph-name="acircumflexdotbelow" unicode="&#x1ead;" horiz-adv-x="1050" 
d="M100 300q0 350 550 350h101v51q0 150 -251 150q-161 0 -349 -50v150q189 50 350 50q400 0 400 -300v-700h-150v159l-13 -10q-188 -150 -338 -150q-300 0 -300 300zM651 500q-400 0 -400 -200q0 -149 150 -149q99 0 224 99l125 100l1 -3v153h-100zM751 1151l-200 199
l-201 -199h-100l301 399l300 -399h-100zM476 -150h149v-150h-149v150z" />
    <glyph glyph-name="Abreveacute" unicode="&#x1eae;" horiz-adv-x="1100" 
d="M1062 0h-157l-127 400h-451l-123 -400h-156l402 1300h200zM731 550l-181 574l-176 -574h357zM600 1700h-100l200 400h150zM549 1400q-251 0 -300 349h100q51 -199 201 -199q151 0 200 199h100q-49 -349 -301 -349z" />
    <glyph glyph-name="abreveacute" unicode="&#x1eaf;" horiz-adv-x="1050" 
d="M100 300q0 350 550 350h101v51q0 150 -251 150q-161 0 -349 -50v150q189 50 350 50q400 0 400 -300v-700h-150v159l-13 -10q-188 -150 -338 -150q-300 0 -300 300zM651 500q-400 0 -400 -200q0 -149 150 -149q99 0 224 99l125 100l1 -3v153h-100zM549 1100
q-251 0 -300 349h100q51 -199 201 -199q151 0 200 199h100q-49 -349 -301 -349zM600 1400h-100l200 400h150z" />
    <glyph glyph-name="Abrevegrave" unicode="&#x1eb0;" horiz-adv-x="1100" 
d="M1062 0h-157l-127 400h-451l-123 -400h-156l402 1300h200zM731 550l-181 574l-176 -574h357zM549 1400q-251 0 -300 349h100q51 -199 201 -199q151 0 200 199h100q-49 -349 -301 -349zM700 1700h-100l-300 350h150z" />
    <glyph glyph-name="abrevegrave" unicode="&#x1eb1;" horiz-adv-x="1050" 
d="M100 300q0 350 550 350h101v51q0 150 -251 150q-161 0 -349 -50v150q189 50 350 50q400 0 400 -300v-700h-150v159l-13 -10q-188 -150 -338 -150q-300 0 -300 300zM651 500q-400 0 -400 -200q0 -149 150 -149q99 0 224 99l125 100l1 -3v153h-100zM549 1100
q-251 0 -300 349h100q51 -199 201 -199q151 0 200 199h100q-49 -349 -301 -349zM700 1400h-100l-300 350h150z" />
    <glyph glyph-name="Abrevehookabove" unicode="&#x1eb2;" horiz-adv-x="1100" 
d="M1062 0h-157l-127 400h-451l-123 -400h-156l402 1300h200zM731 550l-181 574l-176 -574h357zM549 1400q-251 0 -300 349h100q51 -199 201 -199q151 0 200 199h100q-49 -349 -301 -349zM600 1900q100 49 100 100q0 100 -125 100t-125 -50h-100q0 150 225 150t225 -200
q0 -101 -100 -150l-50 -25q-50 -26 -50 -125h-100q0 151 100 200z" />
    <glyph glyph-name="abrevehookabove" unicode="&#x1eb3;" horiz-adv-x="1050" 
d="M100 300q0 350 550 350h101v51q0 150 -251 150q-161 0 -349 -50v150q189 50 350 50q400 0 400 -300v-700h-150v159l-13 -10q-188 -150 -338 -150q-300 0 -300 300zM651 500q-400 0 -400 -200q0 -149 150 -149q99 0 224 99l125 100l1 -3v153h-100zM549 1100
q-251 0 -300 349h100q51 -199 201 -199q151 0 200 199h100q-49 -349 -301 -349zM600 1600q100 49 100 100q0 100 -125 100t-125 -50h-100q0 150 225 150t225 -200q0 -101 -100 -150l-50 -25q-50 -26 -50 -125h-100q0 151 100 200z" />
    <glyph glyph-name="Abrevetilde" unicode="&#x1eb4;" horiz-adv-x="1100" 
d="M1062 0h-157l-127 400h-451l-123 -400h-156l402 1300h200zM731 550l-181 574l-176 -574h357zM549 1400q-251 0 -300 349h100q51 -199 201 -199q151 0 200 199h100q-49 -349 -301 -349zM706 1850q-98 0 -175 50t-125 50q-49 0 -49 -100h-101q0 200 150 200q98 0 175 -50
t125 -50q50 0 50 100h100q0 -200 -150 -200z" />
    <glyph glyph-name="abrevetilde" unicode="&#x1eb5;" horiz-adv-x="1050" 
d="M100 300q0 350 550 350h101v51q0 150 -251 150q-161 0 -349 -50v150q189 50 350 50q400 0 400 -300v-700h-150v159l-13 -10q-188 -150 -338 -150q-300 0 -300 300zM651 500q-400 0 -400 -200q0 -149 150 -149q99 0 224 99l125 100l1 -3v153h-100zM549 1100
q-251 0 -300 349h100q51 -199 201 -199q151 0 200 199h100q-49 -349 -301 -349zM706 1550q-98 0 -175 50t-125 50q-49 0 -49 -100h-101q0 200 150 200q98 0 175 -50t125 -50q50 0 50 100h100q0 -200 -150 -200z" />
    <glyph glyph-name="Abrevedotbelove" unicode="&#x1eb6;" horiz-adv-x="1100" 
d="M1062 0h-157l-127 400h-451l-123 -400h-156l402 1300h200zM731 550l-181 574l-176 -574h357zM549 1400q-251 0 -300 349h100q51 -199 201 -199q151 0 200 199h100q-49 -349 -301 -349zM476 -150h149v-150h-149v150z" />
    <glyph glyph-name="abrevedotbelove" unicode="&#x1eb7;" horiz-adv-x="1050" 
d="M100 300q0 350 550 350h101v51q0 150 -251 150q-161 0 -349 -50v150q189 50 350 50q400 0 400 -300v-700h-150v159l-13 -10q-188 -150 -338 -150q-300 0 -300 300zM651 500q-400 0 -400 -200q0 -149 150 -149q99 0 224 99l125 100l1 -3v153h-100zM549 1100
q-251 0 -300 349h100q51 -199 201 -199q151 0 200 199h100q-49 -349 -301 -349zM476 -150h149v-150h-149v150z" />
    <glyph glyph-name="Edotbelow" unicode="&#x1eb8;" horiz-adv-x="1050" 
d="M950 1300v-150h-650v-350h600v-150h-600v-500h650v-150h-800v1300h800zM476 -150h149v-150h-149v150z" />
    <glyph glyph-name="edotbelow" unicode="&#x1eb9;" horiz-adv-x="1050" 
d="M501 1001q400 0 400 -400v-151h-650q18 -300 249 -300q249 0 401 150v-199q-151 -100 -401 -100h-2q-397 0 -397 496v4q0 500 400 500zM501 851q-210 0 -245 -251h494v3q0 246 -249 248zM476 -150h149v-150h-149v150z" />
    <glyph glyph-name="Ehookabove" unicode="&#x1eba;" horiz-adv-x="1050" 
d="M950 1300v-150h-650v-350h600v-150h-600v-500h650v-150h-800v1300h800zM600 1600q100 49 100 100q0 100 -125 100t-125 -50h-100q0 150 225 150t225 -200q0 -101 -100 -150l-50 -25q-50 -26 -50 -125h-100q0 151 100 200z" />
    <glyph glyph-name="ehookabove" unicode="&#x1ebb;" horiz-adv-x="1050" 
d="M501 1001q400 0 400 -400v-151h-650q18 -300 249 -300q249 0 401 150v-199q-151 -100 -401 -100h-2q-397 0 -397 496v4q0 500 400 500zM501 851q-210 0 -245 -251h494v3q0 246 -249 248zM600 1350q100 49 100 100q0 100 -125 100t-125 -50h-100q0 150 225 150t225 -200
q0 -101 -100 -150l-50 -25q-50 -26 -50 -125h-100q0 151 100 200z" />
    <glyph glyph-name="Etilde" unicode="&#x1ebc;" horiz-adv-x="1050" 
d="M950 1300v-150h-650v-350h600v-150h-600v-500h650v-150h-800v1300h800zM706 1450q-98 0 -175 50t-125 50q-49 0 -49 -100h-101q0 200 150 200q98 0 175 -50t125 -50q50 0 50 100h100q0 -200 -150 -200z" />
    <glyph glyph-name="etilde" unicode="&#x1ebd;" horiz-adv-x="1050" 
d="M501 1001q400 0 400 -400v-151h-650q18 -300 249 -300q249 0 401 150v-199q-151 -100 -401 -100h-2q-397 0 -397 496v4q0 500 400 500zM501 851q-210 0 -245 -251h494v3q0 246 -249 248zM706 1200q-98 0 -175 50t-125 50q-49 0 -49 -100h-101q0 200 150 200q98 0 175 -50
t125 -50q50 0 50 100h100q0 -200 -150 -200z" />
    <glyph glyph-name="Ecircumflexacute" unicode="&#x1ebe;" horiz-adv-x="1049" 
d="M950 1300v-150h-650v-350h600v-150h-600v-500h650v-150h-800v1300h800zM751 1401l-200 199l-201 -199h-100l301 399l300 -399h-100zM800 1600h-100l200 400h150z" />
    <glyph glyph-name="ecircumflexacute" unicode="&#x1ebf;" horiz-adv-x="1050" 
d="M501 1001q400 0 400 -400v-151h-650q18 -300 249 -300q249 0 401 150v-199q-151 -100 -401 -100h-2q-397 0 -397 496v4q0 500 400 500zM501 851q-210 0 -245 -251h494v3q0 246 -249 248zM751 1151l-200 199l-201 -199h-100l301 399l300 -399h-100zM800 1390h-100l200 400
h150z" />
    <glyph glyph-name="Ecircumflexgrave" unicode="&#x1ec0;" horiz-adv-x="1050" 
d="M950 1300v-150h-650v-350h600v-150h-600v-500h650v-150h-800v1300h800zM751 1401l-200 199l-201 -199h-100l301 399l300 -399h-100zM1000 1600h-100l-300 350h150z" />
    <glyph glyph-name="ecircumflexgrave" unicode="&#x1ec1;" horiz-adv-x="1050" 
d="M501 1001q400 0 400 -400v-151h-650q18 -300 249 -300q249 0 401 150v-199q-151 -100 -401 -100h-2q-397 0 -397 496v4q0 500 400 500zM501 851q-210 0 -245 -251h494v3q0 246 -249 248zM751 1151l-200 199l-201 -199h-100l301 399l300 -399h-100zM1000 1350h-100
l-300 350h150z" />
    <glyph glyph-name="Ecircumflexhookabove" unicode="&#x1ec2;" horiz-adv-x="1049" 
d="M950 1300v-150h-650v-350h600v-150h-600v-500h650v-150h-800v1300h800zM751 1401l-200 199l-201 -199h-100l301 399l300 -399h-100zM850 1800q100 49 100 100q0 100 -125 100t-125 -50h-100q0 150 225 150t225 -200q0 -101 -100 -150l-50 -25q-50 -26 -50 -125h-100
q0 151 100 200z" />
    <glyph glyph-name="ecircumflexhookabove" unicode="&#x1ec3;" horiz-adv-x="1050" 
d="M501 1001q400 0 400 -400v-151h-650q18 -300 249 -300q249 0 401 150v-199q-151 -100 -401 -100h-2q-397 0 -397 496v4q0 500 400 500zM501 851q-210 0 -245 -251h494v3q0 246 -249 248zM751 1151l-200 199l-201 -199h-100l301 399l300 -399h-100zM850 1550
q100 49 100 100q0 100 -125 100t-125 -50h-100q0 150 225 150t225 -200q0 -101 -100 -150l-50 -25q-50 -26 -50 -125h-100q0 151 100 200z" />
    <glyph glyph-name="Ecircumflextilde" unicode="&#x1ec4;" horiz-adv-x="1049" 
d="M950 1300v-150h-650v-350h600v-150h-600v-500h650v-150h-800v1300h800zM751 1401l-200 199l-201 -199h-100l301 399l300 -399h-100zM706 1850q-98 0 -175 50t-125 50q-49 0 -49 -100h-101q0 200 150 200q98 0 175 -50t125 -50q50 0 50 100h100q0 -200 -150 -200z" />
    <glyph glyph-name="ecircumflextilde" unicode="&#x1ec5;" horiz-adv-x="1050" 
d="M501 1001q400 0 400 -400v-151h-650q18 -300 249 -300q249 0 401 150v-199q-151 -100 -401 -100h-2q-397 0 -397 496v4q0 500 400 500zM501 851q-210 0 -245 -251h494v3q0 246 -249 248zM751 1151l-200 199l-201 -199h-100l301 399l300 -399h-100zM706 1600
q-98 0 -175 50t-125 50q-49 0 -49 -100h-101q0 200 150 200q98 0 175 -50t125 -50q50 0 50 100h100q0 -200 -150 -200z" />
    <glyph glyph-name="Ecircumflexdotbelow" unicode="&#x1ec6;" horiz-adv-x="1050" 
d="M950 1300v-150h-650v-350h600v-150h-600v-500h650v-150h-800v1300h800zM476 -150h149v-150h-149v150zM751 1401l-200 199l-201 -199h-100l301 399l300 -399h-100z" />
    <glyph glyph-name="ecircumflexdotbelow" unicode="&#x1ec7;" horiz-adv-x="1050" 
d="M501 1001q400 0 400 -400v-151h-650q18 -300 249 -300q249 0 401 150v-199q-151 -100 -401 -100h-2q-397 0 -397 496v4q0 500 400 500zM501 851q-210 0 -245 -251h494v3q0 246 -249 248zM476 -150h149v-150h-149v150zM751 1151l-200 199l-201 -199h-100l301 399l300 -399
h-100z" />
    <glyph glyph-name="Ihookabove" unicode="&#x1ec8;" horiz-adv-x="650" 
d="M250 150v1000h-150v150h450v-150h-150v-1000h150v-150h-450v150h150zM370 1600q100 49 100 100q0 100 -125 100t-125 -50h-100q0 150 225 150t225 -200q0 -101 -100 -150l-50 -25q-50 -26 -50 -125h-100q0 151 100 200z" />
    <glyph glyph-name="ihookabove" unicode="&#x1ec9;" horiz-adv-x="450" 
d="M300 1000v-1000h-150v1000h150zM250 1350q100 49 100 100q0 100 -125 100t-125 -50h-100q0 150 225 150t225 -200q0 -101 -100 -150l-50 -25q-50 -26 -50 -125h-100q0 151 100 200z" />
    <glyph glyph-name="Idotbelow" unicode="&#x1eca;" horiz-adv-x="650" 
d="M250 150v1000h-150v150h450v-150h-150v-1000h150v-150h-450v150h150zM250 -150h150v-150h-150v150z" />
    <glyph glyph-name="idotbelow" unicode="&#x1ecb;" horiz-adv-x="450" 
d="M150 1000h150v-1000h-150v1000zM150 1300h150v-150h-150v150zM150 -150h150v-150h-150v150z" />
    <glyph glyph-name="Abreve" unicode="&#x102;" horiz-adv-x="1100" 
d="M1062 0h-157l-127 400h-451l-123 -400h-156l402 1300h200zM731 550l-181 574l-176 -574h357zM549 1400q-251 0 -300 349h100q51 -199 201 -199q151 0 200 199h100q-49 -349 -301 -349z" />
    <glyph glyph-name="abreve" unicode="&#x103;" horiz-adv-x="1050" 
d="M100 300q0 350 550 350h101v51q0 150 -251 150q-161 0 -349 -50v150q189 50 350 50q400 0 400 -300v-700h-150v159l-13 -10q-188 -150 -338 -150q-300 0 -300 300zM651 500q-400 0 -400 -200q0 -149 150 -149q99 0 224 99l125 100l1 -3v153h-100zM549 1100
q-251 0 -300 349h100q51 -199 201 -199q151 0 200 199h100q-49 -349 -301 -349z" />
    <glyph glyph-name="dtroke" unicode="&#x111;" horiz-adv-x="1050" 
d="M501 1000q155 0 250 -74v175h-199v149h199v100h150v-100h100v-149h-100v-1101h-150v76q-96 -75 -250 -76q-400 0 -400 500t400 500zM501 150q249 0 250 350q0 350 -249 350q-251 0 -251 -350t250 -350z" />
    <glyph glyph-name="Ohorn" unicode="&#x1a0;" horiz-adv-x="1300" 
d="M150 650q0 650 500 650q195 0 314 -100v1h53q95 0 97 99q-100 0 -101 76q0 75 100 75t100 -150q0 -182 -164 -200q101 -160 101 -451q0 -650 -500 -650t-500 650zM300 650q0 -500 350 -500t350 500t-350 500t-350 -500z" />
    <glyph glyph-name="ohorn" unicode="&#x1a1;" horiz-adv-x="1100" 
d="M953 1151q100 0 100 -150q0 -179 -159 -199q56 -117 56 -302q0 -500 -400 -500t-400 500t400 500q178 0 276 -99h31q95 0 97 99q-100 0 -101 76q0 75 100 75zM550 150q250 0 250 350t-250 350t-250 -350t250 -350z" />
    <glyph glyph-name="Uhorn" unicode="&#x1af;" horiz-adv-x="1200" 
d="M1200 1500q100 0 100 -150q0 -200 -200 -200h-50v-750q0 -400 -450 -400t-450 400v900h150v-900q0 -250 300 -250t300 250v900h150v-50h50q100 0 100 100q-100 0 -100 75t100 75z" />
    <glyph glyph-name="uhorn" unicode="&#x1b0;" horiz-adv-x="1100" 
d="M1100 1200q100 0 100 -150q0 -200 -200 -200h-50v-850h-150v100q-100 -100 -250 -100q-400 0 -400 400v600h150v-600q0 -250 250 -250t250 250v600h150v-50h50q100 0 100 100q-100 0 -100 75t100 75z" />
    <glyph glyph-name="acute" unicode="&#x301;" 
d="M-50 1300l200 400h150l-250 -400h-100z" />
    <glyph glyph-name="grave" unicode="&#x300;" 
d="M-50 1300l-300 350h150l250 -350h-100z" />
    <glyph glyph-name="hookabove" unicode="&#x309;" 
d="M50 1500q100 49 100 100q0 100 -125 100t-125 -50h-100q0 150 225 150t225 -200q0 -101 -100 -150l-50 -25q-50 -26 -50 -125h-100q0 151 100 200z" />
    <glyph glyph-name="tilde" unicode="&#x303;" 
d="M150 1300q-98 0 -175 50t-125 50q-49 0 -49 -100h-101q0 200 150 200q98 0 175 -50t125 -50q50 0 50 100h100q0 -200 -150 -200z" />
    <glyph glyph-name="dotbelow" unicode="&#x323;" 
d="M-75 -500h151v-150h-151v150z" />
    <glyph glyph-name="Odotbelow" unicode="&#x1ecc;" horiz-adv-x="1300" 
d="M150 650q0 650 500 650t500 -650t-500 -650t-500 650zM300 650q0 -500 350 -500t350 500t-350 500t-350 -500zM575 -150h150v-150h-150v150z" />
    <glyph glyph-name="odotbelow" unicode="&#x1ecd;" horiz-adv-x="1100" 
d="M550 1000q400 0 400 -500t-400 -500t-400 500t400 500zM550 150q250 0 250 350t-250 350t-250 -350t250 -350zM475 -150h150v-150h-150v150z" />
    <glyph glyph-name="Ohookabove" unicode="&#x1ece;" horiz-adv-x="1300" 
d="M150 650q0 650 500 650t500 -650t-500 -650t-500 650zM300 650q0 -500 350 -500t350 500t-350 500t-350 -500zM700 1600q100 49 100 100q0 100 -125 100t-125 -50h-100q0 150 225 150t225 -200q0 -101 -100 -150l-50 -25q-50 -26 -50 -125h-100q0 151 100 200z" />
    <glyph glyph-name="ohookabove" unicode="&#x1ecf;" horiz-adv-x="1100" 
d="M551 1001q400 0 400 -500q-2 -500 -401 -500h-2q-397 0 -397 496v4q0 500 400 500zM550 150q250 0 250 350v4q0 346 -250 346t-250 -350t250 -350zM600 1350q100 49 100 100q0 100 -125 100t-125 -50h-100q0 150 225 150t225 -200q0 -101 -100 -150l-50 -25
q-50 -26 -50 -125h-100q0 151 100 200z" />
    <glyph glyph-name="Ocircumflexacute" unicode="&#x1ed0;" horiz-adv-x="1300" 
d="M150 650q0 650 500 650t500 -650t-500 -650t-500 650zM300 650q0 -500 350 -500t350 500t-350 500t-350 -500zM850 1401l-200 199l-201 -199h-100l301 399l300 -399h-100zM900 1600h-100l200 400h150z" />
    <glyph glyph-name="ocircumflexacute" unicode="&#x1ed1;" horiz-adv-x="1100" 
d="M551 1001q400 0 400 -500q-2 -500 -401 -500h-2q-397 0 -397 496v4q0 500 400 500zM550 150q250 0 250 350v4q0 346 -250 346t-250 -350t250 -350zM751 1151l-200 199l-201 -199h-100l301 399l300 -399h-100zM800 1390h-100l200 400h150z" />
    <glyph glyph-name="Ocircumflexgrave" unicode="&#x1ed2;" horiz-adv-x="1300" 
d="M150 650q0 650 500 650t500 -650t-500 -650t-500 650zM300 650q0 -500 350 -500t350 500t-350 500t-350 -500zM850 1401l-200 199l-201 -199h-100l301 399l300 -399h-100zM1050 1600h-100l-300 350h150z" />
    <glyph glyph-name="ocircumflexgrave" unicode="&#x1ed3;" horiz-adv-x="1100" 
d="M551 1001q400 0 400 -500q-2 -500 -401 -500h-2q-397 0 -397 496v4q0 500 400 500zM550 150q250 0 250 350v4q0 346 -250 346t-250 -350t250 -350zM751 1151l-200 199l-201 -199h-100l301 399l300 -399h-100zM1000 1350h-100l-300 350h150z" />
    <glyph glyph-name="Ocircumflexhookabove" unicode="&#x1ed4;" horiz-adv-x="1300" 
d="M150 650q0 650 500 650t500 -650t-500 -650t-500 650zM300 650q0 -500 350 -500t350 500t-350 500t-350 -500zM850 1401l-200 199l-201 -199h-100l301 399l300 -399h-100zM950 1800q100 49 100 100q0 100 -125 100t-125 -50h-100q0 150 225 150t225 -200
q0 -101 -100 -150l-50 -25q-50 -26 -50 -125h-100q0 151 100 200z" />
    <glyph glyph-name="ocircumflexhookabove" unicode="&#x1ed5;" horiz-adv-x="1100" 
d="M551 1001q400 0 400 -500q-2 -500 -401 -500h-2q-397 0 -397 496v4q0 500 400 500zM550 150q250 0 250 350v4q0 346 -250 346t-250 -350t250 -350zM751 1151l-200 199l-201 -199h-100l301 399l300 -399h-100zM850 1550q100 49 100 100q0 100 -125 100t-125 -50h-100
q0 150 225 150t225 -200q0 -101 -100 -150l-50 -25q-50 -26 -50 -125h-100q0 151 100 200z" />
    <glyph glyph-name="Ocircumflextilde" unicode="&#x1ed6;" horiz-adv-x="1300" 
d="M150 650q0 650 500 650t500 -650t-500 -650t-500 650zM300 650q0 -500 350 -500t350 500t-350 500t-350 -500zM850 1401l-200 199l-201 -199h-100l301 399l300 -399h-100zM796 1850q-98 0 -175 50t-125 50q-49 0 -49 -100h-101q0 200 150 200q98 0 175 -50t125 -50
q50 0 50 100h100q0 -200 -150 -200z" />
    <glyph glyph-name="ocircumflextilde" unicode="&#x1ed7;" horiz-adv-x="1100" 
d="M551 1001q400 0 400 -500q-2 -500 -401 -500h-2q-397 0 -397 496v4q0 500 400 500zM550 150q250 0 250 350v4q0 346 -250 346t-250 -350t250 -350zM751 1151l-200 199l-201 -199h-100l301 399l300 -399h-100zM706 1600q-98 0 -175 50t-125 50q-49 0 -49 -100h-101
q0 200 150 200q98 0 175 -50t125 -50q50 0 50 100h100q0 -200 -150 -200z" />
    <glyph glyph-name="Ocircumflexdotbelow" unicode="&#x1ed8;" horiz-adv-x="1300" 
d="M150 650q0 650 500 650t500 -650t-500 -650t-500 650zM300 650q0 -500 350 -500t350 500t-350 500t-350 -500zM850 1401l-200 199l-201 -199h-100l301 399l300 -399h-100zM575 -150h150v-150h-150v150z" />
    <glyph glyph-name="ocircumflexdotbelow" unicode="&#x1ed9;" horiz-adv-x="1100" 
d="M551 1001q400 0 400 -500q-2 -500 -401 -500h-2q-397 0 -397 496v4q0 500 400 500zM550 150q250 0 250 350v4q0 346 -250 346t-250 -350t250 -350zM751 1151l-200 199l-201 -199h-100l301 399l300 -399h-100zM475 -150h150v-150h-150v150z" />
    <glyph glyph-name="Ohornacute" unicode="&#x1eda;" horiz-adv-x="1300" 
d="M1113 1451q100 0 100 -150q0 -191 -180 -201l-69 101h53q95 0 97 99q-100 0 -101 76q0 75 100 75zM150 650q0 650 500 650t500 -650t-500 -650t-500 650zM300 650q0 -500 350 -500t350 500t-350 500t-350 -500zM600 1400h-100l200 400h150z" />
    <glyph glyph-name="ohornacute" unicode="&#x1edb;" horiz-adv-x="1100" 
d="M550 1000q400 0 400 -500t-400 -500t-400 500t400 500zM550 150q250 0 250 350t-250 350t-250 -350t250 -350zM953 1151q100 0 100 -150q0 -191 -180 -201l-69 101h53q95 0 97 99q-100 0 -101 76q0 75 100 75zM500 1150h-100l200 400h150z" />
    <glyph glyph-name="Ohorngrave" unicode="&#x1edc;" horiz-adv-x="1300" 
d="M1113 1451q100 0 100 -150q0 -191 -180 -201l-69 101h53q95 0 97 99q-100 0 -101 76q0 75 100 75zM150 650q0 650 500 650t500 -650t-500 -650t-500 650zM300 650q0 -500 350 -500t350 500t-350 500t-350 -500zM700 1400l-300 350h150l250 -350h-100z" />
    <glyph glyph-name="ohorngrave" unicode="&#x1edd;" horiz-adv-x="1100" 
d="M550 1000q400 0 400 -500t-400 -500t-400 500t400 500zM550 150q250 0 250 350t-250 350t-250 -350t250 -350zM953 1151q100 0 100 -150q0 -191 -180 -201l-69 101h53q95 0 97 99q-100 0 -101 76q0 75 100 75zM700 1150h-100l-300 350h150z" />
    <glyph glyph-name="Ohornhookabove" unicode="&#x1ede;" horiz-adv-x="1300" 
d="M1113 1451q100 0 100 -150q0 -191 -180 -201l-69 101h53q95 0 97 99q-100 0 -101 76q0 75 100 75zM150 650q0 650 500 650t500 -650t-500 -650t-500 650zM300 650q0 -500 350 -500t350 500t-350 500t-350 -500zM700 1600q100 49 100 100q0 100 -125 100t-125 -50h-100
q0 150 225 150t225 -200q0 -101 -100 -150l-50 -25q-50 -26 -50 -125h-100q0 151 100 200z" />
    <glyph glyph-name="ohornhookabove" unicode="&#x1edf;" horiz-adv-x="1100" 
d="M550 1000q400 0 400 -500t-400 -500t-400 500t400 500zM550 150q250 0 250 350t-250 350t-250 -350t250 -350zM953 1151q100 0 100 -150q0 -191 -180 -201l-69 101h53q95 0 97 99q-100 0 -101 76q0 75 100 75zM600 1350q100 49 100 100q0 100 -125 100t-125 -50h-100
q0 150 225 150t225 -200q0 -101 -100 -150l-50 -25q-50 -26 -50 -125h-100q0 151 100 200z" />
    <glyph glyph-name="Ohorntilde" unicode="&#x1ee0;" horiz-adv-x="1300" 
d="M1113 1451q100 0 100 -150q0 -191 -180 -201l-69 101h53q95 0 97 99q-100 0 -101 76q0 75 100 75zM150 650q0 650 500 650t500 -650t-500 -650t-500 650zM300 650q0 -500 350 -500t350 500t-350 500t-350 -500zM796 1450q-98 0 -175 50t-125 50q-49 0 -49 -100h-101
q0 200 150 200q98 0 175 -50t125 -50q50 0 50 100h100q0 -200 -150 -200z" />
    <glyph glyph-name="ohorntilde" unicode="&#x1ee1;" horiz-adv-x="1100" 
d="M550 1000q400 0 400 -500t-400 -500t-400 500t400 500zM550 150q250 0 250 350t-250 350t-250 -350t250 -350zM953 1151q100 0 100 -150q0 -191 -180 -201l-69 101h53q95 0 97 99q-100 0 -101 76q0 75 100 75zM696 1200q-98 0 -175 50t-125 50q-49 0 -49 -100h-101
q0 200 150 200q98 0 175 -50t125 -50q50 0 50 100h100q0 -200 -150 -200z" />
    <glyph glyph-name="Ohorndotbelow" unicode="&#x1ee2;" horiz-adv-x="1300" 
d="M1113 1451q100 0 100 -150q0 -191 -180 -201l-69 101h53q95 0 97 99q-100 0 -101 76q0 75 100 75zM150 650q0 650 500 650t500 -650t-500 -650t-500 650zM300 650q0 -500 350 -500t350 500t-350 500t-350 -500zM575 -150h150v-150h-150v150z" />
    <glyph glyph-name="ohorndotbelow" unicode="&#x1ee3;" horiz-adv-x="1100" 
d="M953 1151q100 0 100 -150q0 -179 -159 -199q56 -117 56 -302q0 -500 -400 -500t-400 500t400 500q178 0 276 -99h31q95 0 97 99q-100 0 -101 76q0 75 100 75zM550 150q250 0 250 350t-250 350t-250 -350t250 -350zM475 -150h150v-150h-150v150z" />
    <glyph glyph-name="Udotbelow" unicode="&#x1ee4;" horiz-adv-x="1200" 
d="M600 0q-450 0 -450 400v900h150v-900q0 -250 300 -250t300 250v900h150v-900q0 -400 -450 -400zM525 -150h150v-150h-150v150z" />
    <glyph glyph-name="udotbelow" unicode="&#x1ee5;" horiz-adv-x="1100" 
d="M550 150q250 0 250 250v600h150v-1000h-150v100q-100 -100 -250 -100q-400 0 -400 400v600h150v-600q0 -250 250 -250zM475 -150h150v-150h-150v150z" />
    <glyph glyph-name="Uhookabove" unicode="&#x1ee6;" horiz-adv-x="1200" 
d="M600 0q-450 0 -450 400v900h150v-900q0 -250 300 -250t300 250v900h150v-900q0 -400 -450 -400zM650 1600q100 49 100 100q0 100 -125 100t-125 -50h-100q0 150 225 150t225 -200q0 -101 -100 -150l-50 -25q-50 -26 -50 -125h-100q0 151 100 200z" />
    <glyph glyph-name="uhookabove" unicode="&#x1ee7;" horiz-adv-x="1100" 
d="M550 150q250 0 250 250v600h150v-1000h-150v100q-100 -100 -250 -100q-400 0 -400 400v600h150v-600q0 -250 250 -250zM600 1350q100 49 100 100q0 100 -125 100t-125 -50h-100q0 150 225 150t225 -200q0 -101 -100 -150l-50 -25q-50 -26 -50 -125h-100q0 151 100 200z
" />
    <glyph glyph-name="Uhornacute" unicode="&#x1ee8;" horiz-adv-x="1200" 
d="M1200 1500q100 0 100 -150q0 -200 -200 -200h-50v-750q0 -400 -450 -400t-450 400v900h150v-900q0 -250 300 -250t300 250v900h150v-50h50q100 0 100 100q-100 0 -100 75t100 75zM550 1400h-100l200 400h150z" />
    <glyph glyph-name="uhornacute" unicode="&#x1ee9;" horiz-adv-x="1100" 
d="M1100 1200q100 0 100 -150q0 -200 -200 -200h-50v-850h-150v100q-100 -100 -250 -100q-400 0 -400 400v600h150v-600q0 -250 250 -250t250 250v600h150v-50h50q100 0 100 100q-100 0 -100 75t100 75zM500 1150h-100l200 400h150z" />
    <glyph glyph-name="Uhorngrave" unicode="&#x1eea;" horiz-adv-x="1200" 
d="M1200 1500q100 0 100 -150q0 -200 -200 -200h-50v-750q0 -400 -450 -400t-450 400v900h150v-900q0 -250 300 -250t300 250v900h150v-50h50q100 0 100 100q-100 0 -100 75t100 75zM700 1400l-300 350h150l250 -350h-100z" />
    <glyph glyph-name="uhorngrave" unicode="&#x1eeb;" horiz-adv-x="1100" 
d="M1100 1200q100 0 100 -150q0 -200 -200 -200h-50v-850h-150v100q-100 -100 -250 -100q-400 0 -400 400v600h150v-600q0 -250 250 -250t250 250v600h150v-50h50q100 0 100 100q-100 0 -100 75t100 75zM700 1150h-100l-300 350h150z" />
    <glyph glyph-name="Uhornhookabove" unicode="&#x1eec;" horiz-adv-x="1200" 
d="M1200 1500q100 0 100 -150q0 -200 -200 -200h-50v-750q0 -400 -450 -400t-450 400v900h150v-900q0 -250 300 -250t300 250v900h150v-50h50q100 0 100 100q-100 0 -100 75t100 75zM650 1600q100 49 100 100q0 100 -125 100t-125 -50h-100q0 150 225 150t225 -200
q0 -101 -100 -150l-50 -25q-50 -26 -50 -125h-100q0 151 100 200z" />
    <glyph glyph-name="uhornhookabove" unicode="&#x1eed;" horiz-adv-x="1100" 
d="M1100 1200q100 0 100 -150q0 -200 -200 -200h-50v-850h-150v100q-100 -100 -250 -100q-400 0 -400 400v600h150v-600q0 -250 250 -250t250 250v600h150v-50h50q100 0 100 100q-100 0 -100 75t100 75zM600 1350q100 49 100 100q0 100 -125 100t-125 -50h-100
q0 150 225 150t225 -200q0 -101 -100 -150l-50 -25q-50 -26 -50 -125h-100q0 151 100 200z" />
    <glyph glyph-name="Uhorntilde" unicode="&#x1eee;" horiz-adv-x="1200" 
d="M1200 1500q100 0 100 -150q0 -200 -200 -200h-50v-750q0 -400 -450 -400t-450 400v900h150v-900q0 -250 300 -250t300 250v900h150v-50h50q100 0 100 100q-100 0 -100 75t100 75zM796 1450q-98 0 -175 50t-125 50q-49 0 -49 -100h-101q0 200 150 200q98 0 175 -50
t125 -50q50 0 50 100h100q0 -200 -150 -200z" />
    <glyph glyph-name="uhorntilde" unicode="&#x1eef;" horiz-adv-x="1100" 
d="M1100 1200q100 0 100 -150q0 -200 -200 -200h-50v-850h-150v100q-100 -100 -250 -100q-400 0 -400 400v600h150v-600q0 -250 250 -250t250 250v600h150v-50h50q100 0 100 100q-100 0 -100 75t100 75zM696 1200q-98 0 -175 50t-125 50q-49 0 -49 -100h-101q0 200 150 200
q98 0 175 -50t125 -50q50 0 50 100h100q0 -200 -150 -200z" />
    <glyph glyph-name="Uhorndotbelow" unicode="&#x1ef0;" horiz-adv-x="1200" 
d="M1200 1500q100 0 100 -150q0 -200 -200 -200h-50v-750q0 -400 -450 -400t-450 400v900h150v-900q0 -250 300 -250t300 250v900h150v-50h50q100 0 100 100q-100 0 -100 75t100 75zM525 -150h150v-150h-150v150z" />
    <glyph glyph-name="uhorndotbelow" unicode="&#x1ef1;" horiz-adv-x="1100" 
d="M1100 1200q100 0 100 -150q0 -200 -200 -200h-50v-850h-150v100q-100 -100 -250 -100q-400 0 -400 400v600h150v-600q0 -250 250 -250t250 250v600h150v-50h50q100 0 100 100q-100 0 -100 75t100 75zM475 -150h150v-150h-150v150z" />
    <glyph glyph-name="Ygrave" unicode="&#x1ef2;" horiz-adv-x="1101" 
d="M65 1300h176l309 -509l322 509h176l-423 -670v-630h-149v629zM650 1400l-300 350h150l250 -350h-100z" />
    <glyph glyph-name="ygrave" unicode="&#x1ef3;" horiz-adv-x="1100" 
d="M258 -400l209 489l-377 911h162l298 -716l306 716h163l-598 -1400h-163zM700 1150h-100l-300 350h150z" />
    <glyph glyph-name="Ydotbelow" unicode="&#x1ef4;" horiz-adv-x="1101" 
d="M65 1300h176l309 -509l322 509h176l-423 -670v-630h-149v629zM475 -150h150v-150h-150v150z" />
    <glyph glyph-name="ydotbelow" unicode="&#x1ef5;" horiz-adv-x="1100" 
d="M258 -400l209 489l-377 911h162l298 -716l306 716h163l-598 -1400h-163zM585 -250h150v-150h-150v150z" />
    <glyph glyph-name="Yhookabove" unicode="&#x1ef6;" horiz-adv-x="1101" 
d="M65 1300h176l309 -509l322 509h176l-423 -670v-630h-149v629zM600 1600q100 49 100 100q0 100 -125 100t-125 -50h-100q0 150 225 150t225 -200q0 -101 -100 -150l-50 -25q-50 -26 -50 -125h-100q0 151 100 200z" />
    <glyph glyph-name="yhookabove" unicode="&#x1ef7;" horiz-adv-x="1100" 
d="M258 -400l209 489l-377 911h162l298 -716l306 716h163l-598 -1400h-163zM600 1350q100 49 100 100q0 100 -125 100t-125 -50h-100q0 150 225 150t225 -200q0 -101 -100 -150l-50 -25q-50 -26 -50 -125h-100q0 151 100 200z" />
    <glyph glyph-name="Ytilde" unicode="&#x1ef8;" horiz-adv-x="1101" 
d="M65 1300h176l309 -509l322 509h176l-423 -670v-630h-149v629zM696 1450q-98 0 -175 50t-125 50q-49 0 -49 -100h-101q0 200 150 200q98 0 175 -50t125 -50q50 0 50 100h100q0 -200 -150 -200z" />
    <glyph glyph-name="ytilde" unicode="&#x1ef9;" horiz-adv-x="1100" 
d="M258 -400l209 489l-377 911h162l298 -716l306 716h163l-598 -1400h-163zM696 1200q-98 0 -175 50t-125 50q-49 0 -49 -100h-101q0 200 150 200q98 0 175 -50t125 -50q50 0 50 100h100q0 -200 -150 -200z" />
    <glyph glyph-name="dong" unicode="&#x20ab;" horiz-adv-x="1050" 
d="M501 1300q155 0 250 -74v175h-199v149h199v100h150v-100h100v-149h-100v-1101h-150v76q-96 -75 -250 -76q-400 0 -400 500t400 500zM501 450q249 0 250 350q0 350 -249 350q-251 0 -251 -350t250 -350zM152 1v149h749v-149h-749z" />
    <glyph glyph-name="Amacron" unicode="&#x100;" horiz-adv-x="1100" 
d="M1062 0h-157l-127 400h-451l-123 -400h-156l402 1300h200zM731 550l-181 574l-176 -574h357zM900 1500h-700v100h700v-100z" />
    <glyph glyph-name="amacron" unicode="&#x101;" horiz-adv-x="1050" 
d="M100 300q0 350 550 350h101v51q0 150 -251 150q-161 0 -349 -50v150q189 50 350 50q400 0 400 -300v-700h-150v159l-13 -10q-188 -150 -338 -150q-300 0 -300 300zM651 500q-400 0 -400 -200q0 -149 150 -149q99 0 224 99l125 100l1 -3v153h-100zM900 1200h-700v100h700
v-100z" />
    <glyph glyph-name="Imacron" unicode="&#x12a;" horiz-adv-x="650" 
d="M250 150v1000h-150v150h450v-150h-150v-1000h150v-150h-450v150h150zM650 1500h-650v100h650v-100z" />
    <glyph glyph-name="imacron" unicode="&#x12b;" horiz-adv-x="450" 
d="M150 1000h150v-1000h-150v1000zM500 1200h-550v100h550v-100z" />
    <glyph glyph-name="Sacute" unicode="&#x15a;" horiz-adv-x="1100" 
d="M551 151q248 0 250 249q0 200 -246 200h-4q-401 0 -401 350q0 351 400 351q251 0 351 -100v-201q-101 150 -350 150q-250 0 -250 -200t250 -200h3q396 0 396 -349q0 -400 -399 -401q-253 0 -401 100v200q152 -149 401 -149zM550 1400h-100l200 400h150z" />
    <glyph glyph-name="sacute" unicode="&#x15b;" horiz-adv-x="1050" 
d="M551 151q249 0 249 135q0 134 -249 134q-401 0 -401 290q0 291 400 291q251 0 351 -100v-201q-101 150 -350 150q-250 0 -250 -140t250 -140q399 0 399 -285t-399 -285q-253 0 -401 100v200q152 -149 401 -149zM500 1150h-100l200 400h150z" />
    <glyph glyph-name="Umacron" unicode="&#x16a;" horiz-adv-x="1200" 
d="M600 0q-450 0 -450 400v900h150v-900q0 -250 300 -250t300 250v900h150v-900q0 -400 -450 -400zM950 1500h-700v100h700v-100z" />
    <glyph glyph-name="umacron" unicode="&#x16b;" horiz-adv-x="1100" 
d="M550 150q250 0 250 250v600h150v-1000h-150v100q-100 -100 -250 -100q-400 0 -400 400v600h150v-600q0 -250 250 -250zM900 1200h-700v100h700v-100z" />
    <glyph glyph-name="Ddotbelow" unicode="&#x1e0c;" horiz-adv-x="1150" 
d="M1050 650q0 -650 -500 -650h-400v1300h400q500 0 500 -650zM900 650q0 500 -350 500h-250v-1000h250q350 0 350 500zM525 -150h150v-150h-150v150z" />
    <glyph glyph-name="ddotbelow" unicode="&#x1e0d;" horiz-adv-x="1050" 
d="M500 1000q155 0 250 -74v374h150v-1300h-150v76q-96 -75 -250 -76q-400 0 -400 500t400 500zM500 150q250 0 250 350t-249 350q-251 0 -251 -350t250 -350zM475 -150h150v-150h-150v150z" />
    <glyph glyph-name="Hdotbelow" unicode="&#x1e24;" horiz-adv-x="1100" 
d="M800 650h-500v-650h-150v1300h150v-500h500v500h150v-1300h-150v650zM475 -150h150v-150h-150v150z" />
    <glyph glyph-name="hdotbelow" unicode="&#x1e25;" horiz-adv-x="1100" 
d="M300 900q100 100 250 100q400 0 400 -400v-600h-150v600q0 250 -250 250t-250 -250v-600h-150v1300h150v-400zM475 -150h150v-150h-150v150z" />
    <glyph glyph-name="Ldotbelow" unicode="&#x1e36;" horiz-adv-x="900" 
d="M150 1300h150v-1150h500v-150h-650v1300zM405 -150h150v-150h-150v150z" />
    <glyph glyph-name="ldotbelow" unicode="&#x1e37;" horiz-adv-x="450" 
d="M150 1300h150v-1300h-150v1300zM150 -150h150v-150h-150v150z" />
    <glyph glyph-name="Ldotbelowmacron" unicode="&#x1e38;" horiz-adv-x="900" 
d="M150 1300h150v-1150h500v-150h-650v1300zM405 -150h150v-150h-150v150zM800 1500h-650v100h650v-100z" />
    <glyph glyph-name="ldotbelowmacron" unicode="&#x1e39;" horiz-adv-x="450" 
d="M500 1500h-550v100h550v-100zM150 1300h150v-1300h-150v1300zM150 -150h150v-150h-150v150z" />
    <glyph glyph-name="Mdotabove" unicode="&#x1e40;" horiz-adv-x="1300" 
d="M1000 1003l-350 -603l-350 603v-1003h-150v1300h150l350 -601l350 601h150v-1300h-150v1003zM725 1450h-150v150h150v-150z" />
    <glyph glyph-name="mdotabove" unicode="&#x1e41;" horiz-adv-x="1550" 
d="M300 913q84 87 200 87q215 0 298 -153q97 153 252 153q350 0 350 -400v-600h-150v600q0 250 -200 250t-200 -250v-600h-150v600q0 250 -200 250t-200 -250v-600h-150v1000h150v-87zM851 1200h-150v150h150v-150z" />
    <glyph glyph-name="Mdotbelow" unicode="&#x1e42;" horiz-adv-x="1300" 
d="M1000 1003l-350 -603l-350 603v-1003h-150v1300h150l350 -601l350 601h150v-1300h-150v1003zM725 -300h-150v150h150v-150z" />
    <glyph glyph-name="mdotbelow" unicode="&#x1e43;" horiz-adv-x="1550" 
d="M300 913q84 87 200 87q215 0 298 -153q97 153 252 153q350 0 350 -400v-600h-150v600q0 250 -200 250t-200 -250v-600h-150v600q0 250 -200 250t-200 -250v-600h-150v1000h150v-87zM851 -300h-150v150h150v-150z" />
    <glyph glyph-name="Ndotabove" unicode="&#x1e44;" horiz-adv-x="1100" 
d="M300 976v-976h-150v1300h151l499 -972v972h150v-1300h-151zM625 1450h-150v150h150v-150z" />
    <glyph glyph-name="ndotabove" unicode="&#x1e45;" horiz-adv-x="1100" 
d="M300 900q100 100 250 100q400 0 400 -400v-600h-150v600q0 250 -250 250t-250 -250v-600h-150v1000h150v-100zM631 1200h-150v150h150v-150z" />
    <glyph glyph-name="Ndotbelow" unicode="&#x1e46;" horiz-adv-x="1100" 
d="M300 976v-976h-150v1300h151l499 -972v972h150v-1300h-151zM625 -300h-150v150h150v-150z" />
    <glyph glyph-name="ndotbelow" unicode="&#x1e47;" horiz-adv-x="1100" 
d="M300 900q100 100 250 100q400 0 400 -400v-600h-150v600q0 250 -250 250t-250 -250v-600h-150v1000h150v-100zM631 -300h-150v150h150v-150z" />
    <glyph glyph-name="Rdotbelow" unicode="&#x1e5a;" horiz-adv-x="1100" 
d="M500 1300q450 0 450 -400q0 -289 -236 -370l387 -530h-186l-365 501q-1 -1 -12 -1h-238v-500h-150v1300h350zM800 900q0 250 -300 250h-200v-500h200q300 0 300 250zM625 -300h-150v150h150v-150z" />
    <glyph glyph-name="rdotbelow" unicode="&#x1e5b;" horiz-adv-x="700" 
d="M300 888q115 112 300 112h100v-150h-100q-300 0 -300 -250v-600h-150v1000h150v-112zM150 -150h150v-150h-150v150z" />
    <glyph glyph-name="Rdotbelowmaron" unicode="&#x1e5c;" horiz-adv-x="1100" 
d="M500 1300q450 0 450 -400q0 -289 -236 -370l387 -530h-186l-365 501q-1 -1 -12 -1h-238v-500h-150v1300h350zM800 900q0 250 -300 250h-200v-500h200q300 0 300 250zM625 -300h-150v150h150v-150zM900 1500h-700v100h700v-100z" />
    <glyph glyph-name="rdotbelowmacron" unicode="&#x1e5d;" horiz-adv-x="700" 
d="M300 888q115 112 300 112h100v-150h-100q-300 0 -300 -250v-600h-150v1000h150v-112zM150 -150h150v-150h-150v150zM700 1200h-550v100h550v-100z" />
    <glyph glyph-name="Sdotbelow" unicode="&#x1e62;" horiz-adv-x="1100" 
d="M551 151q248 0 250 249q0 200 -246 200h-4q-401 0 -401 350q0 351 400 351q251 0 351 -100v-201q-101 150 -350 150q-250 0 -250 -200t250 -200h3q396 0 396 -349q0 -400 -399 -401q-253 0 -401 100v200q152 -149 401 -149zM475 -150h150v-150h-150v150z" />
    <glyph glyph-name="sdotbelow" unicode="&#x1e63;" horiz-adv-x="1050" 
d="M551 151q249 0 249 135q0 134 -249 134q-401 0 -401 290q0 291 400 291q251 0 351 -100v-201q-101 150 -350 150q-250 0 -250 -140t250 -140q399 0 399 -285t-399 -285q-253 0 -401 100v200q152 -149 401 -149zM631 -300h-150v150h150v-150z" />
    <glyph glyph-name="Tdotbelow" unicode="&#x1e6c;" horiz-adv-x="1050" 
d="M50 1150v150h950v-150h-400v-1150h-150v1150h-400zM600 -300h-150v150h150v-150z" />
    <glyph glyph-name="tdotbelow" unicode="&#x1e6d;" horiz-adv-x="601" 
d="M150 1000v300h150v-300h250v-150h-250v-500q0 -200 151 -200h149v-150h-150q-300 0 -300 349v501h-129v150h129zM250 -150h150v-150h-150v150z" />
    <glyph glyph-name="uni1780.sub" 
d="M-608 -534v188l-93 66q-65 46 -116 46l-81 -12l-62 -26v-270q12 -23 20 -30l31 -8q-8 -54 -54.5 -110t-92.5 -56q-20 4 -55 39l-85 92l-8 16l20 30l15 35v242l182 123q136 73 244 73q104 0 201 -73l147 -123v-250l12 -30l11 -4l23 -4q-7 -54 -51.5 -110t-95.5 -56
q-7 4 -17 8t-21 16l-101 107l-8 16l20 30z" />
    <glyph glyph-name="uni1781.sub" 
d="M-348 -553q-11 -11 -17 -14q-28 -23 -51 -34l-119 -55q-96 -41 -244 -78q-68 0 -139 20.5t-99 39.5q-34 11 -68 44t-34 70l17 66q11 23 68 52q79 33 232 70l244 52q68 22 68 40q0 26 -107 26h-346q-29 0 -37.5 -37t-14 -42.5t-11.5 -8.5q-45 0 -85 59l-40 88l23 48
q17 33 85 33h522q51 0 113 -88q51 -89 51 -137q0 -18 -119 -59l-204 -55l-193 -41q-136 -33 -136 -88q0 -33 153 -33q17 3 31.5 7t59.5 22l97 41l124 59q80 37 97 59l62 -74z" />
    <glyph glyph-name="uni1782.sub" 
d="M-944 -533l66 64q28 19 87 26q47 0 80 -20.5t45 -100.5q0 -34 -27 -56l-71 -46q-12 99 -82 99q-24 -4 -28 -8l-15 -7q-24 -12 -71 -82t-82 -70q-20 4 -55 38l-87 91l-8 15l20 30l16 34v238l184 121q137 71 247 71q106 0 204 -71l149 -121v-245l12 -31l12 -3l23 -4
q-7 -53 -52.5 -108t-96.5 -55q-7 4 -17 8t-22 15l-102 106l-8 15l20 30l16 34v185l-95 64q-66 46 -117 46l-83 -12l-62 -26v-264z" />
    <glyph glyph-name="uni1783.sub" horiz-adv-x="775" 
d="M-160 -653q-93 -93 -249 -93q-120 0 -225 82q-72 55 -108 122v178l-9 26l-31 22q0 26 12.5 59t33.5 67q48 70 99 70q39 0 63 -26q15 -26 21 -70v-326q18 -22 60 -37l69 -15h60q30 11 60 18.5t54 52.5v170q-6 22 -12 29q-18 0 -24 4q0 4 -3 8l15 48q9 29 39 66
q48 78 87 78q18 0 49.5 -31.5t37.5 -61.5v-325q66 -52 129 -52q81 0 126 55.5t45 155.5v1213q-24 12 -67.5 56t-58.5 81l72 193l69 233h300q18 -4 24 -67l-6 -63q-9 -48 -36 -118q-36 -78 -60 -81q-15 14 -18 29q-24 67 -45 67h-105q-6 -4 -13.5 -7.5t-22.5 -20.5t-15 -54
q3 -11 6 -18.5t15 -25.5l54 -56l51 -40l60 -30v-1295l-9 -122q-9 -63 -49.5 -109t-124.5 -94q-84 -38 -177 -38q-57 0 -96 13t-147 80z" />
    <glyph glyph-name="uni1784.sub" 
d="M-349 -411q-84 0 -137 -56l-73 -103q-65 -84 -100 -114q-73 -62 -161 -62q-80 0 -122 20q-43 14 -108 58l-99 81q-31 31 -43 84q0 61 71 129t144 68q54 0 88 -25l54 -61q-58 -3 -123 -56q-19 -16 -34 -36q-27 -33 -27 -69q31 -56 146 -56q57 8 160 159q54 75 106 109.5
t109 34.5q50 0 88 -27z" />
    <glyph glyph-name="uni1785.sub" 
d="M-553 -508q-52 -89 -134 -139t-172 -50q-95 0 -214 66t-119 127q0 18 52 61q117 85 117 142q-13 25 -52 46l-108 22q26 103 82 139l43 10q52 0 110 -40.5t67 -87.5q0 -60 -78 -174l-43 -79q22 -35 106 -64t153 -36q65 22 125 107q-73 47 -112 86q-56 57 -56 121
q13 57 91 107q51 32 94 32q78 -11 121 -57q35 -46 35 -103q0 -68 -22 -100l91 -75q64 -61 64 -78q0 -36 -32 -77t-97 -62q-9 39 -21 57zM-639 -219l30 -46l69 -61q0 104 -43 128l-22 8q-21 0 -34 -29z" />
    <glyph glyph-name="uni1786.sub" 
d="M-567 -552q59 8 59 86q0 46 -67 104q-17 20 -72 47l-106 35l55 85q38 46 76 46q30 0 57.5 -5.5t74 -34.5t82 -85.5t35.5 -122.5q0 -50 -14.5 -92.5t-48.5 -102.5t-84.5 -107t-114.5 -47q-50 12 -84 35l-55 74l-30 43q-29 46 -84 81q51 93 156 93q30 -12 93 -70
q51 -58 72 -62zM-1099 -249q-9 23 -17 23l-34 11l21 39l25 35q55 50 98 50q25 0 67 -36.5t42 -67.5v-384l13 -35l13 -35q-9 -42 -51 -69q-42 -20 -106 -28q-92 0 -158 60.5t-66 157.5q0 42 4.5 61.5t29.5 58.5q26 54 64 62q21 -27 29 -51l13 -77q-34 -27 -47 -89l9 -39
l38 -31l13 15v369z" />
    <glyph glyph-name="uni1787.sub" 
d="M-348 -497q-12 -102 -85 -181.5t-163 -79.5q-32 0 -114 80q-40 41 -54.5 54.5t-34.5 24.5q-12 -8 -28.5 -21t-49.5 -55q-61 -71 -101 -83q-49 0 -116 43.5t-100 111.5t-33 264q25 98 86 166q57 53 110 60l24 -7l33 -68l24 -83q-57 -19 -110 -68t-57 -109q0 -64 45 -105.5
t94 -41.5q24 0 36 11l82 98q57 72 106 76q40 0 115.5 -81.5t115.5 -81.5l33 8q37 22 53 98l-138 49q-61 34 -90 94q0 64 32.5 128.5t81.5 75.5q110 0 171 -83q45 -64 45 -132l57 -15q36 -8 72.5 -30.5t65.5 -60.5l32 -56q0 -76 -97 -162l-21 64l-36 56l-45 27zM-551 -237
q8 -11 18 -22.5t39 -22.5l73 -34q-12 87 -85 117q-41 0 -45 -38z" />
    <glyph glyph-name="uni1788.sub" horiz-adv-x="775" 
d="M-440 -314v-243q32 -37 103 -37q29 0 71 18.5t64 62.5v170l-9 29l-33 11l17 48q6 22 43 68t56 61l39 15q19 0 58 -34q26 -33 31 -59v-331q65 -44 107 -44q64 0 99 55q32 63 32 155v1207q-25 11 -72 55t-63 81l78 191l74 232h321q20 -4 26 -66l-6 -63q-10 -48 -39 -118
q-39 -77 -64 -81q-16 15 -20 30q-25 66 -48 66h-113q-6 -4 -14 -7.5t-24 -20t-16 -53.5q3 -11 6 -18.5t16 -25.5l58 -55l55 -41l64 -29v-1288l-9 -125q-10 -59 -52 -107t-109.5 -88.5t-167.5 -40.5q-45 0 -64 6t-55 24l-105 63q-48 -45 -111 -69t-130 -24q-110 0 -177 63
l-119 140v199q-52 92 -136 92l-54 -11l-52 -45v-202q0 -26 29 -48l49 -33q-7 -26 -65 -90.5t-90 -64.5q-51 0 -116 48q-35 26 -42 45q10 22 17 29l16 33v269q58 66 112.5 110t109 66.5t109.5 22.5q77 0 167 -57.5t148 -145.5z" />
    <glyph glyph-name="uni1789.sub" 
d="M-1110 -391l-69 41q-58 29 -157 29q35 98 64 127t75 29q81 0 208 -80l307 -191q69 0 109.5 25.5t52.5 66.5q0 29 -32 65.5t-81 46.5q14 35 26 57.5t32 41.5q34 31 87 31q43 0 104 -76q54 -80 54 -153q0 -44 -52 -99l-95 -70l-147 -82q-44 -20 -90 -20q-75 0 -182 71z" />
    <glyph glyph-name="uni1789.sub.alt" 
d="M-856 -170l-37 -7q-20 -14 -46 -24q-6 -2 -11 -5v-114l11 -12l20 -8l26 -2q-5 -26 -67 -53q-47 -28 -104 -28q-37 0 -78 26l-73 36l-10 10q31 16 41 35v115q0 19 -15 27l-78 4h-78q-32 0 -68 -24q-15 -14 -28 -18.5t-19 -7.5l-26 26q-15 22 -52 24h-187q-47 0 -47 -19
l11 -12l57 -24l130 -21v-113q62 15 68 34q0 21 -37 36q16 43 104 43q11 -3 24 -5t23 -10l21 -35q0 -32 -26 -51t-83 -43q-99 -33 -188 -33q-31 0 -62 14l-104 48l-10 7q31 19 41 38v51q-83 21 -125 50l73 57q21 17 31.5 29t41.5 57h291q37 -11 47 -22t21 -18q5 0 10 -3
l47 22q31 21 67 21h260q47 0 78 -21l26 -22l47 22q31 21 68 21h338q52 0 78 -14l20 -45v-189q0 -12 32 -20l25 -2q-5 -26 -67 -53q-47 -28 -104 -28q-36 0 -78 26l-73 36l-10 10l36 35v115q0 19 -15 27l-73 4h-135zM-1445 -666h-196q-121 0 -192 -9l76 97q35 26 126 48
l106 5l237 -9l257 -26l292 -9l106 9q15 30 41 39l95 9q71 -13 81 -79q0 -53 -136 -79.5t-333 -26.5l-116 4z" />
    <glyph glyph-name="uni178a.sub" 
d="M-962 -272v-374q38 12 51 27.5t13 38.5q0 58 -42 88l27 108q11 35 31 38q57 0 91 -67t34 -113q-19 -123 -76 -166q-27 -23 -88 -38l-95 -12q-49 0 -91 43l-88 84l-8 16l20 30l15 35v242l179 123q133 73 240 73q103 0 198 -73l145 -123v-250l11 -30l12 -4l22 -4
q-7 -54 -51 -110t-93 -56q-8 4 -17.5 8t-20.5 16l-99 107l-8 16l19 30l15 35v188l-91 66q-65 46 -115 46l-80 -12z" />
    <glyph glyph-name="uni178b.sub" 
d="M-447 -285v-282q24 -31 24 -68q-12 -27 -49.5 -59t-76.5 -51q-52 0 -123 65l-63 56l-55 26q-27 -15 -35 -26l-32 -34q-35 -53 -53 -66t-61 -21q-32 0 -67 34l-83 80l-8 11l24 22q12 8 18 19.5t6 14.5v147q-56 0 -87 42q-36 34 -36 102q0 49 20 79l47 49q32 30 99 37
q63 -3 98 -49q16 -22 24 -67l4 -95q55 0 134 27q39 7 65 13t77 28l-20 19l-20 4q8 11 18 26t30 38q43 56 79 56q51 0 98 -56l67 15l75 8q47 0 79 -23l11 -30q0 -53 -63 -140q-23 23 -70 42zM-636 -481v140l-122 -42l-154 -26v-155l20 -11q12 11 21.5 22.5t29.5 41.5
q35 57 59 68q36 0 75 -26l43 -34q20 3 28 22zM-1129 -307q12 -12 48 -19q0 90 -28 94q-24 0 -31 -34q0 -22 11 -41z" />
    <glyph glyph-name="uni178c.sub" 
d="M-561 -653v96q-4 21 -9 26t-10 5l-108 -46l-132 -49l-73 -17l-74 -11q-39 0 -97 21q-35 18 -83 64l-35 66q0 64 123 110q29 10 229 38q176 15 221 53q14 11 24 39q0 32 -59 64l-34 7q-29 0 -88 -32l-83 -35q-34 0 -103 49q-24 18 -59 25l-29 -7q-29 -18 -29 -46
q14 -18 73 -35q-24 -53 -112 -53q-25 0 -54 42q-30 32 -30 74q10 35 34.5 60t71 53t100.5 35q73 0 127 -39l69 -39l88 43q63 31 117 38q93 0 152 -52q48 -60 48 -141q-14 -88 -293 -143t-308 -76l-10 -21q10 -25 20 -32l63 -35q30 0 127 32l152 60l117 38l79 18
q49 -7 49 -77v-244q0 -21 -35 -42l-58 -25q-15 8 -20 11q-24 14 -49 35l-29 32l-25 32l25 10z" />
    <glyph glyph-name="uni178d.sub" horiz-adv-x="775" 
d="M-242 -488v-165q0 -81 -94 -81q-33 0 -86.5 35t-73.5 83q0 26 16 44l41 59v162q0 78 -61 78h-107q-24 0 -48.5 -33.5t-41.5 -36.5l-24 47q-13 23 -37 23h-193q-41 0 -41 -59q0 -22 78 -48l103 -33v-206q61 11 65 51q0 44 -37 85q8 22 45 62l58 41q12 -4 22 -11.5
t30.5 -38.5t20.5 -68q0 -63 -12 -92l-70 -74q-28 -25 -91.5 -47.5t-108.5 -22.5q-25 0 -66 37l-78 74q25 40 25 66v114l-61 33q-33 19 -50 41l74 140l49 118h275q28 -19 36.5 -39t12.5 -24t8 -7q29 22 45 36q25 34 49 34h250q37 0 61 -26l17 -67v-259l17 50q16 55 32 62
q70 0 125 -20t75 -68l-4 -59l-16 -63q0 -44 61 -44t100 48t39 188v1207q-32 11 -91.5 55t-80.5 81l99 191l94 232h409q25 -4 33 -66l-8 -63q-12 -48 -49 -118q-49 -77 -82 -81q-21 15 -25 30q-33 66 -61 66h-144q-8 -4 -18 -7.5t-30.5 -20t-20.5 -53.5q4 -11 8 -18.5
t21 -25.5l73 -55l70 -41l82 -29v-1288q0 -62 -20.5 -137.5t-69.5 -119.5q-99 -81 -242 -104q-70 0 -170 22.5t-112 73.5l29 41q20 18 28 44q0 33 -57 48z" />
    <glyph glyph-name="uni178e.sub" 
d="M-960 -415v-154q31 -23 31 -65l-72 -65q-46 -35 -92 -47q-61 0 -164 66l-76 58l-77 26q-31 -11 -41 -19l-41 -46q-15 -27 -51 -46q-51 -39 -102 -39q-36 0 -62 20l-133 96l-10 11q31 27 41 58v215q0 81 -92 81h-435q-56 0 -56 -61q0 -23 97 -50l123 -35v-192q51 15 71 61
q0 43 -30 77q0 31 56 62l87 31q72 0 72 -108q0 -58 -46 -112l-92 -69q-113 -85 -210 -85q-41 12 -51 20l-128 96l-10 15q30 27 35 54v119l-76 35l-57 42l87 123l72 146h716q46 0 79 -28.5t33 -67.5v-369l26 -11q10 11 15 15q31 31 46 50q41 54 82 65q36 0 82 -19l66 -38
q31 0 41 23v19q-76 35 -133 92l87 123l72 146h706q117 0 117 -96v-377l26 -30l30 -4q-5 -35 -66 -89t-107 -54q-31 0 -62 35l-97 81l-10 15q31 23 41 54v215q0 81 -92 81h-430q-51 0 -56 -61q20 -20 31 -27l56 -23l66 -20z" />
    <glyph glyph-name="uni178f.sub" 
d="M-962 -272v-374q38 12 51 27.5t13 38.5q0 58 -42 88l27 108q11 35 31 38q57 0 91 -67t34 -113q-19 -123 -76 -166q-27 -23 -88 -38l-95 -12q-49 0 -91 43l-88 84l-8 16l20 30l15 35v242l179 123q133 73 240 73q103 0 198 -73l145 -123v-250l11 -30l12 -4l22 -4
q-7 -54 -51 -110t-93 -56q-8 4 -17.5 8t-20.5 16l-99 107l-8 16l19 30l15 35v188l-91 66q-65 46 -115 46l-80 -12z" />
    <glyph glyph-name="uni1790.sub" 
d="M-499 -327l90 -134q71 -79 169 -79l-56 -82q-47 -56 -127 -64q-132 0 -261.5 194.5t-200.5 216.5q-136 0 -179 -74q0 -79 71 -140.5t155 -76.5l-47 -67q-42 -53 -127 -53q-80 0 -172 93.5t-92 175.5q0 53 57 116q33 45 110.5 99t139 80t150.5 26q113 0 198 -78z" />
    <glyph glyph-name="uni1791.sub" 
d="M-990 -198q26 39 67 61.5t75 28.5q48 -6 82 -45q22 -35 30 -87q-13 -38 -82 -80l-176 -107l-9 -22q0 -23 35 -48l47 -33q39 0 103 39l173 126l86 51q56 29 108 36q25 -4 43 -33l12 -51v-313q0 -16 -40.5 -43.5t-70.5 -27.5q-22 0 -74 49l-26 26l-30 41l30 7l18 26v135
l-30 13q-56 -58 -112 -100q-112 -93 -211 -116q-164 0 -280 171l-18 42q0 25 61 48l99 35l99 46l47 38l9 26q0 23 -65 61z" />
    <glyph glyph-name="uni1792.sub" 
d="M-389 -97q40 -27 40 -181q0 -94 -24 -188.5t-65 -142.5q-60 -77 -174 -98q-65 0 -97 17q-41 11 -97 56q-73 -73 -97 -84q-53 -28 -122 -28t-136 92.5t-67 166.5l57 76l49 109q97 -74 243 -74q85 0 194.5 54.5t109.5 123.5q16 14 34 31.5t58.5 40.5t93.5 29zM-1060 -578
q25 -31 78 -35q43 11 93 52l57 74l71 -56q50 -32 93 -32q43 18 64 44t36 72v66q0 28 -22 87q-43 -70 -98 -104.5t-67.5 -41.5t-75 -28t-119.5 -21q-50 0 -74.5 3.5t-78.5 20.5q4 -49 43 -101z" />
    <glyph glyph-name="uni1793.sub" 
d="M-467 -337v-279q42 23 61 68q0 45 -50 79l27 68q15 27 34 42q27 0 77 -38q42 -42 46 -87q0 -71 -17 -105t-67 -76q-88 -68 -181 -68q-73 12 -126 110q23 45 23 71v211l-65 4l-169 8q-92 0 -134.5 -39.5t-42.5 -100.5q0 -45 46 -90q42 -30 77 -34l34 7q16 12 50 102
q12 45 39 69.5t84 24.5q46 0 69 -18q0 -72 -42 -117l-46 11q-35 0 -46 -45l-31 -102q-30 -72 -146 -72q-88 0 -176.5 66t-88.5 164q0 91 43 159q34 68 80 92.5t112 24.5l111 -8l96 -11l146 -8l-4 23l-12 11l-23 8q4 37 44.5 76.5t78.5 39.5q23 0 50 -41l39 -60v-53
q49 11 107 45q31 19 46 42l35 60q49 -49 49 -106q0 -34 -26 -60q-81 -68 -211 -68z" />
    <glyph glyph-name="uni1794.sub" horiz-adv-x="775" 
d="M-330 -115q23 0 81 -33q47 -33 51 -58v-279l27 -14q19 7 67.5 87.5t87.5 95.5q38 0 96 -33l66 -48l19 -7q12 7 16 18t7 15v1200q-31 11 -87 55t-75 80l93 190l89 231h387q23 -4 31 -66l-8 -62q-11 -48 -46 -117q-47 -77 -78 -81q-19 15 -23 30q-31 65 -58 65h-135
q-8 -3 -18 -7t-29 -20t-19 -53q4 -11 7.5 -18.5t19.5 -25.5l69 -55l66 -40l78 -29v-1398q11 -22 21 -31t13.5 -18.5t7.5 -16.5l-7 -22q-24 -47 -72 -89.5t-107 -64.5q-46 0 -108 37l-62 48l-89 80q-43 33 -81 40q-27 -14 -38 -25l-51 -59q-42 -62 -75 -87.5t-87 -33.5
q-43 0 -86 44l-108 114l-12 18l24 33q23 22 23 44v135q-8 22 -16 30q-23 0 -31 3q0 4 -4 8l20 47q11 30 50 70l54 55z" />
    <glyph glyph-name="uni1795.sub" 
d="M-602 -213q0 -23 30 -45.5t84 -33.5q-11 87 -75 117q-39 0 -39 -38zM-453 -575q-32 -68 -85 -113.5t-103 -45.5q-28 0 -99 80q-36 41 -48.5 54.5t-30.5 24.5q-10 -8 -24.5 -21t-42.5 -55q-53 -71 -89 -83q-42 0 -101 43.5t-87.5 111.5t-28.5 264q22 98 75 166
q50 53 96 60l21 -7l29 -68l21 -83q-50 -19 -96 -68t-50 -109q0 -64 39.5 -105.5t81.5 -41.5q21 0 32 11l71 98q50 72 92 76q36 0 101.5 -81.5t101.5 -81.5l28 8q32 22 47 98q-164 15 -199 143q0 61 28 125t71 79q103 0 160 -98q42 -68 42 -151l-14 -124q-7 -23 -17.5 -53
t-21.5 -53z" />
    <glyph glyph-name="uni1796.sub" 
d="M-573 -556v208q0 78 -62 78h-106q-25 0 -49.5 -33.5t-40.5 -37.5l-24 48q-13 23 -37 23h-184q-45 0 -45 -38q0 -22 78 -55l94 -26v-244q57 22 69 66q0 74 -45 89l29 45q32 40 65 51q21 0 57 -33q25 -30 29 -74q0 -74 -16.5 -107.5t-69.5 -74.5q-33 -29 -90 -44l-102 -15
q-24 0 -69 33.5t-74 74.5q25 40 25 66v134l-66 40l-33 41l58 104l53 129h274q28 -18 36.5 -38.5t12.5 -24t8 -7.5q28 22 45 37q24 33 45 33h253q49 0 65 -29l9 -63v-363l12 -19l12 -11l20 -3q-4 -56 -65 -104q-37 -34 -69 -34q-4 4 -9 4q-28 19 -53 45l-65 63l-8 14
q24 23 33 52z" />
    <glyph glyph-name="uni1797.sub" 
d="M-1168 -594v314l183 110q132 69 249 69q113 0 198 -61l150 -118v-278l28 -32l23 -4q-9 -45 -58.5 -96t-96.5 -56q-32 13 -42 21l-108 102l-9 12q28 29 37 61v217l-79 57q-71 49 -118 49q-38 0 -131 -37v-286l18 -32l19 -29l-9 -12l-99 -86q-37 -32 -66 -37q-98 0 -190 90
t-92 204q0 45 31 84t68 43q10 -4 21.5 -12t25.5 -29l33 -77l-38 -41l-14 -53q14 -33 66 -57z" />
    <glyph glyph-name="uni1798.sub" 
d="M-1047 -455q-20 13 -51 20q-31 0 -45 7q11 37 45 74q21 24 51 38q52 0 86 -19t75 -66l65 -74q31 -31 62 -38q13 0 18.5 3.5t10.5 7t18.5 49t44.5 76.5q28 20 76 20q41 0 58 -13q0 -65 -38 -105l-41 10q-31 0 -41 -41l-27 -91q-21 -61 -134 -61q-62 10 -130 88
q-79 98 -103 115zM-369 -181v-372q41 20 51 54q0 47 -41 74q7 24 12 39.5t17 39t29 30.5q38 0 70.5 -35.5t35.5 -79.5q0 -61 -20.5 -102t-61.5 -71q-78 -58 -154 -58q-17 0 -48 31l-65 71q21 37 21 61v267l-3 21l-11 10l-20 7q3 33 39 68.5t70 35.5q21 0 45 -37z" />
    <glyph glyph-name="uni1799.sub" horiz-adv-x="775" 
d="M230 -71v900q-28 11 -78 55t-68 80l84 190l79 231h347q21 -4 28 -66l-7 -62q-10 -48 -41 -117q-42 -77 -70 -81q-17 15 -21 30q-27 65 -52 65h-121q-7 -3 -15.5 -7t-26 -20t-17.5 -53q3 -11 6.5 -18.5t17.5 -25.5l63 -55l59 -40l69 -29v-962q115 -99 148 -148.5
t36 -108.5q0 -47 -64 -126t-146 -143t-182 -104l-170 -48q-90 0 -216.5 53.5t-192.5 108.5q-112 87 -112 190q0 80 64.5 153.5t126.5 73.5q39 0 77 -44q31 -44 41 -88q-41 -15 -65.5 -24t-62.5 -33t-42 -67q0 -37 113 -90t189 -53q41 0 65.5 5.5t62.5 22t47 22t66 36.5
t102 68q59 47 91 106q0 36 -61 100t-151 123z" />
    <glyph glyph-name="uni179a.sub" horiz-adv-x="775" 
d="M1252 -260q0 -93 -116 -179q-80 -54 -203.5 -102.5t-224.5 -48.5q-58 0 -178 45q-47 17 -73 28q-61 27 -112 61q-87 59 -156 134.5t-69 126.5q0 58 58 124q33 41 134 116v830q-36 11 -85 53.5t-67 73.5l87 179l83 216h363q22 -3 29 -62l-7 -58q-11 -45 -44 -110
q-43 -72 -72 -75q-18 13 -22 27q-29 62 -54 62h-127q-62 0 -62 -76q4 -37 87 -89l65 -41l73 -28v-916q-91 -51 -154.5 -111t-66.5 -98q21 -48 90 -99l102 -59l127 -54l134 -31q84 0 200 48t116 85q0 28 -55 69q-43 24 -123 48q11 41 43.5 80.5t79.5 43.5q69 0 134.5 -72
t65.5 -141z" />
    <glyph glyph-name="uni179b.sub" 
d="M-629 -286l54 -103q40 -87 71 -91q32 0 63 40q13 24 22 71l-4 60q-9 27 -49 79q35 67 80 115q23 24 58 31q41 -23 72 -79q14 -31 22 -107l-13 -119q-13 -51 -45 -91q-62 -91 -125 -150q-76 -76 -143 -80q-72 0 -153 123q-174 297 -237 313q-130 0 -170 -79
q0 -83 67 -148.5t148 -81.5l-59 -87q-35 -32 -107 -40q-63 0 -155 99.5t-92 186.5q0 27 7 53t40.5 67.5t101 99t132 89t154.5 31.5q112 0 184 -91z" />
    <glyph glyph-name="uni179c.sub" 
d="M-432 -134q37 -31 37 -156l-3 -66q0 -39 -15 -67q-34 -102 -112 -167.5t-205 -106.5q-82 -26 -149 -26q-49 0 -71 3.5t-80 24t-114 84.5q-18 19 -33 41q-27 39 -27 80l53 70l44 99q90 -67 224 -67q78 0 179 49t101 113q15 13 31.5 29t54 36.5t85.5 26.5zM-1077 -484
q0 -25 34 -51l56 -25q30 -19 74 -22l116 -7q89 10 160 51q64 32 93 86l19 73l-11 54q-45 -63 -102.5 -95t-71 -38.5t-78.5 -25.5t-136 -19q-67 0 -153 19z" />
    <glyph glyph-name="uni179d.sub" 
d="M-646 -300l-36 23q-66 46 -117 46l-83 -12l-62 -26v-264l66 64q28 19 87 26q47 0 80 -20.5t45 -100.5q0 -34 -27 -56l-71 -46q-12 99 -82 99q-24 -4 -28 -8l-15 -7q-24 -12 -71 -82t-82 -70q-20 4 -55 38l-87 91l-8 15l20 30l16 34v238l184 121q137 71 247 71
q106 0 204 -71l149 -121v-9l192 2l-56 -148l-136 -1v-89l12 -31l12 -3l23 -4q-7 -53 -52.5 -108t-96.5 -55q-7 4 -17 8t-22 15l-102 106l-8 15l20 30l16 34v79l-145 -3l73 78v71z" />
    <glyph glyph-name="uni179e.sub" horiz-adv-x="775" 
d="M452 109v-601q11 -22 21 -31t13.5 -18.5t7.5 -16.5l-7 -22q-24 -47 -72 -89.5t-107 -64.5q-46 0 -108 37l-62 48l-89 80q-43 33 -81 40q-27 -14 -38 -25l-51 -59q-42 -62 -75 -87.5t-87 -33.5q-43 0 -86 44l-108 114l-12 18l24 33q23 22 23 44v135q-8 22 -16 30
q-23 0 -31 3q0 4 -4 8l20 47q11 30 50 70l54 55l39 18q23 0 81 -33q47 -33 51 -58v-279l27 -14q19 7 67.5 87.5t87.5 95.5q38 0 96 -33l66 -48l19 -7q12 7 16 18t7 15v476l-114 -1l74 77v71l40 1v576q-31 11 -87 55t-75 80l93 190l89 231h387q23 -4 31 -66l-8 -62
q-11 -48 -46 -117q-47 -77 -78 -81q-19 15 -23 30q-31 65 -58 65h-135q-8 -3 -18 -7t-29 -20t-19 -53q4 -11 7.5 -18.5t19.5 -25.5l69 -55l66 -40l78 -29v-650l174 3l-55 -149z" />
    <glyph glyph-name="uni179f.sub" horiz-adv-x="775" 
d="M464 23v-96q115 -100 147.5 -150t36.5 -109q0 -48 -64 -127.5t-145.5 -144.5t-182.5 -105l-169 -49q-90 0 -216.5 54t-192.5 109q-111 89 -111 193q0 81 64.5 155t126.5 74q38 0 76 -44q31 -45 42 -89q-42 -15 -66 -24t-62 -33t-42 -69q0 -37 112.5 -90.5t188.5 -53.5
q42 0 66 5.5t62 22t47 22t66 37t102 68.5q59 48 90 108q0 37 -60.5 101.5t-150.5 123.5v115q-66 0 -135.5 33t-69.5 63q0 26 38 92l42 82l59 -41l66 -26v592q-28 12 -78 56t-68 81l83 193l80 233h346q21 -4 28 -67l-7 -63q-10 -48 -41 -118q-42 -78 -70 -81q-17 14 -20 29
q-28 67 -52 67h-122q-7 -4 -15.5 -7.5t-26 -20.5t-17.5 -54q4 -11 7.5 -18.5t17.5 -25.5l62 -56l59 -40l69 -30v-677q63 0 122 48l100 104q0 -82 -17.5 -163.5t-69.5 -125.5l-76 -45z" />
    <glyph glyph-name="uni17a0.sub" 
d="M-1210 -571v303l-3 19l-6 8l-21 8q9 46 46 91t67 52q27 0 47.5 -15.5t41.5 -57.5l-6 -39l-9 -27v-350l50 -38q27 -24 51 -24h38q21 0 34.5 6t20.5 13.5t19 27.5l9 35q0 31 -22 56t-53.5 35t-60.5 29l56 152l62 197h427q32 0 42.5 -25t10.5 -72v-380l9 -19l9 -12l14 -4
q-2 -31 -42 -85.5t-70 -58.5q-21 12 -27 20l-68 97l-6 15q18 24 24 55v202q0 77 -44 85h-240q-27 0 -30 -43l6 -23l45 -23q41 -27 71 -66q29 -51 29 -117q0 -35 -12 -66q-32 -70 -91 -104q-30 -16 -62.5 -24t-83.5 -8q-91 0 -186 90z" />
    <glyph glyph-name="uni17a1.sub" 
d="M-785 -278q-25 0 -25 -19h25q25 0 25 9q0 10 -25 10zM-785 -145q0 57 -125 57t-125 -57v-76q0 -76 125 -76h25q0 57 100 57q75 0 75 -47q0 -48 -75 -48h-25v-76q0 -95 -112 -95q-113 0 -113 57v38q0 19 -25 19q0 38 50 38t50 -57v-38q0 -19 38 -19q37 0 37 57v76h-25
q-200 0 -200 114v76q0 95 200 95t200 -95q0 -57 -88 -57q-62 0 -62 38q0 19 50 19q0 -19 14 -19q11 0 11 19zM-785 -580q-25 -19 -25 -29q0 -12 25 -12v41zM-385 -750h-75l-125 64l-125 -64h-75v91q-75 0 -75 50q0 26 38 55l37 28h75v-178l125 63l125 -63v493l-75 34v29
l100 98l60 -29q19 -9 42 -9h23q-25 -57 -46.5 -57t-44.5 11l-38 19l-41 -41l95 -46v-548z" />
    <glyph glyph-name="uni17a2.sub" 
d="M-847 -361l109 4l-13 -95l-113 -4l17 50v45zM-1032 -584q46 21 46 54q0 25 -55 82l-88 50q-71 25 -105 62l59 124l59 164h252q8 -12 12.5 -30.5t4.5 -59.5q-9 -46 -32 -85t-52 -47l-26 45q-4 13 -25 21h-71q-38 0 -42 -54l100 -62q51 -24 95 -71.5t44 -101.5
q0 -37 -8 -49q-25 -50 -99 -120t-107 -83q-34 0 -67 25l-59 54q-51 58 -68 157q5 12 13.5 22.5t29.5 26.5l75 33q13 -78 46 -115q26 -38 68 -42zM-557 -584q37 13 42 54q0 29 -55 82l-88 50q-72 25 -105 62l63 132l59 156h252q8 -12 12 -30.5t4 -59.5q-16 -50 -37 -87
t-47 -45l-54 66h-67q-42 0 -47 -54q17 -12 26 -16q46 -29 88 -49.5t86 -68t44 -101.5q0 -37 -8 -49q-26 -50 -99.5 -120t-106.5 -83q-34 0 -67 25l-59 54q-51 70 -72 157q4 12 12.5 22.5t29.5 26.5l76 33q4 -54 40 -105.5t78 -51.5z" />
    <glyph glyph-name="uni17a3.sub" 
d="M-847 -361l109 4l-13 -95l-113 -4l17 50v45zM-1032 -584q46 21 46 54q0 25 -55 82l-88 50q-71 25 -105 62l59 124l59 164h252q8 -12 12.5 -30.5t4.5 -59.5q-9 -46 -32 -85t-52 -47l-26 45q-4 13 -25 21h-71q-38 0 -42 -54l100 -62q51 -24 95 -71.5t44 -101.5
q0 -37 -8 -49q-25 -50 -99 -120t-107 -83q-34 0 -67 25l-59 54q-51 58 -68 157q5 12 13.5 22.5t29.5 26.5l75 33q13 -78 46 -115q26 -38 68 -42zM-557 -584q37 13 42 54q0 29 -55 82l-88 50q-72 25 -105 62l63 132l59 156h252q8 -12 12 -30.5t4 -59.5q-16 -50 -37 -87
t-47 -45l-54 66h-67q-42 0 -47 -54q17 -12 26 -16q46 -29 88 -49.5t86 -68t44 -101.5q0 -37 -8 -49q-26 -50 -99.5 -120t-106.5 -83q-34 0 -67 25l-59 54q-51 70 -72 157q4 12 12.5 22.5t29.5 26.5l76 33q4 -54 40 -105.5t78 -51.5z" />
    <glyph glyph-name="uni17a4.sub" 
d="M-690 -278l-83 48v42l193 139h28l303 -122v-528h-83v473l-256 104l-115 -84l96 -60v-433h-83l-41 41q-42 41 -42 106q0 70 83 70v54h-276v-271h-82l-41 41q-42 41 -42 106q0 70 83 70v204l-83 48v42l110 139l66 -41q22 -13 47 -13h25q-27 -81 -51 -81t-50 15l-41 27
l-46 -58l105 -66v-108h276v96zM-1048 -537q-28 0 -28 -16q0 -42 28 -68v84zM-690 -537q-27 0 -27 -16q0 -42 27 -68v84z" />
    <glyph glyph-name="uni17a5.sub" 
d="M-644 -382h-6q-300 0 -300 -100v-34h50q69 0 111 -33q24 -20 24 -48q0 -23 -10 -36q-25 -50 -175 -117h-100v269q0 62 55 101q-24 65 -155 65l300 201l175 -98q65 -36 175 -36q150 0 150 54q0 40 -50 74q-50 33 -200 53q49 47 101 47q99 0 174 -54q75 -60 75 -120
q0 -121 -250 -121q-70 0 -133 13t-117 41l-100 53l-109 -73q39 -22 39 -54v-4q0 -6 -1 -6q91 30 271 30q400 0 400 -168v-267h-100v268q0 100 -294 100zM-870 -616q6 9 6 16q0 17 -36 17h-50v-100q60 33 80 67z" />
    <glyph glyph-name="uni17a6.sub" 
d="M-935 -691q0 -23 -38 -59h-77v102q0 136 232 136q230 0 230 -134v-2q0 -34 153 -34q154 0 154 34v409q0 34 -115 34q95 68 161 131l39 -20q27 -20 52 -20q18 0 18 20v3h-1q0 20 -38 36q-38 17 -154 20q37 37 116 37q91 0 118 -27q35 -30 35 -66q0 -83 -77 -83
q-69 0 -93 23l-22 -20q38 -16 38 -68v-409q0 -102 -231 -102q-230 0 -230 102q0 69 -154 69t-154 -69v-19h19q19 0 19 -24zM-819 -136q-154 -1 -154 -103v-102q21 0 38 -0.5t28.5 -4t17 -12t5.5 -24.5q0 -20 -5.5 -32.5t-17 -22t-28.5 -18.5t-38 -22h-77v238q0 171 231 171
t231 -171v-239h-77v239q0 103 -154 103z" />
    <glyph glyph-name="uni17a7.sub" 
d="M-350 -716v87q-147 -121 -399 -121q-301 0 -301 133q0 45 72 75l533 170q48 17 71.5 54t23.5 95q0 106 -300 106q-299 0 -299 -106q0 -100 171 -100q-21 14 -22 34q1 66 101 66q99 0 99 -66q0 -33 -41 -64q-50 -36 -137 -36q-272 0 -272 166q0 173 400 173t400 -173
q0 -80 -36.5 -133t-112.5 -77l-551 -175v-9q1 -66 200 -66q252 0 400 166v34h1h1l98 33v-33h1v-233l-51 -34h-100z" />
    <glyph glyph-name="uni17a8.sub" 
d="M-300 -756h-100l50 34v57q-149 -91 -400 -91q-300 0 -300 131q0 59 67 67l315 39q315 38 315 102t-297 64q-207 0 -270 -35q70 -6 70 -49q0 -51 -100 -51t-100 68q0 134 400 134t400 -134q0 -65 -85.5 -103.5t-262.5 -59.5l-349 -42q0 -64 197 -64q267 0 400 108v14h101
v-155zM-1079 -252h-71l300 202l200 -113l200 113l300 -202h-71q-71 0 -111 27l-118 78l-200 -105l-200 107l-109 -73q-50 -34 -120 -34z" />
    <glyph glyph-name="uni17a9.sub" 
d="M-401 -716v83q-137 -117 -348 -117q-301 0 -301 133q0 45 72 75l533 170q48 17 71.5 54t23.5 95q0 106 -300 106q-299 0 -299 -106q0 -100 171 -100q-21 14 -22 34q1 66 101 66q99 0 99 -66q0 -33 -41 -64q-50 -36 -137 -36q-272 0 -272 166q0 173 400 173t400 -173
q0 -80 -36.5 -133t-112.5 -77l-551 -175v-9q1 -66 200 -66q251 0 350 166v34h2l98 33v-266l-51 -34h-100zM-200 -716v233l101 34v-267l-51 -34h-100z" />
    <glyph glyph-name="uni17aa.sub" 
d="M-500 -268q-70 0 -133 13t-117 41l-100 54l-109 -74q39 -23 39 -55v-6q0 -5 -1 -6q86 25 271 25q400 0 400 -135q0 -66 -85.5 -105t-262.5 -60l-349 -42q0 -65 197 -65q267 0 400 109v14h101v-156l-51 -35h-100l50 35v57q-149 -92 -400 -92q-300 0 -300 133q0 59 67 67
l315 39q315 39 315 104q0 64 -297 64q-207 0 -270 -34q70 -7 70 -51q0 -51 -100 -51t-100 68q0 50 54 82q-28 62 -154 62l300 204l175 -100q34 -19 77.5 -27.5t97.5 -8.5q150 0 150 40q0 34 -50 58t-200 44q49 48 101 48q101 0 174 -48q75 -48 75 -102q0 -108 -250 -108z
" />
    <glyph glyph-name="uni17ab.sub" 
d="M-750 -751q-300 0 -399 86q150 -20 400 -20q391 0 399 147q-101 -41 -300 -41q-400 0 -400 165v99q0 67 -200 67q174 97 260 198l70 -33q69 -32 170 -33q-49 -66 -100 -66t-121 33l-79 -66q100 -33 100 -100v-99q0 -99 300 -99q292 0 300 95v103q0 67 -200 67
q175 97 250 198l75 -33q72 -32 175 -33q-49 -66 -100 -66q-49 0 -120 33l-80 -66q100 -33 100 -100v-218q0 -218 -500 -218z" />
    <glyph glyph-name="uni17ac.sub" 
d="M-19 -670q-61 -23 -115 -23q-22 0 -41 4q-69 14 -93 43l-13 17q-95 -122 -469 -122q-300 0 -399 86q150 -20 400 -20q385 0 395 146q-101 -40 -296 -40q-400 0 -400 165v99q0 67 -200 67q174 97 260 198l70 -33q69 -32 170 -33q-49 -66 -100 -66t-121 33l-79 -66
q100 -33 100 -100v-99q0 -99 300 -99t300 99v99q0 67 -200 67q175 97 250 198l75 -33q72 -32 175 -33q-49 -66 -100 -66q-49 0 -120 33l-80 -66q100 -33 100 -100v-211l71 -88q25 -30 160 -56z" />
    <glyph glyph-name="uni17ad.sub" 
d="M-450 -116q-12 0 -50 -25l-150 -100l-150 99q-38 26 -50 26q-100 -20 -100 -132v-67h50q69 0 111 -33q24 -19 24 -47q0 -23 -10 -35q-25 -50 -175 -116h-100v298q0 165 200 198q50 0 100 -33l100 -66l100 66q50 33 100 33q200 -33 200 -198v-285q0 -218 -500 -218
q-300 0 -399 86q150 -20 400 -20q399 0 399 152v285q0 113 -100 132zM-870 -414q6 9 6 16q0 17 -36 17h-50v-99q60 33 80 66z" />
    <glyph glyph-name="uni17ae.sub" 
d="M-19 -667q-61 -22 -115 -22q-22 0 -41 4q-69 14 -93 43l-13 17q-95 -122 -469 -122q-300 0 -399 85q150 -19 400 -19q386 0 399 140l-6 7l6 7v280q0 113 -100 131q-12 0 -50 -25l-150 -99l-150 99q-38 25 -50 25q-100 -19 -100 -131v-66h50q69 0 111 -33q24 -19 24 -47
q0 -23 -10 -35q-25 -49 -175 -115h-100v296q0 164 200 197q50 0 100 -33l100 -66l100 66q50 33 100 33q200 -33 200 -197v-276l71 -88q25 -29 160 -56zM-870 -412q6 9 6 16q0 17 -36 17h-50v-98q60 32 80 65z" />
    <glyph glyph-name="uni17af.sub" 
d="M-650 -546l-300 -204h-100v273h-50q-50 0 -50 34t50 68l50 34h100v-314l300 205l300 -205v313q0 34 -74 86q-74 51 -175 51q-98 0 -351 -34h-99v68q0 25 25 46q24 21 24 44q0 13 -51 13q-49 0 -49 34t49 34q151 0 151 -81q0 -31 -24 -52q-25 -21 -25 -38q100 18 187 26.5
t163 8.5q150 0 250 -69q99 -69 99 -137v-409h-100z" />
    <glyph glyph-name="uni17b0.sub" 
d="M-700 -751q-153 0 -298 47q-50 25 -50 56v32l698 130v192q0 111 -100 129q-12 0 -50 -24l-150 -97l-150 96q-38 25 -50 25q-100 -19 -100 -129h50q69 0 111 -32q24 -19 24 -46q0 -22 -10 -34q-25 -49 -175 -113h-100v225q0 162 200 194q50 0 100 -32l100 -65l100 65
q50 32 100 32q200 -32 200 -194v-263q0 -101 -82 -139q-40 -21 -88 -21q-19 0 -63 9l-56 15l-23 -26q-38 -32 -138 -32zM-700 -686q38 0 66 17.5t52 54.5l13 24l-332 -62q118 -34 201 -34zM-449 -648q99 0 99 88v10l-218 -40l28 -20q57 -38 91 -38zM-870 -390q6 8 6 15
q0 17 -36 17h-50v-97q60 32 80 65z" />
    <glyph glyph-name="uni17b1.sub" 
d="M-350 -717v56q-149 -90 -400 -90q-300 0 -300 130q0 58 67 66l315 39q315 38 315 101q0 64 -297 64q-207 0 -270 -34q70 -7 70 -50q0 -50 -100 -50t-100 67q0 133 400 133t400 -133q0 -64 -85.5 -102.5t-262.5 -59.5l-349 -41q0 -63 197 -63q267 0 400 106v14h101v-153
l-51 -34h-100zM-401 -216q-51 51 -219 84q-31 6 -58.5 8.5t-52.5 2.5q-89 0 -143 -36l-85 -56q39 -22 39 -54q0 -20 -10 -33l-60 -33q-10 86 -160 86l200 134q92 61 230 61q77 0 145 -14q176 -34 275 -117l100 -84h-75q-75 0 -126 51z" />
    <glyph glyph-name="uni17b2.sub" 
d="M-250 -617q0 -134 -400 -134t-400 167v367q0 167 400 167t400 -134q-26 -8 -50 -8q-26 0 -50 8q0 67 -299 67q-300 0 -300 -100v-367q0 -100 300 -100q299 0 299 67q0 66 -101 66q-102 0 -124 -12l-75 -41q-81 0 -81 35q0 2 1.5 7t3.5 12l275 147q101 54 101 86
q0 33 -150 33t-150 -33t99 -33q25 -17 25 -34t-25 -33q-198 0 -198 100t250 100q249 0 249 -100q0 -73 -124 -140l-77 -40q201 0 201 -120z" />
    <glyph glyph-name="uni17b3.sub" 
d="M-350 -716v57q-149 -92 -400 -92q-300 0 -300 133q0 60 67 68l315 39q315 39 315 104t-297 65q-207 0 -270 -35q70 -7 70 -50q0 -52 -100 -52t-100 69q0 136 400 136t400 -136q0 -66 -85.5 -105t-262.5 -61l-349 -42q0 -65 197 -65q267 0 400 110v14h101v-157l-51 -35
h-100zM-350 -34l-50 34q100 0 150 -34t50 -68v-153h-75q-75 0 -126 52q-51 51 -219 86q-31 6 -58.5 8.5t-52.5 2.5q-89 0 -143 -37l-85 -58q39 -22 39 -54q0 -22 -10 -34l-60 -35q-10 89 -160 89l200 137q92 62 230 62q77 0 145 -14q176 -35 275 -120v68q0 34 -50 68z" />
    <glyph glyph-name="uni1780.a" horiz-adv-x="2325" 
d="M976 268v429l-144 105q-48 34 -100 34l-80 -11l-76 -41v-524q0 -26 32 -45l32 -4q-12 -56 -70 -127.5t-122 -71.5q-24 4 -68 45l-112 113l-12 19l20 41q12 12 16 21t8 17v497l216 146q156 91 312 91q128 0 248 -91l172 -146v-505q0 -26 32 -45l32 -4q-12 -56 -70 -127.5
t-118 -71.5q-28 4 -56 26l-128 132l-12 19l24 38q24 22 24 41zM1266 1397q8 4 17 0h680q42 0 59 -34t17 -95v-1013q0 -27 23 -46l23 -4q-9 -57 -50 -129t-87 -72q-17 4 -48 46l-80 113l-8 19l14 42q8 12 11 21.5t6 16.5v790q0 68 -104 100l-105 8q-208 0 -251 2l-141 -2
q-32 0 -70 -47t-58 -51l-20 30q-32 68 -64 68h-562q-36 0 -36 -38q4 -7 14 -18.5t22 -18.5l76 -15q-8 -31 -40 -83l-44 -64q-76 11 -120 35.5t-80 62.5l68 154l80 222h654q20 0 44 -34l40 -64q4 4 14 9.5t44 43t70 45.5h-8z" />
    <glyph glyph-name="uni1781.a" horiz-adv-x="2325" 
d="M1117 1256l5 42l29 57q23 34 48 34h680q42 0 59 -36t17 -97v-1013q0 -27 23 -46l23 -4q-9 -57 -50 -129t-87 -72q-17 4 -48 46l-80 113l-8 19l14 42q8 12 11 21.5t6 16.5v790q0 68 -104 100l-105 17q-208 3 -251 -7h-122q-11 0 -20 -3q55 -173 55 -264
q-7 -49 -116 -111.5t-237 -104.5t-217 -95q-144 -80 -155 -172q0 -57 79.5 -125.5t120.5 -68.5q44 0 100 31l125 68l89 61q60 46 85 76l37 80l30 91q30 -45 41 -89t14.5 -68.5t7.5 -58.5q0 -84 -19 -122q-11 -27 -81 -80l-118 -87l-104 -58l-122 -49q-67 0 -145 42l-129 87
q-89 73 -133 130q-56 68 -67 133q0 122 41 194q26 49 109 110t288.5 144.5t246.5 114t41 76.5l-8 38q-4 19 -33.5 51.5t-81.5 35.5h-373q-34 0 -45 -57t-13 -68.5t-13 -22.5q-33 0 -86.5 82t-53.5 173q0 38 31 83.5t91 49.5h562q53 0 116 -141z" />
    <glyph glyph-name="uni1782.a" horiz-adv-x="2325" 
d="M1266 1397q8 4 17 0h680q42 0 59 -34t17 -95v-1013q0 -27 23 -46l23 -4q-9 -57 -50 -129t-87 -72q-17 4 -48 46l-80 113l-8 19l14 42q8 12 11 21.5t6 16.5v790q0 68 -104 100l-105 8q-208 0 -251 2l-141 -2q-32 0 -70 -47t-58 -51l-20 30q-32 68 -64 68h-562
q-36 0 -36 -38q4 -7 14 -18.5t22 -18.5l76 -15q-8 -31 -40 -83l-44 -64q-76 11 -120 35.5t-80 62.5l68 154l80 222h654q20 0 44 -34l40 -64q4 4 14 9.5t44 43t70 45.5h-8zM972 258v433l-141 106q-47 34 -98 34l-78 -11l-74 -42v-497l74 133q43 57 109 64q51 0 84.5 -49
t33.5 -156q0 -53 -59 -117q-35 -35 -109 -69q0 137 -36 137q-39 -23 -54 -46l-75 -117q-43 -61 -93 -61q-36 0 -86 61l-90 98l-12 19l20 42q11 12 15 21.5t8 16.5v501l211 148q153 91 305 91q125 0 242 -91l168 -148v-508q0 -27 32 -46l31 -4q-12 -57 -68.5 -129t-115.5 -72
q-27 4 -54 27l-126 132l-11 19l23 38q24 23 24 42z" />
    <glyph glyph-name="uni1783.a" horiz-adv-x="3100" 
d="M2041 1392h680q42 0 59 -37.5t17 -98.5v-1013q0 -27 23 -46l23 -4q-9 -57 -50 -129t-87 -72q-17 4 -48 46l-80 113l-8 19l14 42q8 12 11 21.5t6 16.5v790q0 68 -104 100l-105 17q-208 0 -251 -1l-408 2q-70 0 -74 -61l8 -23l155 -220l113 -163q81 -137 81 -285l-11 -87
q-47 -156 -206 -247q-140 -72 -322 -72q-89 0 -159 23l-132 68q-70 -45 -166.5 -68t-197.5 -23q-163 0 -353 129l-155 110v520l159 209l15 49q0 50 -50 103l-78 64l-31 8q-46 0 -66 -57q0 -23 47 -87q38 -46 85 -76q-8 -46 -52.5 -89.5t-75.5 -51.5q-31 0 -91 55t-68 116
q0 156 93 255l109 94q66 46 120 46q62 0 167 -118l81 -110q23 -30 23 -68l-11 -49l-35 -57l-51 -69q-15 -26 -27 -87v-607l105 -61q50 -19 109 -27q89 0 159 34q62 38 104.5 101t42.5 142l-12 84q-11 49 -38 100.5t-58.5 102.5t-65.5 97l-121 155l93 198l90 239h387
q28 -8 28 -133q-12 -57 -54.5 -129t-73.5 -76l-31 49q-24 46 -51 50h-108q-28 0 -51 -19q-23 -12 -23 -38q0 -27 8 -34l147 -201q74 -95 114.5 -169t64 -146.5t23.5 -148.5l-12 -83q-23 -76 -58 -129l43 -23q54 -23 108 -23q89 0 128 19q78 31 140 122q35 53 35 133
q0 91 -47 182q-27 57 -58 108t-66 97l-124 155l93 186q66 149 93 251h388q7 -1 13 -5z" />
    <glyph glyph-name="uni1784.a" horiz-adv-x="2325" 
d="M715 929q-28 -31 -103 -66q-57 -19 -117 -27q-43 12 -103 78q-50 66 -71 136q0 48 73 180.5t73 195.5q-22 51 -68 80t-103 37q39 82 90.5 140.5t101.5 62.5q92 -27 146 -105q28 -55 35 -118q0 -63 -78 -187q-71 -125 -78 -191l32 -75l46 -70q64 -59 124 -71zM1163 1161
v-21q-3 -27 -71 -78q-53 -34 -124 -54q0 121 -12.5 162t-44.5 52q-53 0 -53 -70q0 -58 78 -160l163 -199q153 -180 153 -340q0 -70 -39 -160q-32 -94 -64 -140q-43 -71 -89 -110q-32 -28 -75 -43q-42 0 -141.5 93.5t-128.5 93.5q-25 -23 -35 -39l-39 -51l-68 -78
q-14 -11 -64 -19q-57 0 -90.5 31.5t-97.5 124.5l-7 28q0 31 62 152t69 176q-7 31 -44 56.5t-80 32.5q0 47 75 129q46 48 92 51q39 0 80 -37t62 -99l7 -48q0 -70 -74 -187l-75 -102q0 -19 32 -51q28 -19 67 -27q11 5 71 106q54 101 86 105q42 0 99 -50l139 -141q35 0 69 25.5
t34 76.5l-11 58q-35 78 -103 168l-121 157l-113 155q-12 20 -22 39q-39 74 -39 130q0 78 107 222.5t167 156.5q92 0 153 -72q13 -17 24 -38l20 39q23 34 48 34h680q42 0 59 -36t17 -97v-1013q0 -27 23 -46l23 -4q-9 -57 -50 -129t-87 -72q-17 4 -48 46l-80 113l-8 19l14 42
q8 12 11 21.5t6 16.5v790q0 68 -104 100l-105 17q-208 3 -251 -7h-122q-5 0 -10 -1z" />
    <glyph glyph-name="uni1785.a" horiz-adv-x="2325" 
d="M1255 1385q8 4 17 4h680q42 0 59 -36t17 -97v-1013q0 -27 23 -46l23 -4q-9 -57 -50 -129t-87 -72q-17 4 -48 46l-80 113l-8 19l14 42q8 12 11 21.5t6 16.5v790q0 68 -104 100l-105 9q-208 -1 -251 1l-136 -2q-31 0 -67.5 -47t-55.5 -51l-19 30q-31 68 -62 68h-610
q-58 0 -58 -83q4 -41 92 -98l69 -45l77 -30v-662l69 -49l84 -15q58 0 127 56l103 87v237l-11 26l-12 11l-15 4q-19 4 -23 8q0 26 31 67l38 49q65 83 115 83q31 0 81 -39.5t57 -80.5v-437l-119 -105q-142 -132 -283 -132q-139 0 -296 90l-207 147v576q-38 11 -90 58t-71 81
l92 196l88 237h703q19 0 42 -34l39 -64q4 4 13.5 9.5t42 43t66.5 45.5h-11z" />
    <glyph glyph-name="uni1786.a" horiz-adv-x="2325" 
d="M1004 270q73 11 73 117q0 34 -25.5 76t-58.5 76l-92 61q-59 34 -128 53l47 83q59 92 114 99q81 0 161 -61q59 -45 105 -117t46 -171q0 -122 -77 -266q-59 -102 -103 -148q-70 -72 -147 -72q-58 11 -84 30l-88 114l-55 84q-25 42 -88 98q37 61 86.5 93.5t107.5 32.5
q30 -12 140 -129q40 -46 66 -53zM1218 1158q-29 0 -64 -47.5t-53 -51.5l-19 31q-29 68 -58 68h-599q-55 0 -55 -84q3 -41 88 -98l66 -46l73 -30v-668q0 -23 13 -46t20 -53q-11 -57 -73.5 -95t-124.5 -38q-117 0 -196 89t-79 215q0 76 38.5 165t78.5 89q8 -11 17 -24.5
t18 -45.5t17 -112q-55 -46 -55 -129l7 -50q18 -34 55 -45l15 23v645q-37 11 -86.5 58.5t-67.5 81.5l88 198l84 239h687q18 0 40 -34l37 -65q4 4 13 9.5t40 43.5t64 46h-12q7 -1 12 -1h663q42 0 59 -39.5t17 -100.5v-1013q0 -27 23 -46l23 -4q-9 -57 -50 -129t-87 -72
q-17 4 -48 46l-80 113l-8 19l14 42q8 12 11 21.5t6 16.5v790q0 68 -104 100l-105 15h-251z" />
    <glyph glyph-name="uni1787.a" horiz-adv-x="2325" 
d="M1185 1360q22 29 45 29h680q42 0 59 -36t17 -97v-1013q0 -27 23 -46l23 -4q-9 -57 -50 -129t-87 -72q-17 4 -48 46l-80 113l-8 19l14 42q8 12 11 21.5t6 16.5v790q0 68 -104 100l-105 15q-208 3 -251 -5h-122q-9 0 -16 -2q-34 -65 -114 -151q-103 -112 -178 -131
q-71 0 -182 60l-131 90l16 37l16 53q0 48 -68 48h-138q-68 0 -68 -82q4 -41 95 -97l72 -45l79 -30v-633q16 -19 28 -19q19 7 95 124q31 52 63 63q44 0 87 -30l83 -52l20 -8l20 38v172l-12 26l-12 11l-16 4q-19 4 -23 8q0 26 31 67l40 49q67 82 119 82q31 0 82.5 -39
t59.5 -81v-423q12 -26 22 -33.5t14 -18.5t8 -15l-8 -23q-28 -45 -77.5 -91.5t-100.5 -65.5q-40 0 -87 22l-91 64l-88 75q-51 41 -83 49q-28 -15 -43 -30l-48 -60l-87 -90q-32 -23 -83 -30q-48 0 -115 56l-103 101l-12 19l24 37q23 23 23 42v554q-39 11 -92.5 58t-73.5 81
l95 194l91 236h313q56 0 83 -60l16 -78q-4 -53 -24 -83l100 -71q47 -22 107 -30q43 11 59 68q0 59 -32 108q-16 26 -43.5 63.5t-63.5 78.5l-63 94q-20 49 -20 112q20 38 81.5 94t108.5 60q0 -56 48 -135q31 -56 87 -112q58 -65 87 -139z" />
    <glyph glyph-name="uni1788.a" horiz-adv-x="3875" 
d="M2830 1407h680q42 0 59 -45t17 -106v-1013q0 -27 23 -46l23 -4q-9 -57 -50 -129t-87 -72q-17 4 -48 46l-80 113l-8 19l14 42q8 12 11 21.5t6 16.5v790q0 68 -104 100l-105 27q-208 3 -251 1h-423q-28 0 -52 -19q-24 -12 -24 -39l8 -26l149 -211l125 -176
q40 -69 64.5 -142t24.5 -149l-12 -84q-49 -157 -214 -249q-153 -73 -339 -73q-89 0 -153.5 21t-148.5 71q-81 -46 -178 -69t-198 -23q-165 0 -367 130l-165 111v816q0 65 -22 88t-79 23h-492q-60 0 -60 -84q4 -43 96 -100l73 -46l81 -31v-704q96 46 109 122q0 39 -25 81
l-52 57q8 39 18 62t38 65q45 65 81 76q32 0 76.5 -57.5t56.5 -118.5q0 -126 -60 -237q-33 -54 -113 -134q-49 -50 -107.5 -84.5t-126.5 -34.5q-28 0 -61 27l-145 134l-12 19l24 38q24 23 24 42v567q-40 12 -94.5 59.5t-74.5 82.5l97 199l93 241h806q125 0 125 -134v-1041
l109 -62q57 -19 117 -27q93 0 133 20q81 30 145 122q37 54 37 134q0 92 -49 184q-28 57 -60 109t-69 98l-129 157l97 187q69 150 97 253h403q24 -4 32 -69l-8 -65q-12 -57 -56 -130t-77 -77l-28 50q-24 46 -56 50h-113q-73 0 -77 -61l8 -23l77 -111q80 -104 101 -131
q52 -69 100 -145q85 -138 85 -287l-12 -88l-16 -54q-12 -46 -45 -77l45 -23q56 -23 113 -23q93 0 133 20q81 30 145 122q40 65 40 138l-12 84q-12 50 -40 101.5t-60.5 103.5t-68.5 98l-125 157l97 199l92 241h404q12 -2 20 -2z" />
    <glyph glyph-name="uni1789.a" horiz-adv-x="3100" 
d="M685 -391l-117 41q-99 29 -267 29q59 98 108.5 127t127.5 29q138 0 354 -80l522 -191q117 0 186 25.5t89 66.5q0 29 -54.5 65.5t-137.5 46.5q24 35 44.5 57.5t54.5 41.5q57 31 147 31q74 0 177 -76q92 -80 92 -153q0 -44 -88 -99l-162 -70l-250 -82q-75 -20 -153 -20
q-127 0 -309 71zM1992 1368q19 21 38 21h680q42 0 59 -36t17 -97v-1013q0 -27 23 -46l23 -4q-9 -57 -50 -129t-87 -72q-17 4 -48 46l-80 113l-8 19l14 42q8 12 11 21.5t6 16.5v790q0 68 -104 100l-105 15q-208 3 -251 -5h-115v-897q0 -27 34 -46l34 -4q-13 -58 -74.5 -130.5
t-125.5 -72.5q-30 4 -60 27l-136 134l-13 19l26 38q25 23 25 42v797q0 61 -15 86t-74 25h-162q-21 0 -49 -29t-62 -48v-838l9 -27l25 -19l34 -4q-12 -73 -69.5 -134t-130.5 -69q-25 4 -72 46l-120 115l-12 19l21 42q13 12 17 21.5t8 16.5v797q0 65 -12.5 88t-76.5 23h-94
q-34 0 -74.5 -48t-61.5 -52l-21 31q-34 69 -68 69h-218q-64 0 -64 -84q5 -43 103 -100l76 -46l86 -31v-704q102 46 115 122q0 39 -26 81l-55 57q8 39 18.5 62t40.5 65q47 65 85 76q35 0 81.5 -57.5t59.5 -118.5q0 -126 -64 -237q-34 -54 -119 -134q-51 -50 -113 -84.5
t-134 -34.5q-30 0 -64 27l-153 134l-13 19l25 38q26 23 26 42v567q-43 12 -100.5 59.5t-78.5 82.5l102 199l98 241h341q21 0 47 -34l42 -66q5 4 15.5 10t46.5 44t75 46h306q56 0 90 -46l30 -54q4 4 14.5 10t47 44t74.5 46h396q60 0 86 -36q1 -3 2 -5z" />
    <glyph glyph-name="uni178a.a" horiz-adv-x="2325" 
d="M322 265v401q0 19 -23 43l-35 11q0 27 27 70l39 51l66 62l51 20q35 0 85.5 -37t58.5 -88v-533q16 -20 27 -20q20 8 66.5 91.5t89.5 103.5q39 0 97 -35l67 -51l19 -8q12 12 16 22t7 17v281q0 19 -27 43l-35 11l16 47q19 39 54 74q62 82 113 82q35 0 85.5 -37t58.5 -88
v-541q12 -27 21.5 -35t13.5 -19.5t8 -15.5l-8 -23q-27 -47 -75.5 -96t-103.5 -68q-35 0 -83.5 25.5t-87.5 64.5l-86 77q-50 43 -86 51q-27 -19 -42 -35l-47 -58q-47 -67 -78 -92t-86 -33q-46 0 -113 58l-101 106l-11 19l19 43q12 11 16 21t7 18zM1225 1389h685q42 0 59 -36
t17 -97v-1013q0 -27 23 -46l23 -4q-9 -57 -50 -129t-87 -72q-17 4 -48 46l-80 113l-8 19l14 42q8 12 11 21.5t6 16.5v790q0 68 -104 100l-105 15q-208 3 -251 -5h-122q-57 -97 -208 -149q-129 -47 -265 -47q-132 0 -282 70t-150 163q0 47 58.5 132.5t101.5 105.5l54 12
q62 0 113 -29.5t78 -79.5q0 -32 -39 -74.5t-74 -62.5l-55 51q-19 12 -54 19l-31 -15l-20 -31q0 -28 51 -63l121 -50l101 -20q105 0 175 24q94 35 105 113q0 73 -37 122t-99 84l62 74q59 58 129 66q43 0 123 -85q39 -43 59 -91z" />
    <glyph glyph-name="uni178b.a" horiz-adv-x="2325" 
d="M1484 1389h626q42 0 59 -36t17 -97v-1013q0 -27 23 -46l23 -4q-9 -57 -50 -129t-87 -72q-17 4 -48 46l-80 113l-8 19l14 42q8 12 11 21.5t6 16.5v790q0 68 -104 100l-105 13q-208 3 -251 -3h-116q-9 -20 -19 -43q-65 -142 -129 -176q-51 0 -107 28.5t-66 50.5l13 53
l14 65q0 34 -44 38h-68q-24 0 -44 -19q-21 -12 -21 -38q0 -8 2 -15.5t5 -11.5q24 -53 95 -159l136 -223q34 -68 54 -139.5t20 -147.5l-10 -83q-34 -159 -159.5 -238.5t-305.5 -79.5q-142 0 -308 129l-136 109v537q44 72 88 118l54 68l14 49q0 53 -44 106q-14 19 -71 64
l-28 8q-40 0 -57 -57q0 -23 40 -87q34 -46 75 -76q-7 -45 -46 -88.5t-66 -51.5q-27 0 -79.5 55t-59.5 115q0 156 81 254l95 94q58 46 106 46q54 0 132 -83q64 -68 115 -152q21 -34 21 -64q0 -23 -21 -57l-30 -41l-51 -68q-17 -23 -25.5 -51.5t-11.5 -39.5v-605l91 -61
q44 -19 95 -26q78 0 139 34q55 38 92 100t37 142l-10 83q-10 49 -34 100t-51 102t-57 97l-106 155l82 197l78 238h231q27 0 52.5 -34t28.5 -91l-20 -68l-14 -53q10 -38 88 -38l38 72l20 57l6 49l3 6q-6 100 -60 160q-34 34 -118.5 57t-173.5 23l-122 -12q10 46 18.5 74.5
t34 89t52.5 71.5l75 11l58 4q95 0 183 -36t139 -106t51 -164l-7 -76z" />
    <glyph glyph-name="uni178c.a" horiz-adv-x="2325" 
d="M1167 1325l15 30q23 34 48 34h680q42 0 59 -36t17 -97v-1013q0 -27 23 -46l23 -4q-9 -57 -50 -129t-87 -72q-17 4 -48 46l-80 113l-8 19l14 42q8 12 11 21.5t6 16.5v790q0 68 -104 100l-105 15q-208 3 -251 -5h-85q19 -81 19 -179q0 -153 -189 -268l-489 -254l-11 -34
q0 -33 37 -85q40 -45 76 -68l29 -7q48 0 124 63l131 123l106 109q73 67 124 74q33 -11 47 -52l15 -89v-460q0 -36 -51 -77.5t-80 -41.5q-22 0 -44 23l-44 52l-40 56l-25 67l40 11q14 22 14 37v142q-3 26 -18 30l-182 -175q-87 -79 -171 -116l-40 -8q-153 0 -299 295l-15 38
l-3 37q0 52 54 108l131 82l266 116q161 67 223 134q36 38 36 135q0 123 -69 183l-22 7l-14 8q-33 0 -88 -58t-95 -66q-40 0 -94.5 58t-83.5 66q-22 0 -40 -15q-44 -45 -48 -97q11 -34 69.5 -80.5t138.5 -46.5q-11 -64 -47.5 -114.5t-76.5 -61.5q-87 0 -165.5 84t-78.5 181
q22 97 98 228q95 153 179 153q91 0 147.5 -69t78.5 -69q22 11 36.5 22t50.5 45q70 64 132 71q84 0 143 -72z" />
    <glyph glyph-name="uni178d.a" horiz-adv-x="3100" 
d="M937 406v651q0 65 -11 88t-65 23h-79q-29 0 -63.5 -48t-52.5 -52l-18 31q-29 69 -58 69h-184q-54 0 -54 -84q4 -43 87 -100l65 -46l72 -31v-704q87 46 97 122q0 39 -21 81l-47 57q11 58 47 125t68 71q29 0 65 -54t47 -119q0 -134 -47 -233q-32 -69 -90 -130.5t-105 -92
t-108 -30.5q-25 0 -54 27l-130 134l-11 19l22 38q22 23 22 42v567q-37 12 -85.5 59.5t-66.5 82.5l87 199l83 241h288q18 0 40 -34l36 -66q4 4 13 10t39.5 44t63.5 46h259q51 0 72.5 -36.5t21.5 -97.5v-1022l4 -35l14 -34q0 -31 -39.5 -103.5t-90.5 -80.5q-54 11 -119 77
q-83 76 -83 153q0 27 47 115q22 42 22 61zM2049 1407h661q42 0 59 -45t17 -106v-1013q0 -27 23 -46l23 -4q-9 -57 -50 -129t-87 -72q-17 4 -48 46l-80 113l-8 19l14 42q8 12 11 21.5t6 16.5v790q0 68 -104 100l-105 31q-208 3 -251 -3h-374q-25 0 -47 -19q-22 -12 -22 -39
q0 -7 2 -15t6 -11l140 -211l105 -176q36 -69 57.5 -142t21.5 -149l-11 -84q-43 -157 -173 -245q-133 -77 -324 -77q-83 0 -173.5 61.5t-90.5 122.5l47 84q29 50 29 88q0 27 -36 50l-105 50q22 53 67 110.5t70 57.5q51 0 109 -65q54 -54 61 -119q-7 -53 -61 -138l-51 -95
q18 -27 32 -35l62 -15q108 0 164 28.5t103 101.5q32 54 32 130q0 46 -10.5 94t-39.5 102q-43 88 -108 191q-22 35 -54.5 82.5t-61.5 82.5l87 187q61 150 86 253h361q11 -2 19 -2z" />
    <glyph glyph-name="uni178e.a" horiz-adv-x="3875" 
d="M2779 1348l3 7q23 34 49 48h679q42 0 59 -43t17 -104v-1013q0 -27 23 -46l23 -4q-9 -57 -50 -129t-87 -72q-17 4 -48 46l-80 113l-8 19l14 42q8 12 11 21.5t6 16.5v790q0 68 -104 100l-105 15q-208 3 -250 -5h-123q-5 0 -9 -1v-898l8 -27l25 -19l34 -4q-13 -57 -74 -129
t-124 -72q-30 4 -59 27l-135 132l-9 19l21 42q13 12 17 21.5t9 16.5v790q0 64 -23.5 87t-82.5 23h-515q-63 0 -63 -84q4 -41 101 -98l76 -46l85 -30v-649q12 -27 23 -34.5t15 -19t8 -15.5l-8 -23q-21 -34 -89 -94q-50 -46 -105 -65q-34 0 -80 15l-110 72l-97 80
q-51 42 -85 46l-42 -23l-55 -69q-42 -56 -82 -84.5t-99 -36.5q-38 0 -97 46l-131 113l-12 19l21 42q12 12 16.5 21.5t8.5 16.5v790q0 49 -13 72q-25 34 -93 38h-514q-64 0 -64 -84q5 -41 102 -98l76 -46l84 -30v-699q101 46 114 122q0 38 -25 79l-55 57q8 38 18.5 61
t40.5 65q46 64 84 76q34 0 80.5 -57t58.5 -118q0 -125 -63 -235q-34 -54 -118 -133q-51 -50 -112 -84t-133 -34q-29 0 -63 27l-152 132l-12 19l25 38q25 23 25 42v562q-42 11 -99 58.5t-78 81.5l101 198l97 239h844q131 0 131 -133v-1006q17 -19 29 -19l102 125q38 54 71 65
q42 0 106 -34l71 -50l22 -7l21 38v444q-34 11 -97 61l-81 79l102 186q71 149 101 251h844q79 0 111 -49z" />
    <glyph glyph-name="uni178f.a" horiz-adv-x="2325" 
d="M1266 1397q8 4 17 0h680q42 0 59 -34t17 -95v-1013q0 -27 23 -46l23 -4q-9 -57 -50 -129t-87 -72q-17 4 -48 46l-80 113l-8 19l14 42q8 12 11 21.5t6 16.5v790q0 68 -104 100l-105 8q-208 0 -251 1l-141 -1q-32 0 -70 -47t-58 -51l-20 30q-32 68 -64 68h-562
q-36 0 -36 -38q4 -7 14 -18.5t22 -18.5l76 -15q-8 -31 -40 -83l-44 -64q-76 11 -120 35.5t-80 62.5l68 154l80 222h654q20 0 44 -34l40 -64q4 4 14 9.5t44 43t70 45.5h-8zM584 778v-577q95 46 107 122q0 26 -19.5 68t-55.5 68q8 38 18 61t37 65q44 64 79 76q32 0 77.5 -59
t49.5 -116q0 -125 -59 -235q-24 -50 -107 -133q-48 -50 -111 -88q-24 -15 -51.5 -22.5t-70.5 -7.5q-32 0 -79 46l-119 113l-12 19l20 42q12 12 16 21.5t8 16.5v501l213 148q154 91 309 91q126 0 245 -91l170 -148v-508q0 -27 31 -46l32 -4q-12 -57 -69.5 -129t-116.5 -72
q-28 4 -55 27l-127 132l-12 19l24 38q24 23 24 42v433l-143 106q-47 34 -98 34l-79 -11z" />
    <glyph glyph-name="uni1790.a" horiz-adv-x="2325" 
d="M1187 1362q21 27 44 27h679q42 0 59 -36t17 -97v-1013q0 -27 23 -46l23 -4q-9 -57 -50 -129t-87 -72q-17 4 -48 46l-80 113l-8 19l14 42q8 12 11 21.5t6 16.5v790q0 68 -104 100l-105 17q-208 3 -250 -7h-123q-19 0 -33 -9q-34 -58 -101 -130q-102 -114 -177 -133
q-71 0 -182 60l-130 92l16 38l16 53q0 49 -67 49h-139q-67 0 -67 -83q4 -42 95 -99l71 -46l79 -30v-668l71 -50l87 -15q59 0 130 57l107 87v240l-12 26l-12 12l-16 3q-20 4 -23 8q0 27 31 68l40 50q67 83 118 83q32 0 83 -40t59 -81v-441l-122 -106q-146 -133 -292 -133
q-142 0 -304 91l-213 148v581q-40 12 -93 59t-73 82l95 197l90 239h312q55 0 83 -60l16 -80q-4 -53 -24 -84l99 -72q47 -23 106 -30q44 11 60 68q0 61 -32 110q-16 27 -43.5 65t-63.5 79l-63 95q-19 50 -19 114q19 38 80.5 95t108.5 61q0 -57 47 -137q32 -57 87 -114
q65 -73 93 -157z" />
    <glyph glyph-name="uni1791.a" horiz-adv-x="2325" 
d="M1181 1353l1 2q23 34 49 34h679q42 0 59 -36t17 -97v-1013q0 -27 23 -46l23 -4q-9 -57 -50 -129t-87 -72q-17 4 -48 46l-80 113l-8 19l14 42q8 12 11 21.5t6 16.5v790q0 68 -104 100l-105 17q-208 3 -250 -7h-123q-16 0 -28 -6q-8 -21 -20 -42q-39 -80 -78 -80l-17 72
q-9 72 -45 76h-315q-35 0 -71 -34l-33 -53q-16 -54 -22 -99q0 -38 19 -69q33 -37 111 -87q68 -34 152 -34h36l61 15q72 23 120 57l95 65q-36 -118 -72 -183q-26 -64 -71 -98v-460l-137 -129q-19 -15 -53 -32t-80 -17q-116 0 -194 80l-101 98v133q0 31 -13 34l-19 8l-17 8
l13 49q20 38 46 68l49 61q16 11 45 19q26 0 65 -41.5t39 -76.5v-163q0 -102 81 -102q71 0 71 106v243l55 30l30 34l-78 -11q-114 0 -196.5 45.5t-141 106.5t-110.5 163l91 216q58 156 94 289h529q49 0 78 -47q3 -5 5 -9z" />
    <glyph glyph-name="uni1792.a" horiz-adv-x="2325" 
d="M1231 1170q-30 0 -66.5 -47.5t-55.5 -51.5l-20 31q-30 68 -61 68h-631q-58 0 -58 -84q4 -41 92 -98l70 -46l76 -30v-642q16 -19 31 -19q15 4 82.5 101t105.5 104q46 0 142 -118q46 -56 65 -56q77 11 77 117q0 34 -27 76t-61 76l-96 61q-61 34 -134 53l49 83q62 92 119 99
q85 0 169 -61q62 -45 110 -117t48 -171q0 -122 -81 -266q-61 -102 -107 -148q-73 -72 -154 -72q-61 11 -124.5 83.5t-90.5 75.5q-19 -11 -38 -28t-77 -78q-42 -45 -92 -53q-54 0 -115 65l-96 94l-12 19l23 38q23 23 23 42v562q-38 11 -90 58.5t-71 81.5l92 198l88 239h724
q19 0 42 -34l38 -65q4 4 13.5 9.5t42.5 43.5t67 46h-17q12 -2 20 2h645q42 0 59 -47t17 -108v-1013q0 -27 23 -46l23 -4q-9 -57 -50 -129t-87 -72q-17 4 -48 46l-80 113l-8 19l14 42q8 12 11 21.5t6 16.5v790q0 68 -104 100l-105 29q-208 3 -250 0z" />
    <glyph glyph-name="uni1793.a" horiz-adv-x="2325" 
d="M1195 1371q17 38 36 38h679q42 0 59 -46t17 -107v-1013q0 -27 23 -46l23 -4q-9 -57 -50 -129t-87 -72q-17 4 -48 46l-80 113l-8 19l14 42q8 12 11 21.5t6 16.5v790q0 68 -104 100l-105 10h-321q-11 -25 -25 -48q-33 -80 -56 -80l-28 72q-30 72 -69 76h-427q-46 0 -74 -27
l-36 -49l-14 -53q0 -31 39 -57l110 -50l185 -72l131 -49q54 -23 73.5 -38t58.5 -49q60 -53 92 -125.5t32 -193.5q0 -65 -85 -163l-107 -99l-106 -80q-93 -49 -157 -49q-14 4 -78 102q-128 213 -170 239l-25 8q-46 0 -46 -72q7 -34 49.5 -85.5t81.5 -74.5l-32 -53
q-39 -57 -71 -68q-53 0 -124 87q-64 88 -64 171q14 65 119 188t168 123q54 0 100 -38l78 -91l68 -102q49 -68 85 -68q35 11 69 52.5t34 87.5q0 80 -96 152q-36 23 -288 129l-199 76q-96 42 -156 125l99 216q64 156 103 289h615q47 0 78 -38z" />
    <glyph glyph-name="uni1794.a" horiz-adv-x="2325" 
d="M1492 1402h618q42 0 59 -42.5t17 -103.5v-1013q0 -27 23 -46l23 -4q-9 -57 -50 -129t-87 -72q-17 4 -48 46l-80 113l-8 19l14 42q8 12 11 21.5t6 16.5v790q0 68 -104 100l-105 22h-250l-72 2q-44 0 -103 -61t-93 -69q-11 11 -14 15q-19 19 -37 50q-34 65 -104 65h-667
q-62 0 -62 -84q3 -42 88 -99l67 -46l74 -31v-671l66 -50l82 -15q55 0 122 57l100 88v240l-11 27l-11 11l-15 4q-19 4 -22 8q0 27 29 69l37 49q63 84 111 84q30 0 78 -40t55 -82v-762q0 -39 -51.5 -81t-81.5 -42q-22 0 -44 23l-45 58l-44 68l-18 50l33 15q15 3 18 38v72
q-26 -38 -90.5 -76t-120.5 -46q-122 0 -251 92l-178 149v583q-37 12 -87 59.5t-68 81.5l89 199l85 240h814q52 -4 97 -84q14 -30 44 -38q11 8 15 11q18 16 44 50q45 53 100 61h3v-2z" />
    <glyph glyph-name="uni1795.a" horiz-adv-x="2325" 
d="M1171 1333l11 22q23 34 49 34h679q42 0 59 -36t17 -97v-1013q0 -27 23 -46l23 -4q-9 -57 -50 -129t-87 -72q-17 4 -48 46l-80 113l-8 19l14 42q8 12 11 21.5t6 16.5v790q0 68 -104 94l-105 17l-250 -1h-123q-28 0 -45 -19q-18 -12 -38 -49l1 10q-29 -41 -72 -88
q-101 -113 -176 -132q-70 0 -179 60l-129 91l15 37l16 53q0 49 -66 49h-137q-67 0 -67 -83q4 -41 94 -98l71 -45l78 -30v-638q15 -18 31 -18q16 3 84 99.5t107 103.5q47 0 145 -117q47 -56 66 -56q78 11 78 117q0 34 -27 75.5t-63 74.5l-97 61q-63 34 -137 53l51 83
q62 90 121 98q86 0 172 -61q62 -45 111 -116.5t49 -169.5q0 -121 -82 -264q-63 -102 -109 -147q-75 -72 -157 -72q-62 11 -126.5 83t-91.5 75q-20 -11 -39.5 -28t-78.5 -77q-43 -45 -93 -53q-55 0 -117 64l-98 94l-12 19l24 38q23 23 23 41v559q-39 11 -91.5 58t-72.5 81
l94 196l90 238h308q55 0 82 -61l16 -79q-4 -53 -24 -83l98 -71q47 -23 105 -31q43 12 59 68q0 61 -31 110q-16 26 -43 63.5t-63 79.5l-62 94q-20 49 -20 113q20 38 80.5 94.5t107.5 60.5q0 -57 47 -136q31 -56 86 -113q71 -80 97 -176z" />
    <glyph glyph-name="uni1796.a" horiz-adv-x="2325" 
d="M1250 1268l4 30l28 57q23 42 49 42h679q42 0 59 -40t17 -101v-1013q0 -27 23 -46l23 -4q-9 -57 -50 -129t-87 -72q-17 4 -48 46l-80 113l-8 19l14 42q8 12 11 21.5t6 16.5v790q0 68 -104 93l-105 17h-250h-123q-28 0 -45 -19q-6 -4 -13 -12v-868l7 -27l24 -19l31 -4
q-12 -72 -64.5 -132.5t-118.5 -68.5q-23 4 -66 46l-109 113l-12 19l19 42q12 12 16 21.5t8 16.5v790q0 64 -12 87t-70 23h-86q-31 0 -68 -47.5t-56 -51.5l-20 31q-31 68 -62 68h-199q-58 0 -58 -84q4 -41 93 -98l71 -46l77 -30v-699q94 46 106 122q0 38 -24 79l-50 57
q7 38 17 61t37 65q43 64 78 76q31 0 74 -57t54 -118q0 -125 -58 -235q-31 -54 -109 -133q-47 -50 -103.5 -84t-122.5 -34q-27 0 -58 27l-140 132l-12 19l23 38q24 23 24 42v562q-39 11 -92 58.5t-72 81.5l93 198l90 239h312q19 0 42 -34l39 -65q4 4 14 9.5t43 43.5t68 46
h280q55 0 79 -36q22 -35 23 -93z" />
    <glyph glyph-name="uni1797.a" horiz-adv-x="2325" 
d="M1266 1397q8 4 17 0h680q42 0 59 -34t17 -95v-1013q0 -27 23 -46l23 -4q-9 -57 -50 -129t-87 -72q-17 4 -48 46l-80 113l-8 19l14 42q8 12 11 21.5t6 16.5v790q0 68 -104 100l-105 8q-208 0 -251 2l-141 -2q-32 0 -70 -47t-58 -51l-20 30q-32 68 -64 68h-562
q-36 0 -36 -38q4 -7 14 -18.5t22 -18.5l76 -15q-8 -31 -40 -83l-44 -64q-76 11 -120 35.5t-80 62.5l68 154l80 222h654q20 0 44 -34l40 -64q4 4 14 9.5t44 43t70 45.5h-8zM332 178v581l203 148q150 91 300 91q123 0 238 -91l166 -148v-508l7 -27l23 -19l31 -4
q-12 -72 -63.5 -132.5t-117.5 -68.5q-23 4 -65 46l-108 113l-11 19l19 42q12 12 15.5 21.5t7.5 16.5v433l-130 106q-47 34 -100 34q-50 0 -81 -11l-73 -42v-520l27 -49l15 -31l-11 -19l-89 -91q-57 -60 -104 -68q-65 0 -122 30q-50 35 -102 88t-79 121t-27 167q0 42 4 65
t32.5 76t67.5 53q23 0 59.5 -57t51.5 -114q-57 -46 -57 -129q0 -76 73 -122z" />
    <glyph glyph-name="uni1798.a" horiz-adv-x="2325" 
d="M641 673l81 -8l58 4l96 19q0 -65 -8.5 -108.5t-29.5 -85.5l-136 -11h-37l-69 7l24 88zM1279 1407l12 2h679q42 0 59 -46t17 -107v-1013q0 -27 23 -46l23 -4q-9 -57 -50 -129t-87 -72q-17 4 -48 46l-80 113l-8 19l14 42q8 12 11 21.5t6 16.5v790q0 68 -104 114l-105 17
l-250 -1h-382q-24 0 -45 -19q-20 -12 -20 -38q0 -8 1.5 -15.5t5.5 -11.5q20 -45 99 -163l132 -220q34 -68 54.5 -140.5t20.5 -148.5l-10 -83q-34 -160 -160 -239.5t-307 -79.5q-143 0 -310 129l-136 110v581q-34 11 -80 58.5t-63 81.5l82 198l78 239h341q20 -4 27 -68
l-7 -65q-10 -49 -41 -121q-41 -80 -68 -84q-17 15 -20 31q-27 68 -51 68h-120q-57 0 -57 -84q3 -41 81 -98l62 -46l68 -30v-668l92 -61q44 -19 95 -27q78 0 140 34q54 38 91.5 101t37.5 142l-10 84q-10 49 -34 100.5t-51 102.5t-58 97l-106 155l82 198l78 239h341
q9 -3 15 -2z" />
    <glyph glyph-name="uni1799.a" horiz-adv-x="3100" 
d="M2041 1397h669q42 0 59 -40t17 -101v-1013q0 -27 23 -46l23 -4q-9 -57 -50 -129t-87 -72q-17 4 -48 46l-80 113l-8 19l14 42q8 12 11 21.5t6 16.5v790q0 68 -104 100l-105 17h-250l-393 1q-69 0 -73 -61l8 -23l149 -208l115 -175q80 -137 80 -285l-11 -87
q-46 -156 -203 -247q-138 -72 -317 -72q-88 0 -157 23l-130 68q-69 -45 -164.5 -68t-194.5 -23q-160 0 -348 129l-153 110v581q-38 11 -89.5 58.5t-70.5 81.5l92 198l88 239h179q80 0 145 -65q81 -79 81 -220q-23 -133 -237 -167q34 53 38 110q0 46 -38 88q-35 22 -111 22
q-54 -22 -54 -91q0 -34 92 -98l69 -46l76 -30v-668l103 -61q50 -19 107 -27q88 0 157 34q61 38 103 101t42 142l-11 84q-12 49 -38.5 100.5t-57 102.5t-65.5 97l-118 155l92 198l88 239h382q26 -8 26 -133q-11 -57 -53 -129t-73 -76l-30 49q-23 46 -50 50h-107
q-27 0 -50 -19q-23 -12 -23 -38q0 -8 2 -15.5t6 -11.5l73 -110q126 -174 187 -273q38 -68 61 -140.5t23 -148.5l-11 -83q-23 -76 -58 -129l42 -23q54 -23 107 -23q88 0 126 19q77 31 138 122q34 53 34 133q0 91 -46 182q-26 57 -56.5 108t-65.5 97l-122 155l92 186
q65 149 91 251h382q7 -1 13 0z" />
    <glyph glyph-name="uni179a.a" horiz-adv-x="1550" 
d="M340 1168q-18 0 -34 -19q-15 -12 -15 -39q0 -7 1.5 -15t3.5 -11l98 -203l74 -173q26 -69 49 -160.5t23 -168.5l-8 -65q-30 -96 -101 -199.5t-109 -114.5q-36 0 -71 36.5t-55 82.5q-26 42 -49 107q-15 61 -23 134q0 34 40 74.5t81 55.5l15 -96l26 -76l31 -54
q13 -11 46 -19q23 23 26 77q0 61 -21 134q-8 38 -13 53q-13 50 -38 111q-31 96 -83 192l-79 157l61 199l60 241h256q8 -2 678 -3q42 0 59 -44.5t17 -105.5v-1013q0 -27 23 -46l23 -4q-9 -57 -50 -129t-87 -72q-17 4 -48 46l-80 113l-8 19l14 42q8 12 11 21.5t6 16.5v790
q0 68 -104 110l-105 17l-250 -1z" />
    <glyph glyph-name="uni179b.a" horiz-adv-x="3100" 
d="M377 1390h745q128 0 128 -160v-1010q122 -70 216 -70h39q226 60 226 230v80q-7 144 -275 500q100 178 176 430h363l69 -2h608q89 0 89 -198v-990l39 -30v-20q-10 -87 -118 -190h-19q-17 0 -138 180l30 100v770q0 120 -128 130h-127h-579q-59 0 -59 -60q343 -475 343 -640
v-50q-67 -390 -461 -390h-98q-183 0 -461 240v800q0 100 -69 100h-490q-26 0 -40 -70q0 -74 236 -170v-690h10q78 46 78 140l-68 110q72 200 137 200q118 -75 118 -180v-40q0 -236 -275 -420l-39 -10h-108q-157 142 -157 170q39 60 39 90v540q-64 0 -157 150q88 165 177 430
z" />
    <glyph glyph-name="uni179c.a" horiz-adv-x="1550" 
d="M762 1389h648q42 0 59 -36t17 -97v-1013q0 -27 23 -46l23 -4q-9 -57 -50 -129t-87 -72q-17 4 -48 46l-80 113l-8 19l14 42q8 12 11 21.5t6 16.5v790q0 68 -104 100l-105 17l-250 -7h-126q-8 -20 -16 -43q-53 -142 -106 -176q-42 0 -88 28.5t-55 50.5l12 53l11 65
q0 34 -37 38h-55q-20 0 -37 -19q-16 -12 -16 -38q0 -8 1 -15.5t4 -11.5l106 -200l81 -170q28 -68 53 -159t25 -167l-8 -64q-33 -94 -110 -196.5t-119 -113.5q-39 0 -76.5 36t-60.5 81q-28 42 -53 106q-17 61 -25 133q0 34 43.5 73.5t87.5 54.5l17 -94l28 -76l33 -53
q14 -11 51 -19q25 23 28 76q0 60 -23 132q-11 49 -20.5 75.5t-35.5 83.5q-16 45 -37 92.5t-49 100.5q-48 91 -89 155l67 197l64 238h190q22 0 43 -34t24 -91l-17 -68l-11 -53q8 -38 72 -38l31 72l13 44l8 62l3 7q-5 99 -49 159q-28 31 -98 57.5t-137 26.5q-64 0 -106 -16
q11 50 17 70.5t27 83t46 81.5q19 7 36 11t59 4q83 0 160 -36t117.5 -106t40.5 -164l-6 -76z" />
    <glyph glyph-name="uni179d.a" horiz-adv-x="2325" 
d="M1266 1397q8 4 17 0h680q42 0 59 -34t17 -95v-1013q0 -27 23 -46l23 -4q-9 -57 -50 -129t-87 -72q-17 4 -48 46l-80 113l-8 19l14 42q8 12 11 21.5t6 16.5v790q0 68 -104 100l-105 8q-208 0 -251 2l-141 -2q-32 0 -70 -47t-58 -51l-20 30q-32 68 -64 68h-562
q-36 0 -36 -38q4 -7 14 -18.5t22 -18.5l76 -15q-8 -31 -40 -83l-44 -64q-76 11 -120 35.5t-80 62.5l68 154l80 222h654q20 0 44 -34l40 -64q4 4 14 9.5t44 43t70 45.5h-8zM1237 503v-252q0 -27 32 -46l31 -4q-12 -57 -68.5 -129t-115.5 -72q-27 4 -54 27l-126 132l-11 19
l23 38q24 23 24 42v237h-30l-153 7l53 88l47 95l83 -4v10l-141 106q-47 34 -98 34l-78 -11l-74 -42v-497l74 133q43 57 109 64q51 0 84.5 -49t33.5 -156q0 -53 -59 -117q-35 -35 -109 -69q0 137 -36 137q-39 -23 -54 -46l-75 -117q-43 -61 -93 -61q-36 0 -86 61l-90 98
l-12 19l20 42q11 12 15 21.5t8 16.5v501l211 148q153 91 305 91q125 0 242 -91l168 -148v-74l172 15q0 -65 -19 -108.5t-65 -85.5z" />
    <glyph glyph-name="uni179e.a" horiz-adv-x="2325" 
d="M1229 416v-495q0 -39 -51.5 -81t-81.5 -42q-22 0 -44 23l-45 58l-44 68l-18 50l33 15q15 3 18 38v72q-26 -38 -90.5 -76t-120.5 -46q-122 0 -251 92l-178 149v583q-37 12 -87 59.5t-68 81.5l89 199l85 240h814q52 -4 97 -84q14 -30 44 -38q11 8 15 11q18 16 44 50
q45 53 100 61h3v-2h618q42 0 59 -42.5t17 -103.5v-1013q0 -27 23 -46l23 -4q-9 -57 -50 -129t-87 -72q-17 4 -48 46l-80 113l-8 19l14 42q8 12 11 21.5t6 16.5v790q0 68 -104 100l-105 22h-250l-72 2q-44 0 -103 -61t-93 -69q-11 11 -14 15q-19 19 -37 50q-34 65 -104 65
h-667q-62 0 -62 -84q3 -42 88 -99l67 -46l74 -31v-671l66 -50l82 -15q55 0 122 57l100 88v95h-53l-152 7l53 88l46 95l69 -3q-19 4 -22 8q0 27 29 69l37 49q63 84 111 84q30 0 78 -40t55 -82v-85l162 15q0 -65 -19 -108.5t-65 -85.5z" />
    <glyph glyph-name="uni179f.a" horiz-adv-x="3100" 
d="M2710 1397q42 0 59 -40t17 -101v-1013q0 -27 23 -46l23 -4q-9 -57 -50 -129t-87 -72q-17 4 -48 46l-80 113l-8 19l14 42q8 12 11 21.5t6 16.5v790q0 68 -104 100l-105 17h-250l-395 1q-27 0 -51 -19q-23 -12 -23 -38q0 -8 2 -15.5t6 -11.5l150 -216l112 -175
q38 -64 61.5 -136t23.5 -145l-12 -83q-38 -160 -180.5 -239.5t-346.5 -79.5q-158 0 -335 129l-151 110v349l-111 92q-77 53 -143 53q-38 0 -88 -27l-62 -38v-467q81 42 81 99q0 38 -13.5 70t-44.5 51q12 50 42.5 112.5t61.5 73.5q35 0 71.5 -58.5t47.5 -119.5
q0 -125 -46 -205q-11 -23 -26.5 -42t-61.5 -64q-27 -31 -46.5 -46t-63.5 -43.5t-106 -28.5q-31 0 -77 46l-115 113l-12 19l19 42q12 12 16 21.5t7 16.5v403l108 79l147 88q-31 11 -79.5 52.5t-71.5 79.5l93 198l88 239h385q23 -4 31 -68l-8 -65q-11 -49 -46 -121
q-46 -80 -77 -84q-19 15 -23 31q-31 68 -58 68h-134q-8 -4 -17.5 -8t-29 -21t-19.5 -55q4 -11 8 -18.5t19 -26.5l66 -53l61 -46l66 -30q123 0 246 -91l177 -148v-429q70 -50 112 -69l81 -19q88 0 153.5 34.5t108 95t42.5 144.5q0 94 -50 182q-27 57 -58 108t-65 97l-120 155
l93 198l88 239h385q8 -3 686 0z" />
    <glyph glyph-name="uni17a0.a" horiz-adv-x="3100" 
d="M1989 1365q20 32 42 32h679q42 0 59 -40t17 -101v-1013q0 -27 23 -46l23 -4q-9 -57 -50 -129t-87 -72q-17 4 -48 46l-80 113l-8 19l14 42q8 12 11 21.5t6 16.5v790q0 68 -104 100l-105 11l-250 -1h-114v-899q0 -27 33 -46l33 -4q-12 -57 -72 -129t-127 -72q-24 4 -70 46
l-116 113l-12 19l20 42q13 12 17 21.5t8 16.5v790q0 64 -12.5 87t-74.5 23h-509q-24 0 -51 -13.5t-27 -43.5l12 -30l166 -198l136 -182q42 -68 66.5 -140.5t24.5 -148.5l-12 -83q-42 -160 -195 -239.5t-372 -79.5q-174 0 -377 129l-165 110v581q-42 11 -97.5 58.5
t-76.5 81.5l99 198l95 239h414q25 -4 33 -68l-8 -65q-12 -49 -50 -121q-49 -80 -82 -84q-21 15 -25 31q-33 68 -62 68h-145q-70 0 -70 -84q4 -41 99 -98l74 -46l83 -30v-668l112 -61q54 -19 116 -27q95 0 169 34q67 38 112.5 101t45.5 142l-13 84q-12 49 -41 100.5
t-62 102.5t-70 97l-129 155q21 35 50 91.5t50 106.5l95 239h852q55 0 80 -32z" />
    <glyph glyph-name="uni17a1.a" horiz-adv-x="3100" 
d="M465 190v133q0 31 -13 34l-19 8l-17 8l13 49q20 38 46 68l49 61q16 11 45 19q26 0 65 -41.5t39 -76.5v-163q0 -102 81 -102q71 0 71 106v243l55 30l30 34l-78 -11q-114 0 -196.5 45.5t-141 106.5t-110.5 163l91 216q58 156 94 289h529q49 0 78 -47.5t29 -85.5
q0 -95 -45 -174q-39 -80 -78 -80l-17 72q-9 72 -45 76h-315q-35 0 -71 -34l-33 -53q-16 -54 -22 -99q0 -38 19 -69q33 -37 111 -87q68 -34 152 -34h36l61 15q72 23 120 57l95 65q-36 -118 -72 -183q-26 -64 -71 -98v-460l-137 -129q-19 -15 -53 -32t-80 -17q-116 0 -194 80z
M2097 1373h713q42 0 59 -28t17 -89v-1013q0 -27 23 -46l23 -4q-9 -57 -50 -129t-87 -72q-17 4 -48 46l-80 113l-8 19l14 42q8 12 11 21.5t6 16.5v790q0 68 -104 90l-105 14l-250 1l-436 -3q-8 -3 -18 -7t-29 -20t-19 -53q4 -11 7.5 -18.5t19.5 -25.5l69 -55l66 -40l78 -29
v-1398q11 -22 21 -31t13.5 -18.5t7.5 -16.5l-7 -22q-24 -47 -72 -89.5t-107 -64.5q-46 0 -108 37l-62 48l-89 80q-43 33 -81 40q-27 -14 -38 -25l-51 -59q-42 -62 -75 -87.5t-87 -33.5q-43 0 -86 44l-108 114l-12 18l24 33q23 22 23 44v135q-8 22 -16 30q-23 0 -31 3
q0 4 -4 8l20 47q11 30 50 70l54 55l39 18q23 0 81 -33q47 -33 51 -58v-279l27 -14q19 7 67.5 87.5t87.5 95.5q38 0 96 -33l66 -48l19 -7q12 7 16 18t7 15v1200q-31 11 -87 55t-75 80l93 190l89 231h372z" />
    <glyph glyph-name="uni17a2.a" horiz-adv-x="2325" 
d="M460 253q30 22 33 75q0 60 -26 132q-10 38 -17 53q-17 48 -50 109q-40 94 -107 188l-104 154l80 196l77 237h335q20 -4 26 -68l-6 -64q-10 -49 -40 -120q-40 -79 -67 -83l-27 49q-20 45 -43 49h-94q-23 0 -44 -19q-20 -11 -20 -38q0 -7 2 -14.5t5 -11.5l127 -199l97 -170
q34 -67 64 -157.5t30 -165.5l-10 -64q-40 -94 -132 -196t-142 -113q-47 0 -92.5 36t-71.5 81q-34 41 -64 105q-20 60 -30 132q0 34 52 73.5t105 54.5l20 -94l34 -76l40 -52q17 -12 60 -19zM868 805l-7 -82q-3 -34 -30 -79l-87 -11l-100 11l23 83l20 102l84 -12q28 0 80 14
l-90 133l80 196l77 237h335q5 -2 657 0q42 0 59 -40t17 -101v-1013q0 -27 23 -46l23 -4q-9 -57 -50 -129t-87 -72q-17 4 -48 46l-80 113l-8 19l14 42q8 12 11 21.5t6 16.5v790q0 68 -104 100l-105 19h-250l-329 1q-24 0 -44 -19q-20 -11 -20 -38l7 -26l60 -102l167 -270
q37 -68 64 -156.5t27 -163.5l-10 -64q-41 -94 -132.5 -196t-142.5 -113q-46 0 -91.5 36t-72.5 81q-33 41 -63 105q-20 60 -30 132q0 34 52 73.5t105 54.5l20 -94l34 -76l40 -52q16 -12 60 -19q30 22 33 75q0 60 -26 132q-10 38 -17 53q-17 48 -50 109q-39 92 -104 183z" />
    <glyph glyph-name="uni1783.sub.a" horiz-adv-x="1550" 
d="M308 1164q-6 -4 -13.5 -7.5t-22.5 -20.5t-15 -54q3 -11 6 -18.5t15 -25.5l54 -56l51 -40l60 -30v-1295l-9 -122q-9 -63 -49.5 -109t-124.5 -94q-84 -38 -177 -38q-57 0 -96 13t-147 80q-93 -93 -249 -93q-120 0 -225 82q-72 55 -108 122v178l-9 26l-31 22q0 26 12.5 59
t33.5 67q48 70 99 70q39 0 63 -26q15 -26 21 -70v-326q18 -22 60 -37l69 -15h60q30 11 60 18.5t54 52.5v170q-6 22 -12 29q-18 0 -24 4q0 4 -3 8l15 48q9 29 39 66q48 78 87 78q18 0 49.5 -31.5t37.5 -61.5v-325q66 -52 129 -52q81 0 126 55.5t45 155.5v1213
q-24 12 -67.5 56t-58.5 81l72 193l69 233h300q6 -1 656 0q42 0 59 -40t17 -101v-1013q0 -27 23 -46l23 -4q-9 -57 -50 -129t-87 -72q-17 4 -48 46l-80 113l-8 19l14 42q8 12 11 21.5t6 16.5v790q0 68 -104 106l-105 17h-250z" />
    <glyph glyph-name="uni1788.sub.a" horiz-adv-x="1550" 
d="M1310 1397q42 0 59 -40t17 -101v-1013q0 -27 23 -46l23 -4q-9 -57 -50 -129t-87 -72q-17 4 -48 46l-80 113l-8 19l14 42q8 12 11 21.5t6 16.5v790q0 68 -104 107l-105 17l-250 -1l-419 2q-6 -4 -14 -7.5t-24 -20t-16 -53.5q3 -11 6 -18.5t16 -25.5l58 -55l55 -41l64 -29
v-1288l-9 -125q-10 -59 -52 -107t-109.5 -88.5t-167.5 -40.5q-45 0 -64 6t-55 24l-105 63q-48 -45 -111 -69t-130 -24q-110 0 -177 63l-119 140v199q-52 92 -136 92l-54 -11l-52 -45v-202q0 -26 29 -48l49 -33q-7 -26 -65 -90.5t-90 -64.5q-51 0 -116 48q-35 26 -42 45
q10 22 17 29l16 33v269q58 66 112.5 110t109 66.5t109.5 22.5q77 0 167 -57.5t148 -145.5v-243q32 -37 103 -37q29 0 71 18.5t64 62.5v170l-9 29l-33 11l17 48q6 22 43 68t56 61l39 15q19 0 58 -34q26 -33 31 -59v-331q65 -44 107 -44q64 0 99 55q32 63 32 155v1207
q-25 11 -72 55t-63 81l78 191l74 232h321h734z" />
    <glyph glyph-name="uni178d.sub.a" horiz-adv-x="1550" 
d="M1310 1397q42 0 59 -40t17 -101v-1013q0 -27 23 -46l23 -4q-9 -57 -50 -129t-87 -72q-17 4 -48 46l-80 113l-8 19l14 42q8 12 11 21.5t6 16.5v790q0 68 -104 105l-105 17l-250 1l-450 2q-8 -4 -18 -7.5t-30.5 -20t-20.5 -53.5q4 -11 8 -18.5t21 -25.5l73 -55l70 -41
l82 -29v-1288q0 -62 -20.5 -137.5t-69.5 -119.5q-99 -81 -242 -104q-70 0 -170 22.5t-112 73.5l29 41q20 18 28 44q0 33 -57 48l-94 17v-165q0 -81 -94 -81q-33 0 -86.5 35t-73.5 83q0 26 16 44l41 59v162q0 78 -61 78h-107q-24 0 -48.5 -33.5t-41.5 -36.5l-24 47
q-13 23 -37 23h-193q-41 0 -41 -59q0 -22 78 -48l103 -33v-206q61 11 65 51q0 44 -37 85q8 22 45 62l58 41q12 -4 22 -11.5t30.5 -38.5t20.5 -68q0 -63 -12 -92l-70 -74q-28 -25 -91.5 -47.5t-108.5 -22.5q-25 0 -66 37l-78 74q25 40 25 66v114l-61 33q-33 19 -50 41l74 140
l49 118h275q28 -19 36.5 -39t12.5 -24t8 -7q29 22 45 36q25 34 49 34h250q37 0 61 -26l17 -67v-259l17 50q16 55 32 62q70 0 125 -20t75 -68l-4 -59l-16 -63q0 -44 61 -44t100 48t39 188v1207q-32 11 -91.5 55t-80.5 81l99 191l94 232h409h693z" />
    <glyph glyph-name="uni1794.sub.a" horiz-adv-x="1550" 
d="M597 1373h713q42 0 59 -28t17 -89v-1013q0 -27 23 -46l23 -4q-9 -57 -50 -129t-87 -72q-17 4 -48 46l-80 113l-8 19l14 42q8 12 11 21.5t6 16.5v790q0 68 -104 90l-105 14l-250 1l-436 -3q-8 -3 -18 -7t-29 -20t-19 -53q4 -11 7.5 -18.5t19.5 -25.5l69 -55l66 -40l78 -29
v-1398q11 -22 21 -31t13.5 -18.5t7.5 -16.5l-7 -22q-24 -47 -72 -89.5t-107 -64.5q-46 0 -108 37l-62 48l-89 80q-43 33 -81 40q-27 -14 -38 -25l-51 -59q-42 -62 -75 -87.5t-87 -33.5q-43 0 -86 44l-108 114l-12 18l24 33q23 22 23 44v135q-8 22 -16 30q-23 0 -31 3
q0 4 -4 8l20 47q11 30 50 70l54 55l39 18q23 0 81 -33q47 -33 51 -58v-279l27 -14q19 7 67.5 87.5t87.5 95.5q38 0 96 -33l66 -48l19 -7q12 7 16 18t7 15v1200q-31 11 -87 55t-75 80l93 190l89 231h372z" />
    <glyph glyph-name="uni1799.sub.a" horiz-adv-x="1550" 
d="M1310 1384q42 0 59 -33.5t17 -94.5v-1013q0 -27 23 -46l23 -4q-9 -57 -50 -129t-87 -72q-17 4 -48 46l-80 113l-8 19l14 42q8 12 11 21.5t6 16.5v790q0 68 -104 98l-105 17l-250 -2l-421 1q-7 -3 -15.5 -7t-26 -20t-17.5 -53q3 -11 6.5 -18.5t17.5 -25.5l63 -55l59 -40
l69 -29v-962q115 -99 148 -148.5t36 -108.5q0 -47 -64 -126t-146 -143t-182 -104l-170 -48q-90 0 -216.5 53.5t-192.5 108.5q-112 87 -112 190q0 80 64.5 153.5t126.5 73.5q39 0 77 -44q31 -44 41 -88q-41 -15 -65.5 -24t-62.5 -33t-42 -67q0 -37 113 -90t189 -53
q41 0 65.5 5.5t62.5 22t47 22t66 36.5t102 68q59 47 91 106q0 36 -61 100t-151 123v900q-28 11 -78 55t-68 80l84 190l79 231z" />
    <glyph glyph-name="uni179e.sub.a" horiz-adv-x="1550" 
d="M205 191v626q-31 11 -87 55t-75 80l93 190l89 231h1085q42 0 59 -28t17 -89v-1013q0 -27 23 -46l23 -4q-9 -57 -50 -129t-87 -72q-17 4 -48 46l-80 113l-8 19l14 42q8 12 11 21.5t6 16.5v790q0 68 -104 90l-105 14l-250 1l-436 -3q-8 -3 -18 -7t-29 -20t-19 -53
q4 -11 7.5 -18.5t19.5 -25.5l69 -55l66 -40l78 -29v-704l202 18q0 -65 -19 -108.5t-65 -85.5l-118 -4v-514q11 -22 21 -31t13.5 -18.5t7.5 -16.5l-7 -22q-24 -47 -72 -89.5t-107 -64.5q-46 0 -108 37l-62 48l-89 80q-43 33 -81 40q-27 -14 -38 -25l-51 -59
q-42 -62 -75 -87.5t-87 -33.5q-43 0 -86 44l-108 114l-12 18l24 33q23 22 23 44v135q-8 22 -16 30q-23 0 -31 3q0 4 -4 8l20 47q11 30 50 70l54 55l39 18q23 0 81 -33q47 -33 51 -58v-279l27 -14q19 7 67.5 87.5t87.5 95.5q38 0 96 -33l66 -48l19 -7q12 7 16 18t7 15v386
l-153 7l53 88l46 95z" />
    <glyph glyph-name="uni179f.sub.a" horiz-adv-x="1550" 
d="M1310 1384q42 0 59 -33.5t17 -94.5v-1013q0 -27 23 -46l23 -4q-9 -57 -50 -129t-87 -72q-17 4 -48 46l-80 113l-8 19l14 42q8 12 11 21.5t6 16.5v790q0 68 -104 98l-105 17l-250 -2l-423 -1q-7 -4 -15.5 -7.5t-26 -20.5t-17.5 -54q4 -11 7.5 -18.5t17.5 -25.5l62 -56
l59 -40l69 -30v-677q63 0 122 48l100 104q0 -82 -17.5 -163.5t-69.5 -125.5l-76 -45l-59 -18v-96q115 -100 147.5 -150t36.5 -109q0 -48 -64 -127.5t-145.5 -144.5t-182.5 -105l-169 -49q-90 0 -216.5 54t-192.5 109q-111 89 -111 193q0 81 64.5 155t126.5 74q38 0 76 -44
q31 -45 42 -89q-42 -15 -66 -24t-62 -33t-42 -69q0 -37 112.5 -90.5t188.5 -53.5q42 0 66 5.5t62 22t47 22t66 37t102 68.5q59 48 90 108q0 37 -60.5 101.5t-150.5 123.5v115q-66 0 -135.5 33t-69.5 63q0 26 38 92l42 82l59 -41l66 -26v592q-28 12 -78 56t-68 81l83 193
l80 233z" />
    <glyph glyph-name="uni1783.sub.alt.a" horiz-adv-x="1550" 
d="M308 1164q-6 -4 -13.5 -7.5t-22.5 -20.5t-15 -54q3 -11 6 -18.5t15 -25.5l54 -56l51 -40l60 -30v-1884l-9 -122q-9 -63 -49.5 -109t-124.5 -94q-84 -38 -177 -38q-57 0 -96 13t-147 80q-93 -93 -249 -93q-120 0 -225 82q-72 55 -108 122v178l-9 26l-31 22q0 26 12.5 59
t33.5 67q48 70 99 70q39 0 63 -26q15 -26 21 -70v-326q18 -22 60 -37l69 -15h60q30 11 60 18.5t54 52.5v170q-6 22 -12 29q-18 0 -24 4q0 4 -3 8l15 48q9 29 39 66q48 78 87 78q18 0 49.5 -31.5t37.5 -61.5v-325q66 -52 129 -52q81 0 126 55.5t45 155.5v1802
q-24 12 -67.5 56t-58.5 81l72 193l69 233h300q6 -1 656 0q42 0 59 -40t17 -101v-1013q0 -27 23 -46l23 -4q-9 -57 -50 -129t-87 -72q-17 4 -48 46l-80 113l-8 19l14 42q8 12 11 21.5t6 16.5v790q0 68 -104 106l-105 17h-250z" />
    <glyph glyph-name="uni1788.sub.alt.a" horiz-adv-x="1550" 
d="M1310 1397q42 0 59 -40t17 -101v-1013q0 -27 23 -46l23 -4q-9 -57 -50 -129t-87 -72q-17 4 -48 46l-80 113l-8 19l14 42q8 12 11 21.5t6 16.5v790q0 68 -104 107l-105 17l-250 -1l-419 2q-6 -4 -14 -7.5t-24 -20t-16 -53.5q3 -11 6 -18.5t16 -25.5l58 -55l55 -41l64 -29
v-1868l-9 -125q-10 -59 -52 -107t-109.5 -88.5t-167.5 -40.5q-45 0 -64 6t-55 24l-105 63q-48 -45 -111 -69t-130 -24q-110 0 -177 63l-119 140v199q-52 92 -136 92l-54 -11l-52 -45v-202q0 -26 29 -48l49 -33q-7 -26 -65 -90.5t-90 -64.5q-51 0 -116 48q-35 26 -42 45
q10 22 17 29l16 33v269q58 66 112.5 110t109 66.5t109.5 22.5q77 0 167 -57.5t148 -145.5v-243q32 -37 103 -37q29 0 71 18.5t64 62.5v170l-9 29l-33 11l17 48q6 22 43 68t56 61l39 15q19 0 58 -34q26 -33 31 -59v-331q65 -44 107 -44q64 0 99 55q32 63 32 155v1787
q-25 11 -72 55t-63 81l78 191l74 232h321h734z" />
    <glyph glyph-name="uni178d.sub.alt.a" horiz-adv-x="1550" 
d="M1310 1397q42 0 59 -40t17 -101v-1013q0 -27 23 -46l23 -4q-9 -57 -50 -129t-87 -72q-17 4 -48 46l-80 113l-8 19l14 42q8 12 11 21.5t6 16.5v790q0 68 -104 105l-105 17l-250 1l-450 2q-8 -4 -18 -7.5t-30.5 -20t-20.5 -53.5q4 -11 8 -18.5t21 -25.5l73 -55l70 -41
l82 -29v-1868q0 -62 -20.5 -137.5t-69.5 -119.5q-99 -81 -242 -104q-70 0 -170 22.5t-112 73.5l29 41q20 18 28 44q0 33 -57 48l-94 17v-165q0 -81 -94 -81q-33 0 -86.5 35t-73.5 83q0 26 16 44l41 59v162q0 78 -61 78h-107q-24 0 -48.5 -33.5t-41.5 -36.5l-24 47
q-13 23 -37 23h-193q-41 0 -41 -59q0 -22 78 -48l103 -33v-206q61 11 65 51q0 44 -37 85q8 22 45 62l58 41q12 -4 22 -11.5t30.5 -38.5t20.5 -68q0 -63 -12 -92l-70 -74q-28 -25 -91.5 -47.5t-108.5 -22.5q-25 0 -66 37l-78 74q25 40 25 66v114l-61 33q-33 19 -50 41l74 140
l49 118h275q28 -19 36.5 -39t12.5 -24t8 -7q29 22 45 36q25 34 49 34h250q37 0 61 -26l17 -67v-259l17 50q16 55 32 62q70 0 125 -20t75 -68l-4 -59l-16 -63q0 -44 61 -44t100 48t39 188v1787q-32 11 -91.5 55t-80.5 81l99 191l94 232h409h693z" />
    <glyph glyph-name="uni1794.sub.alt.a" horiz-adv-x="1550" 
d="M597 1373h713q42 0 59 -28t17 -89v-1013q0 -27 23 -46l23 -4q-9 -57 -50 -129t-87 -72q-17 4 -48 46l-80 113l-8 19l14 42q8 12 11 21.5t6 16.5v790q0 68 -104 90l-105 14l-250 1l-436 -3q-8 -3 -18 -7t-29 -20t-19 -53q4 -11 7.5 -18.5t19.5 -25.5l69 -55l66 -40l78 -29
v-1978q11 -22 21 -31t13.5 -18.5t7.5 -16.5l-7 -22q-24 -47 -72 -89.5t-107 -64.5q-46 0 -108 37l-62 48l-89 80q-43 33 -81 40q-27 -14 -38 -25l-51 -59q-42 -62 -75 -87.5t-87 -33.5q-43 0 -86 44l-108 114l-12 18l24 33q23 22 23 44v135q-8 22 -16 30q-23 0 -31 3
q0 4 -4 8l20 47q11 30 50 70l54 55l39 18q23 0 81 -33q47 -33 51 -58v-279l27 -14q19 7 67.5 87.5t87.5 95.5q38 0 96 -33l66 -48l19 -7q12 7 16 18t7 15v1780q-31 11 -87 55t-75 80l93 190l89 231h372z" />
    <glyph glyph-name="uni1799.sub.alt.a" horiz-adv-x="1550" 
d="M1310 1384q42 0 59 -33.5t17 -94.5v-1013q0 -27 23 -46l23 -4q-9 -57 -50 -129t-87 -72q-17 4 -48 46l-80 113l-8 19l14 42q8 12 11 21.5t6 16.5v790q0 68 -104 98l-105 17l-250 -2l-421 1q-7 -3 -15.5 -7t-26 -20t-17.5 -53q3 -11 6.5 -18.5t17.5 -25.5l63 -55l59 -40
l69 -29v-1642q115 -99 148 -148.5t36 -108.5q0 -47 -64 -126t-146 -143t-182 -104l-170 -48q-90 0 -216.5 53.5t-192.5 108.5q-112 87 -112 190q0 80 64.5 153.5t126.5 73.5q39 0 77 -44q31 -44 41 -88q-41 -15 -65.5 -24t-62.5 -33t-42 -67q0 -37 113 -90t189 -53
q41 0 65.5 5.5t62.5 22t47 22t66 36.5t102 68q59 47 91 106q0 36 -61 100t-151 123v1580q-28 11 -78 55t-68 80l84 190l79 231z" />
    <glyph glyph-name="uni179e.sub.alt.a" horiz-adv-x="1550" 
d="M205 191v626q-31 11 -87 55t-75 80l93 190l89 231h1085q42 0 59 -28t17 -89v-1013q0 -27 23 -46l23 -4q-9 -57 -50 -129t-87 -72q-17 4 -48 46l-80 113l-8 19l14 42q8 12 11 21.5t6 16.5v790q0 68 -104 90l-105 14l-250 1l-436 -3q-8 -3 -18 -7t-29 -20t-19 -53
q4 -11 7.5 -18.5t19.5 -25.5l69 -55l66 -40l78 -29v-704l202 18q0 -65 -19 -108.5t-65 -85.5l-118 -4v-1094q11 -22 21 -31t13.5 -18.5t7.5 -16.5l-7 -22q-24 -47 -72 -89.5t-107 -64.5q-46 0 -108 37l-62 48l-89 80q-43 33 -81 40q-27 -14 -38 -25l-51 -59
q-42 -62 -75 -87.5t-87 -33.5q-43 0 -86 44l-108 114l-12 18l24 33q23 22 23 44v135q-8 22 -16 30q-23 0 -31 3q0 4 -4 8l20 47q11 30 50 70l54 55l39 18q23 0 81 -33q47 -33 51 -58v-279l27 -14q19 7 67.5 87.5t87.5 95.5q38 0 96 -33l66 -48l19 -7q12 7 16 18t7 15v966
l-153 7l53 88l46 95z" />
    <glyph glyph-name="uni179f.sub.alt.a" horiz-adv-x="1550" 
d="M1310 1384q42 0 59 -33.5t17 -94.5v-1013q0 -27 23 -46l23 -4q-9 -57 -50 -129t-87 -72q-17 4 -48 46l-80 113l-8 19l14 42q8 12 11 21.5t6 16.5v790q0 68 -104 98l-105 17l-250 -2l-423 -1q-7 -4 -15.5 -7.5t-26 -20.5t-17.5 -54q4 -11 7.5 -18.5t17.5 -25.5l62 -56
l59 -40l69 -30v-677q63 0 122 48l100 104q0 -82 -17.5 -163.5t-69.5 -125.5l-76 -45l-59 -18v-776q115 -100 147.5 -150t36.5 -109q0 -48 -64 -127.5t-145.5 -144.5t-182.5 -105l-169 -49q-90 0 -216.5 54t-192.5 109q-111 89 -111 193q0 81 64.5 155t126.5 74q38 0 76 -44
q31 -45 42 -89q-42 -15 -66 -24t-62 -33t-42 -69q0 -37 112.5 -90.5t188.5 -53.5q42 0 66 5.5t62 22t47 22t66 37t102 68.5q59 48 90 108q0 37 -60.5 101.5t-150.5 123.5v795q-66 0 -135.5 33t-69.5 63q0 26 38 92l42 82l59 -41l66 -26v592q-28 12 -78 56t-68 81l83 193
l80 233z" />
    <glyph glyph-name="uni1780.au" horiz-adv-x="2325" 
d="M976 268v429l-144 105q-48 34 -100 34l-80 -11l-76 -41v-524q0 -26 32 -45l32 -4q-12 -56 -70 -127.5t-122 -71.5q-24 4 -68 45l-112 113l-12 19l20 41q12 12 16 21t8 17v497l216 146q156 91 312 91q128 0 248 -91l172 -146v-505q0 -26 32 -45l32 -4q-12 -56 -70 -127.5
t-118 -71.5q-28 4 -56 26l-128 132l-12 19l24 38q24 22 24 41zM2016 1373l6 -10q17 -34 17 -95v-1013q0 -27 23 -46l23 -4q-9 -57 -50 -129t-87 -72q-17 4 -48 46l-80 113l-8 19l14 42q8 12 11 21.5t6 16.5v790q0 68 -104 100l-105 8q-208 0 -251 2l-141 -2q-32 0 -70 -47
t-58 -51l-20 30q-32 68 -64 68h-562q-36 0 -36 -38q4 -7 14 -18.5t22 -18.5l76 -15q-8 -31 -40 -83l-44 -64q-76 11 -120 35.5t-80 62.5l68 154l80 222h654q20 0 44 -34l40 -64q4 4 14 9.5t44 43t70 45.5h-8q8 4 17 0h519l11 80v39q0 152 -238 168h-12v13q94 206 143 206
q203 0 274 -258q0 -180 -51 -248h34q34 0 52 -23h1v-1z" />
    <glyph glyph-name="uni1781.au" horiz-adv-x="2325" 
d="M1934 1361l4 -8q17 -36 17 -97v-1013q0 -27 23 -46l23 -4q-9 -57 -50 -129t-87 -72q-17 4 -48 46l-80 113l-8 19l14 42q8 12 11 21.5t6 16.5v790q0 68 -104 100l-105 17q-208 3 -251 -7h-122q-11 0 -20 -3q55 -173 55 -264q-7 -49 -116 -111.5t-237 -104.5t-217 -95
q-144 -80 -155 -172q0 -57 79.5 -125.5t120.5 -68.5q44 0 100 31l125 68l89 61q60 46 85 76l37 80l30 91q30 -45 41 -89t14.5 -68.5t7.5 -58.5q0 -84 -19 -122q-11 -27 -81 -80l-118 -87l-104 -58l-122 -49q-67 0 -145 42l-129 87q-89 73 -133 130q-56 68 -67 133
q0 122 41 194q26 49 109 110t288.5 144.5t246.5 114t41 76.5l-8 38q-4 19 -33.5 51.5t-81.5 35.5h-373q-34 0 -45 -57t-13 -68.5t-13 -22.5q-33 0 -86.5 82t-53.5 173q0 38 31 83.5t91 49.5h562q53 0 116 -141l5 42l29 57q23 34 48 34h522l12 88v39q0 152 -238 168h-12v13
q94 206 143 206q203 0 274 -258q0 -191 -57 -256h36q25 0 41 -13l16 -2v-13h-2z" />
    <glyph glyph-name="uni1782.au" horiz-adv-x="2325" 
d="M1850 0v1064l-479 175l-256 -164l-34 1l-488 180l-198 -93l81 -62q-51 -57 -86 -57q-34 -1 -112 42l-78 43v55l463 216h45l461 -172l270 172l462 -170v420q0 50 -25 75t-75 25q0 50 34 75t103 25t103 -50t34 -150v-400q0 -50 -50 -150v-1100h-175zM972 258v433l-141 106
q-47 34 -98 34l-78 -11l-74 -42v-497l74 133q43 57 109 64q51 0 84.5 -49t33.5 -156q0 -53 -59 -117q-35 -35 -109 -69q0 137 -36 137q-39 -23 -54 -46l-75 -117q-43 -61 -93 -61q-36 0 -86 61l-90 98l-12 19l20 42q11 12 15 21.5t8 16.5v501l211 148q153 91 305 91
q125 0 242 -91l168 -148v-508q0 -27 32 -46l31 -4q-12 -57 -68.5 -129t-115.5 -72q-27 4 -54 27l-126 132l-11 19l23 38q24 23 24 42z" />
    <glyph glyph-name="uni1783.au" horiz-adv-x="3100" 
d="M2675 1392h46q42 0 59 -37.5t17 -98.5v-1013q0 -27 23 -46l23 -4q-9 -57 -50 -129t-87 -72q-17 4 -48 46l-80 113l-8 19l14 42q8 12 11 21.5t6 16.5v790q0 68 -104 100l-105 17q-208 0 -251 -1l-408 2q-70 0 -74 -61l8 -23l155 -220l113 -163q81 -137 81 -285l-11 -87
q-47 -156 -206 -247q-140 -72 -322 -72q-89 0 -159 23l-132 68q-70 -45 -166.5 -68t-197.5 -23q-163 0 -353 129l-155 110v520l159 209l15 49q0 50 -50 103l-78 64l-31 8q-46 0 -66 -57q0 -23 47 -87q38 -46 85 -76q-8 -46 -52.5 -89.5t-75.5 -51.5q-31 0 -91 55t-68 116
q0 156 93 255l109 94q66 46 120 46q62 0 167 -118l81 -110q23 -30 23 -68l-11 -49l-35 -57l-51 -69q-15 -26 -27 -87v-607l105 -61q50 -19 109 -27q89 0 159 34q62 38 104.5 101t42.5 142l-12 84q-11 49 -38 100.5t-58.5 102.5t-65.5 97l-121 155l93 198l90 239h387
q28 -8 28 -133q-12 -57 -54.5 -129t-73.5 -76l-31 49q-24 46 -51 50h-108q-28 0 -51 -19q-23 -12 -23 -38q0 -27 8 -34l147 -201q74 -95 114.5 -169t64 -146.5t23.5 -148.5l-12 -83q-23 -76 -58 -129l43 -23q54 -23 108 -23q89 0 128 19q78 31 140 122q35 53 35 133
q0 91 -47 182q-27 57 -58 108t-66 97l-124 155l93 186q66 149 93 251h388q7 -1 13 -5h511l11 85v39q0 152 -238 168h-12v13q94 206 143 206q203 0 274 -258q0 -187 -55 -253z" />
    <glyph glyph-name="uni1784.au" horiz-adv-x="2325" 
d="M715 929q-28 -31 -103 -66q-57 -19 -117 -27q-43 12 -103 78q-50 66 -71 136q0 48 73 180.5t73 195.5q-22 51 -68 80t-103 37q39 82 90.5 140.5t101.5 62.5q92 -27 146 -105q28 -55 35 -118q0 -63 -78 -187q-71 -125 -78 -191l32 -75l46 -70q64 -59 124 -71zM1936 1361
q15 -35 15 -93v-1013q0 -27 23 -46l23 -4q-9 -57 -50 -129t-87 -72q-17 4 -48 46l-80 113l-8 19l14 42q8 12 11 21.5t6 16.5v790q0 68 -104 100l-105 17q-208 3 -251 -7h-122q-5 0 -10 -1v-21q-3 -27 -71 -78q-53 -34 -124 -54q0 121 -12.5 162t-44.5 52q-53 0 -53 -70
q0 -58 78 -160l163 -199q153 -180 153 -340q0 -70 -39 -160q-32 -94 -64 -140q-43 -71 -89 -110q-32 -28 -75 -43q-42 0 -141.5 93.5t-128.5 93.5q-25 -23 -35 -39l-39 -51l-68 -78q-14 -11 -64 -19q-57 0 -90.5 31.5t-97.5 124.5l-7 28q0 31 62 152t69 176q-7 31 -44 56.5
t-80 32.5q0 47 75 129q46 48 92 51q39 0 80 -37t62 -99l7 -48q0 -70 -74 -187l-75 -102q0 -19 32 -51q28 -19 67 -27q11 5 71 106q54 101 86 105q42 0 99 -50l139 -141q35 0 69 25.5t34 76.5l-11 58q-35 78 -103 168l-121 157l-113 155q-12 20 -22 39q-39 74 -39 130
q0 78 107 222.5t167 156.5q92 0 153 -72q13 -17 24 -38l20 39q23 34 48 34h528l10 76v39q0 152 -238 168h-12v13q94 206 143 206q203 0 274 -258q0 -175 -48 -244h23q36 0 53 -26l8 -1v-13z" />
    <glyph glyph-name="uni1785.au" horiz-adv-x="2325" 
d="M2011 1353q17 -36 17 -97v-1013q0 -27 23 -46l23 -4q-9 -57 -50 -129t-87 -72q-17 4 -48 46l-80 113l-8 19l14 42q8 12 11 21.5t6 16.5v790q0 68 -104 100l-105 9q-208 -1 -251 1l-136 -2q-31 0 -67.5 -47t-55.5 -51l-19 30q-31 68 -62 68h-610q-58 0 -58 -83
q4 -41 92 -98l69 -45l77 -30v-662l69 -49l84 -15q58 0 127 56l103 87v237l-11 26l-12 11l-15 4q-19 4 -23 8q0 26 31 67l38 49q65 83 115 83q31 0 81 -39.5t57 -80.5v-437l-119 -105q-142 -132 -283 -132q-139 0 -296 90l-207 147v576q-38 11 -90 58t-71 81l92 196l88 237
h703q19 0 42 -34l39 -64q4 4 13.5 9.5t42 43t66.5 45.5h-11q8 4 17 4h509l12 88v39q0 152 -238 168h-12v13q94 206 143 206q203 0 274 -258q0 -191 -57 -256h49q27 0 44 -15q9 -8 15 -21z" />
    <glyph glyph-name="uni1786.au" horiz-adv-x="2325" 
d="M1004 270q73 11 73 117q0 34 -25.5 76t-58.5 76l-92 61q-59 34 -128 53l47 83q59 92 114 99q81 0 161 -61q59 -45 105 -117t46 -171q0 -122 -77 -266q-59 -102 -103 -148q-70 -72 -147 -72q-58 11 -84 30l-88 114l-55 84q-25 42 -88 98q37 61 86.5 93.5t107.5 32.5
q30 -12 140 -129q40 -46 66 -53zM1244 1398q1 1 3 1h-12q5 -1 9 -1zM1870 1398h40q42 0 59 -40.5t17 -101.5v-1013q0 -27 23 -46l23 -4q-9 -57 -50 -129t-87 -72q-17 4 -48 46l-80 113l-8 19l14 42q8 12 11 21.5t6 16.5v790q0 68 -104 100l-105 15h-251l-112 3
q-29 0 -64 -47.5t-53 -51.5l-19 31q-29 68 -58 68h-599q-55 0 -55 -84q3 -41 88 -98l66 -46l73 -30v-668q0 -23 13 -46t20 -53q-11 -57 -73.5 -95t-124.5 -38q-117 0 -196 89t-79 215q0 76 38.5 165t78.5 89q8 -11 17 -24.5t18 -45.5t17 -112q-55 -46 -55 -129l7 -50
q18 -34 55 -45l15 23v645q-37 11 -86.5 58.5t-67.5 81.5l88 198l84 239h687q18 0 40 -34l37 -65q4 4 13 9.5t40 44.5q29 37 61 46h498l11 79v39q0 152 -238 168h-12v13q94 206 143 206q203 0 274 -258q0 -179 -50 -247z" />
    <glyph glyph-name="uni1787.au" horiz-adv-x="2325" 
d="M1956 1372q8 -8 13 -19q17 -36 17 -97v-1013q0 -27 23 -46l23 -4q-9 -57 -50 -129t-87 -72q-17 4 -48 46l-80 113l-8 19l14 42q8 12 11 21.5t6 16.5v790q0 68 -104 100l-105 15q-208 3 -251 -5h-122q-9 0 -16 -2q-34 -65 -114 -151q-103 -112 -178 -131q-71 0 -182 60
l-131 90l16 37l16 53q0 48 -68 48h-138q-68 0 -68 -82q4 -41 95 -97l72 -45l79 -30v-633q16 -19 28 -19q19 7 95 124q31 52 63 63q44 0 87 -30l83 -52l20 -8l20 38v172l-12 26l-12 11l-16 4q-19 4 -23 8q0 26 31 67l40 49q67 82 119 82q31 0 82.5 -39t59.5 -81v-423
q12 -26 22 -33.5t14 -18.5t8 -15l-8 -23q-28 -45 -77.5 -91.5t-100.5 -65.5q-40 0 -87 22l-91 64l-88 75q-51 41 -83 49q-28 -15 -43 -30l-48 -60l-87 -90q-32 -23 -83 -30q-48 0 -115 56l-103 101l-12 19l24 37q23 23 23 42v554q-39 11 -92.5 58t-73.5 81l95 194l91 236
h313q56 0 83 -60l16 -78q-4 -53 -24 -83l100 -71q47 -22 107 -30q43 11 59 68q0 59 -32 108q-16 26 -43.5 63.5t-63.5 78.5l-63 94q-20 49 -20 112q20 38 81.5 94t108.5 60q0 -56 48 -135q31 -56 87 -112q58 -65 87 -139q22 29 45 29h511l12 88v39q0 152 -238 168h-12v13
q94 206 143 206q203 0 274 -258q0 -191 -57 -256h47q27 0 43 -15h3v-2z" />
    <glyph glyph-name="uni1788.au" horiz-adv-x="3875" 
d="M3478 1411h32q42 0 59 -47t17 -108v-1013q0 -27 23 -46l23 -4q-9 -57 -50 -129t-87 -72q-17 4 -48 46l-80 113l-8 19l14 42q8 12 11 21.5t6 16.5v790q0 68 -104 100l-105 27q-208 3 -251 1h-423q-28 0 -52 -19q-24 -12 -24 -39l8 -26l149 -211l125 -176q40 -69 64.5 -142
t24.5 -149l-12 -84q-49 -157 -214 -249q-153 -73 -339 -73q-89 0 -153.5 21t-148.5 71q-81 -46 -178 -69t-198 -23q-165 0 -367 130l-165 111v816q0 65 -22 88t-79 23h-492q-60 0 -60 -84q4 -43 96 -100l73 -46l81 -31v-704q96 46 109 122q0 39 -25 81l-52 57q8 39 18 62
t38 65q45 65 81 76q32 0 76.5 -57.5t56.5 -118.5q0 -126 -60 -237q-33 -54 -113 -134q-49 -50 -107.5 -84.5t-126.5 -34.5q-28 0 -61 27l-145 134l-12 19l24 38q24 23 24 42v567q-40 12 -94.5 59.5t-74.5 82.5l97 199l93 241h806q125 0 125 -134v-1041l109 -62
q57 -19 117 -27q93 0 133 20q81 30 145 122q37 54 37 134q0 92 -49 184q-28 57 -60 109t-69 98l-129 157l97 187q69 150 97 253h403q24 -4 32 -69l-8 -65q-12 -57 -56 -130t-77 -77l-28 50q-24 46 -56 50h-113q-73 0 -77 -61l8 -23l77 -111q80 -104 101 -131
q52 -69 100 -145q85 -138 85 -287l-12 -88l-16 -54q-12 -46 -45 -77l45 -23q56 -23 113 -23q93 0 133 20q81 30 145 122q40 65 40 138l-12 84q-12 50 -40 101.5t-60.5 103.5t-68.5 98l-125 157l97 199l92 241l938 2l9 66v39q0 152 -238 168h-12v13q94 206 143 206
q203 0 274 -258q0 -163 -42 -234z" />
    <glyph glyph-name="uni1789.au" horiz-adv-x="3100" 
d="M685 -391l-117 41q-99 29 -267 29q59 98 108.5 127t127.5 29q138 0 354 -80l522 -191q117 0 186 25.5t89 66.5q0 29 -54.5 65.5t-137.5 46.5q24 35 44.5 57.5t54.5 41.5q57 31 147 31q74 0 177 -76q92 -80 92 -153q0 -44 -88 -99l-162 -70l-250 -82q-75 -20 -153 -20
q-127 0 -309 71zM2677 1409h33q42 0 59 -46t17 -107v-1013q0 -27 23 -46l23 -4q-9 -57 -50 -129t-87 -72q-17 4 -48 46l-80 113l-8 19l14 42q8 12 11 21.5t6 16.5v790q0 68 -104 100l-105 15q-208 3 -251 -5h-115v-897q0 -27 34 -46l34 -4q-13 -58 -74.5 -130.5
t-125.5 -72.5q-30 4 -60 27l-136 134l-13 19l26 38q25 23 25 42v797q0 61 -15 86t-74 25h-162q-21 0 -49 -29t-62 -48v-838l9 -27l25 -19l34 -4q-12 -73 -69.5 -134t-130.5 -69q-25 4 -72 46l-120 115l-12 19l21 42q13 12 17 21.5t8 16.5v797q0 65 -12.5 88t-76.5 23h-94
q-34 0 -74.5 -48t-61.5 -52l-21 31q-34 69 -68 69h-218q-64 0 -64 -84q5 -43 103 -100l76 -46l86 -31v-704q102 46 115 122q0 39 -26 81l-55 57q8 39 18.5 62t40.5 65q47 65 85 76q35 0 81.5 -57.5t59.5 -118.5q0 -126 -64 -237q-34 -54 -119 -134q-51 -50 -113 -84.5
t-134 -34.5q-30 0 -64 27l-153 134l-13 19l25 38q26 23 26 42v567q-43 12 -100.5 59.5t-78.5 82.5l102 199l98 241h341q21 0 47 -34l42 -66q5 4 15.5 10t46.5 44t75 46h306q56 0 90 -46l30 -54q4 4 14.5 10t47 44t74.5 46h396q60 0 86 -36q1 -3 2 -5q19 41 38 41h514l9 68
v39q0 152 -238 168h-12v13q94 206 143 206q203 0 274 -258q0 -165 -43 -236z" />
    <glyph glyph-name="uni178a.au" horiz-adv-x="2325" 
d="M322 265v401q0 19 -23 43l-35 11q0 27 27 70l39 51l66 62l51 20q35 0 85.5 -37t58.5 -88v-533q16 -20 27 -20q20 8 66.5 91.5t89.5 103.5q39 0 97 -35l67 -51l19 -8q12 12 16 22t7 17v281q0 19 -27 43l-35 11l16 47q19 39 54 74q62 82 113 82q35 0 85.5 -37t58.5 -88
v-541q12 -27 21.5 -35t13.5 -19.5t8 -15.5l-8 -23q-27 -47 -75.5 -96t-103.5 -68q-35 0 -83.5 25.5t-87.5 64.5l-86 77q-50 43 -86 51q-27 -19 -42 -35l-47 -58q-47 -67 -78 -92t-86 -33q-46 0 -113 58l-101 106l-11 19l19 43q12 11 16 21t7 18zM1853 1389h57q42 0 59 -36
t17 -97v-1013q0 -27 23 -46l23 -4q-9 -57 -50 -129t-87 -72q-17 4 -48 46l-80 113l-8 19l14 42q8 12 11 21.5t6 16.5v790q0 68 -104 100l-105 15q-208 3 -251 -5h-122q-57 -97 -208 -149q-129 -47 -265 -47q-132 0 -282 70t-150 163q0 47 58.5 132.5t101.5 105.5l54 12
q62 0 113 -29.5t78 -79.5q0 -32 -39 -74.5t-74 -62.5l-55 51q-19 12 -54 19l-31 -15l-20 -31q0 -28 51 -63l121 -50l101 -20q105 0 175 24q94 35 105 113q0 73 -37 122t-99 84l62 74q59 58 129 66q43 0 123 -85q39 -43 59 -91h506l12 88v39q0 152 -238 168h-12v13
q94 206 143 206q203 0 274 -258q0 -191 -57 -256z" />
    <glyph glyph-name="uni178b.au" horiz-adv-x="2325" 
d="M2053 1389h57q42 0 59 -36t17 -97v-1013q0 -27 23 -46l23 -4q-9 -57 -50 -129t-87 -72q-17 4 -48 46l-80 113l-8 19l14 42q8 12 11 21.5t6 16.5v790q0 68 -104 100l-105 13q-208 3 -251 -3h-116q-9 -20 -19 -43q-65 -142 -129 -176q-51 0 -107 28.5t-66 50.5l13 53l14 65
q0 34 -44 38h-68q-24 0 -44 -19q-21 -12 -21 -38q0 -8 2 -15.5t5 -11.5q24 -53 95 -159l136 -223q34 -68 54 -139.5t20 -147.5l-10 -83q-34 -159 -159.5 -238.5t-305.5 -79.5q-142 0 -308 129l-136 109v537q44 72 88 118l54 68l14 49q0 53 -44 106q-14 19 -71 64l-28 8
q-40 0 -57 -57q0 -23 40 -87q34 -46 75 -76q-7 -45 -46 -88.5t-66 -51.5q-27 0 -79.5 55t-59.5 115q0 156 81 254l95 94q58 46 106 46q54 0 132 -83q64 -68 115 -152q21 -34 21 -64q0 -23 -21 -57l-30 -41l-51 -68q-17 -23 -25.5 -51.5t-11.5 -39.5v-605l91 -61
q44 -19 95 -26q78 0 139 34q55 38 92 100t37 142l-10 83q-10 49 -34 100t-51 102t-57 97l-106 155l82 197l78 238h231q27 0 52.5 -34t28.5 -91l-20 -68l-14 -53q10 -38 88 -38l38 72l20 57l6 49l3 6q-6 100 -60 160q-34 34 -118.5 57t-173.5 23l-122 -12q10 46 18.5 74.5
t34 89t52.5 71.5l75 11l58 4q95 0 183 -36t139 -106t51 -164l-7 -76l-2 -11h447l12 88v39q0 152 -238 168h-12v13q94 206 143 206q203 0 274 -258q0 -191 -57 -256z" />
    <glyph glyph-name="uni178c.au" horiz-adv-x="2325" 
d="M1853 1389h57q42 0 59 -36t17 -97v-1013q0 -27 23 -46l23 -4q-9 -57 -50 -129t-87 -72q-17 4 -48 46l-80 113l-8 19l14 42q8 12 11 21.5t6 16.5v790q0 68 -104 100l-105 15q-208 3 -251 -5h-85q19 -81 19 -179q0 -153 -189 -268l-489 -254l-11 -34q0 -33 37 -85
q40 -45 76 -68l29 -7q48 0 124 63l131 123l106 109q73 67 124 74q33 -11 47 -52l15 -89v-460q0 -36 -51 -77.5t-80 -41.5q-22 0 -44 23l-44 52l-40 56l-25 67l40 11q14 22 14 37v142q-3 26 -18 30l-182 -175q-87 -79 -171 -116l-40 -8q-153 0 -299 295l-15 38l-3 37
q0 52 54 108l131 82l266 116q161 67 223 134q36 38 36 135q0 123 -69 183l-22 7l-14 8q-33 0 -88 -58t-95 -66q-40 0 -94.5 58t-83.5 66q-22 0 -40 -15q-44 -45 -48 -97q11 -34 69.5 -80.5t138.5 -46.5q-11 -64 -47.5 -114.5t-76.5 -61.5q-87 0 -165.5 84t-78.5 181
q22 97 98 228q95 153 179 153q91 0 147.5 -69t78.5 -69q22 11 36.5 22t50.5 45q70 64 132 71q84 0 143 -72l15 30q23 34 48 34h501l12 88v39q0 152 -238 168h-12v13q94 206 143 206q203 0 274 -258q0 -191 -57 -256z" />
    <glyph glyph-name="uni178d.au" horiz-adv-x="3100" 
d="M937 406v651q0 65 -11 88t-65 23h-79q-29 0 -63.5 -48t-52.5 -52l-18 31q-29 69 -58 69h-184q-54 0 -54 -84q4 -43 87 -100l65 -46l72 -31v-704q87 46 97 122q0 39 -21 81l-47 57q11 58 47 125t68 71q29 0 65 -54t47 -119q0 -134 -47 -233q-32 -69 -90 -130.5t-105 -92
t-108 -30.5q-25 0 -54 27l-130 134l-11 19l22 38q22 23 22 42v567q-37 12 -85.5 59.5t-66.5 82.5l87 199l83 241h288q18 0 40 -34l36 -66q4 4 13 10t39.5 44t63.5 46h259q51 0 72.5 -36.5t21.5 -97.5v-1022l4 -35l14 -34q0 -31 -39.5 -103.5t-90.5 -80.5q-54 11 -119 77
q-83 76 -83 153q0 27 47 115q22 42 22 61zM2677 1409h33q42 0 59 -46t17 -107v-1013q0 -27 23 -46l23 -4q-9 -57 -50 -129t-87 -72q-17 4 -48 46l-80 113l-8 19l14 42q8 12 11 21.5t6 16.5v790q0 68 -104 97l-105 31h-625q-25 0 -47 -19q-22 -12 -22 -39q0 -7 2 -15t6 -11
l140 -211l105 -176q36 -69 57.5 -142t21.5 -149l-11 -84q-43 -157 -173 -245q-133 -77 -324 -77q-83 0 -173.5 61.5t-90.5 122.5l47 84q29 50 29 88q0 27 -36 50l-105 50q22 53 67 110.5t70 57.5q51 0 109 -65q54 -54 61 -119q-7 -53 -61 -138l-51 -95q18 -27 32 -35l62 -15
q108 0 164 28.5t103 101.5q32 54 32 130q0 46 -10.5 94t-39.5 102q-43 88 -108 191q-22 35 -54.5 82.5t-61.5 82.5l87 187q61 150 86 253h875l9 68v39q0 152 -238 168h-12v13q94 206 143 206q203 0 274 -258q0 -165 -43 -236z" />
    <glyph glyph-name="uni178e.au" horiz-adv-x="3875" 
d="M3473 1403h37q42 0 59 -43t17 -104v-1013q0 -27 23 -46l23 -4q-9 -57 -50 -129t-87 -72q-17 4 -48 46l-80 113l-8 19l14 42q8 12 11 21.5t6 16.5v790q0 68 -104 96l-105 15l-250 -1h-123q-5 0 -9 -1v-898l8 -27l25 -19l34 -4q-13 -57 -74 -129t-124 -72q-30 4 -59 27
l-135 132l-9 19l21 42q13 12 17 21.5t9 16.5v790q0 64 -23.5 87t-82.5 23h-515q-63 0 -63 -84q4 -41 101 -98l76 -46l85 -30v-649q12 -27 23 -34.5t15 -19t8 -15.5l-8 -23q-21 -34 -89 -94q-50 -46 -105 -65q-34 0 -80 15l-110 72l-97 80q-51 42 -85 46l-42 -23l-55 -69
q-42 -56 -82 -84.5t-99 -36.5q-38 0 -97 46l-131 113l-12 19l21 42q12 12 16.5 21.5t8.5 16.5v790q0 49 -13 72q-25 34 -93 38h-514q-64 0 -64 -84q5 -41 102 -98l76 -46l84 -30v-699q101 46 114 122q0 38 -25 79l-55 57q8 38 18.5 61t40.5 65q46 64 84 76q34 0 80.5 -57
t58.5 -118q0 -125 -63 -235q-34 -54 -118 -133q-51 -50 -112 -84t-133 -34q-29 0 -63 27l-152 132l-12 19l25 38q25 23 25 42v562q-42 11 -99 58.5t-78 81.5l101 198l97 239h844q131 0 131 -133v-1006q17 -19 29 -19l102 125q38 54 71 65q42 0 106 -34l71 -50l22 -7l21 38
v444q-34 11 -97 61l-81 79l102 186q71 149 101 251h844q79 0 111 -49l3 7q23 34 49 48h512l10 74v39q0 152 -238 168h-12v13q94 206 143 206q203 0 274 -258q0 -172 -47 -242z" />
    <glyph glyph-name="uni178f.au" horiz-adv-x="2325" 
d="M1850 0v1064l-479 175l-256 -164l-34 1l-488 180l-198 -93l81 -62q-51 -57 -86 -57q-34 -1 -112 42l-78 43v55l463 216h45l461 -172l270 172l462 -170v420q0 50 -25 75t-75 25q0 50 34 75t103 25t103 -50t34 -150v-400q0 -50 -50 -150v-1100h-175zM584 778v-577
q95 46 107 122q0 26 -19.5 68t-55.5 68q8 38 18 61t37 65q44 64 79 76q32 0 77.5 -59t49.5 -116q0 -125 -59 -235q-24 -50 -107 -133q-48 -50 -111 -88q-24 -15 -51.5 -22.5t-70.5 -7.5q-32 0 -79 46l-119 113l-12 19l20 42q12 12 16 21.5t8 16.5v501l213 148q154 91 309 91
q126 0 245 -91l170 -148v-508q0 -27 31 -46l32 -4q-12 -57 -69.5 -129t-116.5 -72q-28 4 -55 27l-127 132l-12 19l24 38q24 23 24 42v433l-143 106q-47 34 -98 34l-79 -11z" />
    <glyph glyph-name="uni1790.au" horiz-adv-x="2325" 
d="M1853 1389h57q42 0 59 -36t17 -97v-1013q0 -27 23 -46l23 -4q-9 -57 -50 -129t-87 -72q-17 4 -48 46l-80 113l-8 19l14 42q8 12 11 21.5t6 16.5v790q0 68 -104 94l-105 17l-250 -1h-123q-19 0 -33 -9q-34 -58 -101 -130q-102 -114 -177 -133q-71 0 -182 60l-130 92l16 38
l16 53q0 49 -67 49h-139q-67 0 -67 -83q4 -42 95 -99l71 -46l79 -30v-668l71 -50l87 -15q59 0 130 57l107 87v240l-12 26l-12 12l-16 3q-20 4 -23 8q0 27 31 68l40 50q67 83 118 83q32 0 83 -40t59 -81v-441l-122 -106q-146 -133 -292 -133q-142 0 -304 91l-213 148v581
q-40 12 -93 59t-73 82l95 197l90 239h312q55 0 83 -60l16 -80q-4 -53 -24 -84l99 -72q47 -23 106 -30q44 11 60 68q0 61 -32 110q-16 27 -43.5 65t-63.5 79l-63 95q-19 50 -19 114q19 38 80.5 95t108.5 61q0 -57 47 -137q32 -57 87 -114q65 -73 93 -157q21 27 44 27h500
l12 88v39q0 152 -238 168h-12v13q94 206 143 206q203 0 274 -258q0 -191 -57 -256z" />
    <glyph glyph-name="uni1791.au" horiz-adv-x="2325" 
d="M1878 1410h32q42 0 59 -46.5t17 -107.5v-1013q0 -27 23 -46l23 -4q-9 -57 -50 -129t-87 -72q-17 4 -48 46l-80 113l-8 19l14 42q8 12 11 21.5t6 16.5v790q0 68 -104 100l-105 17q-208 3 -250 -7h-123q-16 0 -28 -6q-8 -21 -20 -42q-39 -80 -78 -80l-17 72q-9 72 -45 76
h-315q-35 0 -71 -34l-33 -53q-16 -54 -22 -99q0 -38 19 -69q33 -37 111 -87q68 -34 152 -34h36l61 15q72 23 120 57l95 65q-36 -118 -72 -183q-26 -64 -71 -98v-460l-137 -129q-19 -15 -53 -32t-80 -17q-116 0 -194 80l-101 98v133q0 31 -13 34l-19 8l-17 8l13 49
q20 38 46 68l49 61q16 11 45 19q26 0 65 -41.5t39 -76.5v-163q0 -102 81 -102q71 0 71 106v243l55 30l30 34l-78 -11q-114 0 -196.5 45.5t-141 106.5t-110.5 163l91 216q58 156 94 289h529q49 0 78 -47q3 -5 5 -9l1 2q23 55 49 55h513l9 67v39q0 152 -238 168h-12v13
q94 206 143 206q203 0 274 -258q0 -164 -42 -235z" />
    <glyph glyph-name="uni1792.au" horiz-adv-x="2325" 
d="M1259 1409h-14q8 -1 14 0zM1878 1411h32q42 0 59 -47t17 -108v-1013q0 -27 23 -46l23 -4q-9 -57 -50 -129t-87 -72q-17 4 -48 46l-80 113l-8 19l14 42q8 12 11 21.5t6 16.5v790q0 68 -104 100l-105 29q-208 3 -250 0l-100 1q-30 0 -66.5 -47.5t-55.5 -51.5l-20 31
q-30 68 -61 68h-631q-58 0 -58 -84q4 -41 92 -98l70 -46l76 -30v-642q16 -19 31 -19q15 4 82.5 101t105.5 104q46 0 142 -118q46 -56 65 -56q77 11 77 117q0 34 -27 76t-61 76l-96 61q-61 34 -134 53l49 83q62 92 119 99q85 0 169 -61q62 -45 110 -117t48 -171
q0 -122 -81 -266q-61 -102 -107 -148q-73 -72 -154 -72q-61 11 -124.5 83.5t-90.5 75.5q-19 -11 -38 -28t-77 -78q-42 -45 -92 -53q-54 0 -115 65l-96 94l-12 19l23 38q23 23 23 42v562q-38 11 -90 58.5t-71 81.5l92 198l88 239h724q19 0 42 -34l38 -65q4 4 13.5 9.5
t42.5 43.5t67 46h-3l6 2h479l9 66v39q0 152 -238 168h-12v13q94 206 143 206q203 0 274 -258q0 -163 -42 -234z" />
    <glyph glyph-name="uni1793.au" horiz-adv-x="2325" 
d="M1877 1409h33q42 0 59 -46t17 -107v-1013q0 -27 23 -46l23 -4q-9 -57 -50 -129t-87 -72q-17 4 -48 46l-80 113l-8 19l14 42q8 12 11 21.5t6 16.5v790q0 68 -104 100l-105 10h-321q-11 -25 -25 -48q-33 -80 -56 -80l-28 72q-30 72 -69 76h-427q-46 0 -74 -27l-36 -49
l-14 -53q0 -31 39 -57l110 -50l185 -72l131 -49q54 -23 73.5 -38t58.5 -49q60 -53 92 -125.5t32 -193.5q0 -65 -85 -163l-107 -99l-106 -80q-93 -49 -157 -49q-14 4 -78 102q-128 213 -170 239l-25 8q-46 0 -46 -72q7 -34 49.5 -85.5t81.5 -74.5l-32 -53q-39 -57 -71 -68
q-53 0 -124 87q-64 88 -64 171q14 65 119 188t168 123q54 0 100 -38l78 -91l68 -102q49 -68 85 -68q35 11 69 52.5t34 87.5q0 80 -96 152q-36 23 -288 129l-199 76q-96 42 -156 125l99 216q64 156 103 289h615q47 0 78 -38q17 38 36 38h513l9 68v39q0 152 -238 168h-12v13
q94 206 143 206q203 0 274 -258q0 -165 -43 -236z" />
    <glyph glyph-name="uni1794.au" horiz-adv-x="2325" 
d="M2073 1402h37q42 0 59 -42.5t17 -103.5v-1013q0 -27 23 -46l23 -4q-9 -57 -50 -129t-87 -72q-17 4 -48 46l-80 113l-8 19l14 42q8 12 11 21.5t6 16.5v790q0 68 -104 100l-105 22h-250l-72 2q-44 0 -103 -61t-93 -69q-11 11 -14 15q-19 19 -37 50q-34 65 -104 65h-667
q-62 0 -62 -84q3 -42 88 -99l67 -46l74 -31v-671l66 -50l82 -15q55 0 122 57l100 88v240l-11 27l-11 11l-15 4q-19 4 -22 8q0 27 29 69l37 49q63 84 111 84q30 0 78 -40t55 -82v-762q0 -39 -51.5 -81t-81.5 -42q-22 0 -44 23l-45 58l-44 68l-18 50l33 15q15 3 18 38v72
q-26 -38 -90.5 -76t-120.5 -46q-122 0 -251 92l-178 149v583q-37 12 -87 59.5t-68 81.5l89 199l85 240h814q52 -4 97 -84q14 -30 44 -38q11 8 15 11q18 16 44 50q45 53 100 61h3v-2h451l10 75v39q0 152 -238 168h-12v13q94 206 143 206q203 0 274 -258q0 -173 -47 -243z" />
    <glyph glyph-name="uni1795.au" horiz-adv-x="2325" 
d="M1853 1389h57q42 0 59 -36t17 -97v-1013q0 -27 23 -46l23 -4q-9 -57 -50 -129t-87 -72q-17 4 -48 46l-80 113l-8 19l14 42q8 12 11 21.5t6 16.5v790q0 68 -104 94l-105 17l-250 -1h-123q-28 0 -45 -19q-18 -12 -38 -49l1 10q-29 -41 -72 -88q-101 -113 -176 -132
q-70 0 -179 60l-129 91l15 37l16 53q0 49 -66 49h-137q-67 0 -67 -83q4 -41 94 -98l71 -45l78 -30v-638q15 -18 31 -18q16 3 84 99.5t107 103.5q47 0 145 -117q47 -56 66 -56q78 11 78 117q0 34 -27 75.5t-63 74.5l-97 61q-63 34 -137 53l51 83q62 90 121 98q86 0 172 -61
q62 -45 111 -116.5t49 -169.5q0 -121 -82 -264q-63 -102 -109 -147q-75 -72 -157 -72q-62 11 -126.5 83t-91.5 75q-20 -11 -39.5 -28t-78.5 -77q-43 -45 -93 -53q-55 0 -117 64l-98 94l-12 19l24 38q23 23 23 41v559q-39 11 -91.5 58t-72.5 81l94 196l90 238h308
q55 0 82 -61l16 -79q-4 -53 -24 -83l98 -71q47 -23 105 -31q43 12 59 68q0 61 -31 110q-16 26 -43 63.5t-63 79.5l-62 94q-20 49 -20 113q20 38 80.5 94.5t107.5 60.5q0 -57 47 -136q31 -56 86 -113q71 -80 97 -176l11 22q23 34 49 34h500l12 88v39q0 152 -238 168h-12v13
q94 206 143 206q203 0 274 -258q0 -191 -57 -256z" />
    <glyph glyph-name="uni1796.au" horiz-adv-x="2325" 
d="M1969 1397h41q42 0 59 -40t17 -101v-1013q0 -27 23 -46l23 -4q-9 -57 -50 -129t-87 -72q-17 4 -48 46l-80 113l-8 19l14 42q8 12 11 21.5t6 16.5v790q0 68 -104 93l-105 17h-373q-28 0 -45 -19q-6 -4 -13 -12v-868l7 -27l24 -19l31 -4q-12 -72 -64.5 -132.5t-118.5 -68.5
q-23 4 -66 46l-109 113l-12 19l19 42q12 12 16 21.5t8 16.5v790q0 64 -12 87t-70 23h-86q-31 0 -68 -47.5t-56 -51.5l-20 31q-31 68 -62 68h-199q-58 0 -58 -84q4 -41 93 -98l71 -46l77 -30v-699q94 46 106 122q0 38 -24 79l-50 57q7 38 17 61t37 65q43 64 78 76
q31 0 74 -57t54 -118q0 -125 -58 -235q-31 -54 -109 -133q-47 -50 -103.5 -84t-122.5 -34q-27 0 -58 27l-140 132l-12 19l23 38q24 23 24 42v562q-39 11 -92 58.5t-72 81.5l93 198l90 239h312q19 0 42 -34l39 -65q4 4 14 9.5t43 43.5t68 46h280q55 0 79 -36q22 -35 23 -93
l4 30l28 57q23 42 49 42h511l11 80v39q0 152 -238 168h-12v13q94 206 143 206q203 0 274 -258q0 -180 -51 -248z" />
    <glyph glyph-name="uni1797.au" horiz-adv-x="2325" 
d="M332 178v581l203 148q150 91 300 91q123 0 238 -91l166 -148v-508l7 -27l23 -19l31 -4q-12 -72 -63.5 -132.5t-117.5 -68.5q-23 4 -65 46l-108 113l-11 19l19 42q12 12 15.5 21.5t7.5 16.5v433l-130 106q-47 34 -100 34q-50 0 -81 -11l-73 -42v-520l27 -49l15 -31
l-11 -19l-89 -91q-57 -60 -104 -68q-65 0 -122 30q-50 35 -102 88t-79 121t-27 167q0 42 4 65t32.5 76t67.5 53q23 0 59.5 -57t51.5 -114q-57 -46 -57 -129q0 -76 73 -122z" />
    <glyph glyph-name="uni1798.au" horiz-adv-x="2325" 
d="M641 673l81 -8l58 4l96 19q0 -65 -8.5 -108.5t-29.5 -85.5l-136 -11h-37l-69 7l24 88zM1937 1409h33q42 0 59 -46t17 -107v-1013q0 -27 23 -46l23 -4q-9 -57 -50 -129t-87 -72q-17 4 -48 46l-80 113l-8 19l14 42q8 12 11 21.5t6 16.5v790q0 68 -104 114l-105 17l-250 -1
h-382q-24 0 -45 -19q-20 -12 -20 -38q0 -8 1.5 -15.5t5.5 -11.5q20 -45 99 -163l132 -220q34 -68 54.5 -140.5t20.5 -148.5l-10 -83q-34 -160 -160 -239.5t-307 -79.5q-143 0 -310 129l-136 110v581q-34 11 -80 58.5t-63 81.5l82 198l78 239h341q20 -4 27 -68l-7 -65
q-10 -49 -41 -121q-41 -80 -68 -84q-17 15 -20 31q-27 68 -51 68h-120q-57 0 -57 -84q3 -41 81 -98l62 -46l68 -30v-668l92 -61q44 -19 95 -27q78 0 140 34q54 38 91.5 101t37.5 142l-10 84q-10 49 -34 100.5t-51 102.5t-58 97l-106 155l82 198l78 239h341q9 -3 15 -2l12 2
h513l9 68v39q0 152 -238 168h-12v13q94 206 143 206q203 0 274 -258q0 -165 -43 -236z" />
    <glyph glyph-name="uni1799.au" horiz-adv-x="3100" 
d="M2669 1397h41q42 0 59 -40t17 -101v-1013q0 -27 23 -46l23 -4q-9 -57 -50 -129t-87 -72q-17 4 -48 46l-80 113l-8 19l14 42q8 12 11 21.5t6 16.5v790q0 68 -104 100l-105 17h-250l-393 1q-69 0 -73 -61l8 -23l149 -208l115 -175q80 -137 80 -285l-11 -87
q-46 -156 -203 -247q-138 -72 -317 -72q-88 0 -157 23l-130 68q-69 -45 -164.5 -68t-194.5 -23q-160 0 -348 129l-153 110v581q-38 11 -89.5 58.5t-70.5 81.5l92 198l88 239h179q80 0 145 -65q81 -79 81 -220q-23 -133 -237 -167q34 53 38 110q0 46 -38 88q-35 22 -111 22
q-54 -22 -54 -91q0 -34 92 -98l69 -46l76 -30v-668l103 -61q50 -19 107 -27q88 0 157 34q61 38 103 101t42 142l-11 84q-12 49 -38.5 100.5t-57 102.5t-65.5 97l-118 155l92 198l88 239h382q26 -8 26 -133q-11 -57 -53 -129t-73 -76l-30 49q-23 46 -50 50h-107
q-27 0 -50 -19q-23 -12 -23 -38q0 -8 2 -15.5t6 -11.5l73 -110q126 -174 187 -273q38 -68 61 -140.5t23 -148.5l-11 -83q-23 -76 -58 -129l42 -23q54 -23 107 -23q88 0 126 19q77 31 138 122q34 53 34 133q0 91 -46 182q-26 57 -56.5 108t-65.5 97l-122 155l92 186
q65 149 91 251h382q7 -1 13 0h501l11 80v39q0 152 -238 168h-12v13q94 206 143 206q203 0 274 -258q0 -180 -51 -248z" />
    <glyph glyph-name="uni179a.au" horiz-adv-x="1550" 
d="M1176 1406h34q42 0 59 -44.5t17 -105.5v-1013q0 -27 23 -46l23 -4q-9 -57 -50 -129t-87 -72q-17 4 -48 46l-80 113l-8 19l14 42q8 12 11 21.5t6 16.5v790q0 68 -104 110l-105 17l-250 -1l-291 2q-18 0 -34 -19q-15 -12 -15 -39q0 -7 1.5 -15t3.5 -11l98 -203l74 -173
q26 -69 49 -160.5t23 -168.5l-8 -65q-30 -96 -101 -199.5t-109 -114.5q-36 0 -71 36.5t-55 82.5q-26 42 -49 107q-15 61 -23 134q0 34 40 74.5t81 55.5l15 -96l26 -76l31 -54q13 -11 46 -19q23 23 26 77q0 61 -21 134q-8 38 -13 53q-13 50 -38 111q-31 96 -83 192l-79 157
l61 199l60 241h256q7 -2 512 -3l9 71v39q0 152 -238 168h-12v13q94 206 143 206q203 0 274 -258q0 -169 -44 -239z" />
    <glyph glyph-name="uni179b.au" horiz-adv-x="3100" 
d="M2612 1388h60q89 0 89 -198v-990l39 -30v-20q-10 -87 -118 -190h-19q-17 0 -138 180l30 100v770q0 120 -128 130h-706q-59 0 -59 -60q343 -475 343 -640v-50q-67 -390 -461 -390h-98q-183 0 -461 240v800q0 100 -69 100h-490q-26 0 -40 -70q0 -74 236 -170v-690h10
q78 46 78 140l-68 110q72 200 137 200q118 -75 118 -180v-40q0 -236 -275 -420l-39 -10h-108q-157 142 -157 170q39 60 39 90v540q-64 0 -157 150q88 165 177 430h745q128 0 128 -160v-1010q122 -70 216 -70h39q226 60 226 230v80q-7 144 -275 500q100 178 176 430h363
l69 -2h427l12 89v39q0 152 -238 168h-12v13q94 206 143 206q203 0 274 -258q0 -192 -58 -257z" />
    <glyph glyph-name="uni179c.au" horiz-adv-x="1550" 
d="M1353 1389h57q42 0 59 -36t17 -97v-1013q0 -27 23 -46l23 -4q-9 -57 -50 -129t-87 -72q-17 4 -48 46l-80 113l-8 19l14 42q8 12 11 21.5t6 16.5v790q0 68 -104 100l-105 17l-250 -7h-126q-8 -20 -16 -43q-53 -142 -106 -176q-42 0 -88 28.5t-55 50.5l12 53l11 65
q0 34 -37 38h-55q-20 0 -37 -19q-16 -12 -16 -38q0 -8 1 -15.5t4 -11.5l106 -200l81 -170q28 -68 53 -159t25 -167l-8 -64q-33 -94 -110 -196.5t-119 -113.5q-39 0 -76.5 36t-60.5 81q-28 42 -53 106q-17 61 -25 133q0 34 43.5 73.5t87.5 54.5l17 -94l28 -76l33 -53
q14 -11 51 -19q25 23 28 76q0 60 -23 132q-11 49 -20.5 75.5t-35.5 83.5q-16 45 -37 92.5t-49 100.5q-48 91 -89 155l67 197l64 238h190q22 0 43 -34t24 -91l-17 -68l-11 -53q8 -38 72 -38l31 72l13 44l8 62l3 7q-5 99 -49 159q-28 31 -98 57.5t-137 26.5q-64 0 -106 -16
q11 50 17 70.5t27 83t46 81.5q19 7 36 11t59 4q83 0 160 -36t117.5 -106t40.5 -164l-6 -76l-2 -11h469l12 88v39q0 152 -238 168h-12v13q94 206 143 206q203 0 274 -258q0 -191 -57 -256z" />
    <glyph glyph-name="uni179d.au" horiz-adv-x="2325" 
d="M1850 0v1064l-479 175l-256 -164l-34 1l-488 180l-198 -93l81 -62q-51 -57 -86 -57q-34 -1 -112 42l-78 43v55l463 216h45l461 -172l270 172l462 -170v420q0 50 -25 75t-75 25q0 50 34 75t103 25t103 -50t34 -150v-400q0 -50 -50 -150v-1100h-175zM1237 503v-252
q0 -27 32 -46l31 -4q-12 -57 -68.5 -129t-115.5 -72q-27 4 -54 27l-126 132l-11 19l23 38q24 23 24 42v237h-30l-153 7l53 88l47 95l83 -4v10l-141 106q-47 34 -98 34l-78 -11l-74 -42v-497l74 133q43 57 109 64q51 0 84.5 -49t33.5 -156q0 -53 -59 -117q-35 -35 -109 -69
q0 137 -36 137q-39 -23 -54 -46l-75 -117q-43 -61 -93 -61q-36 0 -86 61l-90 98l-12 19l20 42q11 12 15 21.5t8 16.5v501l211 148q153 91 305 91q125 0 242 -91l168 -148v-74l172 15q0 -65 -19 -108.5t-65 -85.5z" />
    </font>
</defs>
</svg>
